solid OpenSCAD_Model
  facet normal -0 0 1
    outer loop
      vertex 3.55 49.8 43.3
      vertex 19.95 46.4 43.3
      vertex 19.95 49.8 43.3
    endloop
  endfacet
  facet normal 0 0 1
    outer loop
      vertex 19.95 46.4 43.3
      vertex 3.55 49.8 43.3
      vertex 3.55 46.4 43.3
    endloop
  endfacet
  facet normal 0 0 -1
    outer loop
      vertex 3.55 46.4 33.3
      vertex 19.95 49.8 33.3
      vertex 19.95 46.4 33.3
    endloop
  endfacet
  facet normal -0 0 -1
    outer loop
      vertex 19.95 49.8 33.3
      vertex 3.55 46.4 33.3
      vertex 3.55 49.8 33.3
    endloop
  endfacet
  facet normal 0 1 -0
    outer loop
      vertex 19.95 49.8 33.3
      vertex 3.55 49.8 43.3
      vertex 19.95 49.8 43.3
    endloop
  endfacet
  facet normal 0 1 0
    outer loop
      vertex 3.55 49.8 43.3
      vertex 19.95 49.8 33.3
      vertex 3.55 49.8 33.3
    endloop
  endfacet
  facet normal -1 0 0
    outer loop
      vertex 3.55 46.4 33.3
      vertex 3.55 49.8 43.3
      vertex 3.55 49.8 33.3
    endloop
  endfacet
  facet normal -1 -0 0
    outer loop
      vertex 3.55 49.8 43.3
      vertex 3.55 46.4 33.3
      vertex 3.55 46.4 43.3
    endloop
  endfacet
  facet normal 0 -1 0
    outer loop
      vertex 3.55 46.4 33.3
      vertex 19.95 46.4 43.3
      vertex 3.55 46.4 43.3
    endloop
  endfacet
  facet normal 0 -1 -0
    outer loop
      vertex 19.95 46.4 43.3
      vertex 3.55 46.4 33.3
      vertex 19.95 46.4 33.3
    endloop
  endfacet
  facet normal 1 -0 0
    outer loop
      vertex 19.95 46.4 43.3
      vertex 19.95 49.8 33.3
      vertex 19.95 49.8 43.3
    endloop
  endfacet
  facet normal 1 0 0
    outer loop
      vertex 19.95 49.8 33.3
      vertex 19.95 46.4 43.3
      vertex 19.95 46.4 33.3
    endloop
  endfacet
endsolid OpenSCAD_Model
