solid OpenSCAD_Model
  facet normal -0 0 1
    outer loop
      vertex 8.25 46 36.6
      vertex 41.25 30 36.6
      vertex 41.25 46 36.6
    endloop
  endfacet
  facet normal 0 0 1
    outer loop
      vertex 41.25 30 36.6
      vertex 8.25 46 36.6
      vertex 8.25 30 36.6
    endloop
  endfacet
  facet normal 0 0 -1
    outer loop
      vertex 8.25 30 28.6
      vertex 41.25 46 28.6
      vertex 41.25 30 28.6
    endloop
  endfacet
  facet normal -0 0 -1
    outer loop
      vertex 41.25 46 28.6
      vertex 8.25 30 28.6
      vertex 8.25 46 28.6
    endloop
  endfacet
  facet normal 0 -1 0
    outer loop
      vertex 8.25 30 28.6
      vertex 41.25 30 36.6
      vertex 8.25 30 36.6
    endloop
  endfacet
  facet normal 0 -1 -0
    outer loop
      vertex 41.25 30 36.6
      vertex 8.25 30 28.6
      vertex 41.25 30 28.6
    endloop
  endfacet
  facet normal 1 -0 0
    outer loop
      vertex 41.25 30 36.6
      vertex 41.25 46 28.6
      vertex 41.25 46 36.6
    endloop
  endfacet
  facet normal 1 0 0
    outer loop
      vertex 41.25 46 28.6
      vertex 41.25 30 36.6
      vertex 41.25 30 28.6
    endloop
  endfacet
  facet normal 0 1 -0
    outer loop
      vertex 41.25 46 28.6
      vertex 8.25 46 36.6
      vertex 41.25 46 36.6
    endloop
  endfacet
  facet normal 0 1 0
    outer loop
      vertex 8.25 46 36.6
      vertex 41.25 46 28.6
      vertex 8.25 46 28.6
    endloop
  endfacet
  facet normal -1 0 0
    outer loop
      vertex 8.25 30 28.6
      vertex 8.25 46 36.6
      vertex 8.25 46 28.6
    endloop
  endfacet
  facet normal -1 -0 0
    outer loop
      vertex 8.25 46 36.6
      vertex 8.25 30 28.6
      vertex 8.25 30 36.6
    endloop
  endfacet
endsolid OpenSCAD_Model
