solid OpenSCAD_Model
  facet normal -0 0 1
    outer loop
      vertex -3.5 91 36
      vertex 13.5 82 36
      vertex 13.5 91 36
    endloop
  endfacet
  facet normal 0 0 1
    outer loop
      vertex 13.5 82 36
      vertex -3.5 91 36
      vertex -3.5 82 36
    endloop
  endfacet
  facet normal 0 0 -1
    outer loop
      vertex -3.5 82 27
      vertex 13.5 91 27
      vertex 13.5 82 27
    endloop
  endfacet
  facet normal -0 0 -1
    outer loop
      vertex 13.5 91 27
      vertex -3.5 82 27
      vertex -3.5 91 27
    endloop
  endfacet
  facet normal 0 -1 0
    outer loop
      vertex -3.5 82 27
      vertex 13.5 82 36
      vertex -3.5 82 36
    endloop
  endfacet
  facet normal 0 -1 -0
    outer loop
      vertex 13.5 82 36
      vertex -3.5 82 27
      vertex 13.5 82 27
    endloop
  endfacet
  facet normal 1 -0 0
    outer loop
      vertex 13.5 82 36
      vertex 13.5 91 27
      vertex 13.5 91 36
    endloop
  endfacet
  facet normal 1 0 0
    outer loop
      vertex 13.5 91 27
      vertex 13.5 82 36
      vertex 13.5 82 27
    endloop
  endfacet
  facet normal 0 1 -0
    outer loop
      vertex 13.5 91 27
      vertex -3.5 91 36
      vertex 13.5 91 36
    endloop
  endfacet
  facet normal 0 1 0
    outer loop
      vertex -3.5 91 36
      vertex 13.5 91 27
      vertex -3.5 91 27
    endloop
  endfacet
  facet normal -1 0 0
    outer loop
      vertex -3.5 82 27
      vertex -3.5 91 36
      vertex -3.5 91 27
    endloop
  endfacet
  facet normal -1 -0 0
    outer loop
      vertex -3.5 91 36
      vertex -3.5 82 27
      vertex -3.5 82 36
    endloop
  endfacet
endsolid OpenSCAD_Model
