solid OpenSCAD_Model
  facet normal -0 0 1
    outer loop
      vertex 8.25 76 42.3
      vertex 41.25 60 42.3
      vertex 41.25 76 42.3
    endloop
  endfacet
  facet normal 0 0 1
    outer loop
      vertex 41.25 60 42.3
      vertex 8.25 76 42.3
      vertex 8.25 60 42.3
    endloop
  endfacet
  facet normal 0 0 -1
    outer loop
      vertex 8.25 60 34.3
      vertex 41.25 76 34.3
      vertex 41.25 60 34.3
    endloop
  endfacet
  facet normal -0 0 -1
    outer loop
      vertex 41.25 76 34.3
      vertex 8.25 60 34.3
      vertex 8.25 76 34.3
    endloop
  endfacet
  facet normal 0 -1 0
    outer loop
      vertex 8.25 60 34.3
      vertex 41.25 60 42.3
      vertex 8.25 60 42.3
    endloop
  endfacet
  facet normal 0 -1 -0
    outer loop
      vertex 41.25 60 42.3
      vertex 8.25 60 34.3
      vertex 41.25 60 34.3
    endloop
  endfacet
  facet normal 1 -0 0
    outer loop
      vertex 41.25 60 42.3
      vertex 41.25 76 34.3
      vertex 41.25 76 42.3
    endloop
  endfacet
  facet normal 1 0 0
    outer loop
      vertex 41.25 76 34.3
      vertex 41.25 60 42.3
      vertex 41.25 60 34.3
    endloop
  endfacet
  facet normal 0 1 -0
    outer loop
      vertex 41.25 76 34.3
      vertex 8.25 76 42.3
      vertex 41.25 76 42.3
    endloop
  endfacet
  facet normal 0 1 0
    outer loop
      vertex 8.25 76 42.3
      vertex 41.25 76 34.3
      vertex 8.25 76 34.3
    endloop
  endfacet
  facet normal -1 0 0
    outer loop
      vertex 8.25 60 34.3
      vertex 8.25 76 42.3
      vertex 8.25 76 34.3
    endloop
  endfacet
  facet normal -1 -0 0
    outer loop
      vertex 8.25 76 42.3
      vertex 8.25 60 34.3
      vertex 8.25 60 42.3
    endloop
  endfacet
endsolid OpenSCAD_Model
