solid OpenSCAD_Model
  facet normal -0 0 1
    outer loop
      vertex 0 16 5.7
      vertex 33 0 5.7
      vertex 33 16 5.7
    endloop
  endfacet
  facet normal 0 0 1
    outer loop
      vertex 33 0 5.7
      vertex 0 16 5.7
      vertex 0 0 5.7
    endloop
  endfacet
  facet normal 0 0 -1
    outer loop
      vertex 0 0 0
      vertex 33 16 0
      vertex 33 0 0
    endloop
  endfacet
  facet normal -0 0 -1
    outer loop
      vertex 33 16 0
      vertex 0 0 0
      vertex 0 16 0
    endloop
  endfacet
  facet normal 0 -1 0
    outer loop
      vertex 0 0 0
      vertex 33 0 5.7
      vertex 0 0 5.7
    endloop
  endfacet
  facet normal 0 -1 -0
    outer loop
      vertex 33 0 5.7
      vertex 0 0 0
      vertex 33 0 0
    endloop
  endfacet
  facet normal 1 -0 0
    outer loop
      vertex 33 0 5.7
      vertex 33 16 0
      vertex 33 16 5.7
    endloop
  endfacet
  facet normal 1 0 0
    outer loop
      vertex 33 16 0
      vertex 33 0 5.7
      vertex 33 0 0
    endloop
  endfacet
  facet normal 0 1 -0
    outer loop
      vertex 33 16 0
      vertex 0 16 5.7
      vertex 33 16 5.7
    endloop
  endfacet
  facet normal 0 1 0
    outer loop
      vertex 0 16 5.7
      vertex 33 16 0
      vertex 0 16 0
    endloop
  endfacet
  facet normal -1 0 0
    outer loop
      vertex 0 0 0
      vertex 0 16 5.7
      vertex 0 16 0
    endloop
  endfacet
  facet normal -1 -0 0
    outer loop
      vertex 0 16 5.7
      vertex 0 0 0
      vertex 0 0 5.7
    endloop
  endfacet
endsolid OpenSCAD_Model
