solid OpenSCAD_Model
  facet normal -0 0 1
    outer loop
      vertex 0 29 12.2
      vertex 23 0 12.2
      vertex 23 29 12.2
    endloop
  endfacet
  facet normal 0 0 1
    outer loop
      vertex 23 0 12.2
      vertex 0 29 12.2
      vertex 0 0 12.2
    endloop
  endfacet
  facet normal 0 0 -1
    outer loop
      vertex 0 0 0
      vertex 23 29 0
      vertex 23 0 0
    endloop
  endfacet
  facet normal -0 0 -1
    outer loop
      vertex 23 29 0
      vertex 0 0 0
      vertex 0 29 0
    endloop
  endfacet
  facet normal 0 -1 0
    outer loop
      vertex 0 0 0
      vertex 23 0 12.2
      vertex 0 0 12.2
    endloop
  endfacet
  facet normal 0 -1 -0
    outer loop
      vertex 23 0 12.2
      vertex 0 0 0
      vertex 23 0 0
    endloop
  endfacet
  facet normal 1 -0 0
    outer loop
      vertex 23 0 12.2
      vertex 23 29 0
      vertex 23 29 12.2
    endloop
  endfacet
  facet normal 1 0 0
    outer loop
      vertex 23 29 0
      vertex 23 0 12.2
      vertex 23 0 0
    endloop
  endfacet
  facet normal 0 1 -0
    outer loop
      vertex 23 29 0
      vertex 0 29 12.2
      vertex 23 29 12.2
    endloop
  endfacet
  facet normal 0 1 0
    outer loop
      vertex 0 29 12.2
      vertex 23 29 0
      vertex 0 29 0
    endloop
  endfacet
  facet normal -1 0 0
    outer loop
      vertex 0 0 0
      vertex 0 29 12.2
      vertex 0 29 0
    endloop
  endfacet
  facet normal -1 -0 0
    outer loop
      vertex 0 29 12.2
      vertex 0 0 0
      vertex 0 0 12.2
    endloop
  endfacet
endsolid OpenSCAD_Model
