solid OpenSCAD_Model
  facet normal -1 0 0
    outer loop
      vertex 5.72205e-07 5.72205e-07 5.75
      vertex 5.72205e-07 22.45 8
      vertex 5.72205e-07 22.45 5.75
    endloop
  endfacet
  facet normal -1 -0 0
    outer loop
      vertex 5.72205e-07 22.45 8
      vertex 5.72205e-07 5.72205e-07 5.75
      vertex 5.72205e-07 5.72205e-07 8
    endloop
  endfacet
  facet normal -1 0 0
    outer loop
      vertex 5.72205e-07 5.72205e-07 0
      vertex 5.72205e-07 22.45 2.25
      vertex 5.72205e-07 22.45 0
    endloop
  endfacet
  facet normal -1 -0 0
    outer loop
      vertex 5.72205e-07 22.45 2.25
      vertex 5.72205e-07 5.72205e-07 0
      vertex 5.72205e-07 5.72205e-07 2.25
    endloop
  endfacet
  facet normal 0 -1 0
    outer loop
      vertex 1.2 21.25 0
      vertex 4.85 21.25 8
      vertex 1.2 21.25 8
    endloop
  endfacet
  facet normal 0 -1 -0
    outer loop
      vertex 4.85 21.25 8
      vertex 1.2 21.25 0
      vertex 4.85 21.25 0
    endloop
  endfacet
  facet normal 1 0 0
    outer loop
      vertex 4.85 22.45 8
      vertex 4.85 22.05 5.75
      vertex 4.85 22.45 5.75
    endloop
  endfacet
  facet normal 1 0 0
    outer loop
      vertex 4.85 22.05 5.75
      vertex 4.85 21.25 8
      vertex 4.85 22.05 2.25
    endloop
  endfacet
  facet normal 1 -0 0
    outer loop
      vertex 4.85 21.25 8
      vertex 4.85 22.05 5.75
      vertex 4.85 22.45 8
    endloop
  endfacet
  facet normal 1 -0 0
    outer loop
      vertex 4.85 22.05 2.25
      vertex 4.85 22.45 0
      vertex 4.85 22.45 2.25
    endloop
  endfacet
  facet normal 1 0 0
    outer loop
      vertex 4.85 22.05 2.25
      vertex 4.85 21.25 0
      vertex 4.85 22.45 0
    endloop
  endfacet
  facet normal 1 0 0
    outer loop
      vertex 4.85 21.25 0
      vertex 4.85 22.05 2.25
      vertex 4.85 21.25 8
    endloop
  endfacet
  facet normal 0 1 -0
    outer loop
      vertex 4.85 22.45 5.75
      vertex 5.72205e-07 22.45 8
      vertex 4.85 22.45 8
    endloop
  endfacet
  facet normal 0 1 0
    outer loop
      vertex 5.72205e-07 22.45 8
      vertex 4.85 22.45 5.75
      vertex 5.72205e-07 22.45 5.75
    endloop
  endfacet
  facet normal 0 1 -0
    outer loop
      vertex 4.85 22.45 0
      vertex 5.72205e-07 22.45 2.25
      vertex 4.85 22.45 2.25
    endloop
  endfacet
  facet normal 0 1 0
    outer loop
      vertex 5.72205e-07 22.45 2.25
      vertex 4.85 22.45 0
      vertex 5.72205e-07 22.45 0
    endloop
  endfacet
  facet normal 0 0 1
    outer loop
      vertex 4.85 22.45 8
      vertex 1.2 21.25 8
      vertex 4.85 21.25 8
    endloop
  endfacet
  facet normal 0 0 1
    outer loop
      vertex 1.2 21.25 8
      vertex 5.72205e-07 22.45 8
      vertex 1.2 1.2 8
    endloop
  endfacet
  facet normal -0 0 1
    outer loop
      vertex 5.72205e-07 22.45 8
      vertex 1.2 21.25 8
      vertex 4.85 22.45 8
    endloop
  endfacet
  facet normal -0 0 1
    outer loop
      vertex 1.2 1.2 8
      vertex 4.85 5.72205e-07 8
      vertex 4.85 1.2 8
    endloop
  endfacet
  facet normal 0 0 1
    outer loop
      vertex 1.2 1.2 8
      vertex 5.72205e-07 5.72205e-07 8
      vertex 4.85 5.72205e-07 8
    endloop
  endfacet
  facet normal 0 0 1
    outer loop
      vertex 5.72205e-07 5.72205e-07 8
      vertex 1.2 1.2 8
      vertex 5.72205e-07 22.45 8
    endloop
  endfacet
  facet normal 0 0 -1
    outer loop
      vertex 4.85 5.72205e-07 0
      vertex 1.2 1.2 0
      vertex 4.85 1.2 0
    endloop
  endfacet
  facet normal -0 0 -1
    outer loop
      vertex 1.2 1.2 0
      vertex 5.72205e-07 5.72205e-07 0
      vertex 1.2 21.25 0
    endloop
  endfacet
  facet normal 0 0 -1
    outer loop
      vertex 5.72205e-07 5.72205e-07 0
      vertex 1.2 1.2 0
      vertex 4.85 5.72205e-07 0
    endloop
  endfacet
  facet normal 0 0 -1
    outer loop
      vertex 1.2 21.25 0
      vertex 4.85 22.45 0
      vertex 4.85 21.25 0
    endloop
  endfacet
  facet normal 0 0 -1
    outer loop
      vertex 1.2 21.25 0
      vertex 5.72205e-07 22.45 0
      vertex 4.85 22.45 0
    endloop
  endfacet
  facet normal 0 0 -1
    outer loop
      vertex 5.72205e-07 22.45 0
      vertex 1.2 21.25 0
      vertex 5.72205e-07 5.72205e-07 0
    endloop
  endfacet
  facet normal 0 -1 0
    outer loop
      vertex 5.72205e-07 5.72205e-07 5.75
      vertex 4.85 5.72205e-07 8
      vertex 5.72205e-07 5.72205e-07 8
    endloop
  endfacet
  facet normal 0 -1 -0
    outer loop
      vertex 4.85 5.72205e-07 8
      vertex 5.72205e-07 5.72205e-07 5.75
      vertex 4.85 5.72205e-07 5.75
    endloop
  endfacet
  facet normal 0 -1 0
    outer loop
      vertex 5.72205e-07 5.72205e-07 0
      vertex 4.85 5.72205e-07 2.25
      vertex 5.72205e-07 5.72205e-07 2.25
    endloop
  endfacet
  facet normal 0 -1 -0
    outer loop
      vertex 4.85 5.72205e-07 2.25
      vertex 5.72205e-07 5.72205e-07 0
      vertex 4.85 5.72205e-07 0
    endloop
  endfacet
  facet normal 1 0 0
    outer loop
      vertex 4.85 1.2 8
      vertex 4.85 0.4 5.75
      vertex 4.85 1.2 0
    endloop
  endfacet
  facet normal 1 -0 0
    outer loop
      vertex 4.85 5.72205e-07 8
      vertex 4.85 0.4 5.75
      vertex 4.85 1.2 8
    endloop
  endfacet
  facet normal 1 0 0
    outer loop
      vertex 4.85 0.4 5.75
      vertex 4.85 5.72205e-07 8
      vertex 4.85 5.72205e-07 5.75
    endloop
  endfacet
  facet normal 1 -0 0
    outer loop
      vertex 4.85 0.4 2.25
      vertex 4.85 1.2 0
      vertex 4.85 0.4 5.75
    endloop
  endfacet
  facet normal 1 0 0
    outer loop
      vertex 4.85 5.72205e-07 0
      vertex 4.85 0.4 2.25
      vertex 4.85 5.72205e-07 2.25
    endloop
  endfacet
  facet normal 1 0 0
    outer loop
      vertex 4.85 0.4 2.25
      vertex 4.85 5.72205e-07 0
      vertex 4.85 1.2 0
    endloop
  endfacet
  facet normal 0 1 -0
    outer loop
      vertex 4.85 1.2 0
      vertex 1.2 1.2 8
      vertex 4.85 1.2 8
    endloop
  endfacet
  facet normal 0 1 0
    outer loop
      vertex 1.2 1.2 8
      vertex 4.85 1.2 0
      vertex 1.2 1.2 0
    endloop
  endfacet
  facet normal 1 -0 0
    outer loop
      vertex 1.2 1.2 8
      vertex 1.2 21.25 0
      vertex 1.2 21.25 8
    endloop
  endfacet
  facet normal 1 0 0
    outer loop
      vertex 1.2 21.25 0
      vertex 1.2 1.2 8
      vertex 1.2 1.2 0
    endloop
  endfacet
  facet normal -1 0 0
    outer loop
      vertex 0.4 0.4 2.25
      vertex 0.4 22.05 5.75
      vertex 0.4 22.05 2.25
    endloop
  endfacet
  facet normal -1 -0 0
    outer loop
      vertex 0.4 22.05 5.75
      vertex 0.4 0.4 2.25
      vertex 0.4 0.4 5.75
    endloop
  endfacet
  facet normal 0 0 -1
    outer loop
      vertex 4.85 5.72205e-07 5.75
      vertex 0.4 0.4 5.75
      vertex 4.85 0.4 5.75
    endloop
  endfacet
  facet normal -0 0 -1
    outer loop
      vertex 0.4 0.4 5.75
      vertex 5.72205e-07 5.72205e-07 5.75
      vertex 0.4 22.05 5.75
    endloop
  endfacet
  facet normal 0 0 -1
    outer loop
      vertex 5.72205e-07 5.72205e-07 5.75
      vertex 0.4 0.4 5.75
      vertex 4.85 5.72205e-07 5.75
    endloop
  endfacet
  facet normal 0 0 -1
    outer loop
      vertex 0.4 22.05 5.75
      vertex 4.85 22.45 5.75
      vertex 4.85 22.05 5.75
    endloop
  endfacet
  facet normal 0 0 -1
    outer loop
      vertex 0.4 22.05 5.75
      vertex 5.72205e-07 22.45 5.75
      vertex 4.85 22.45 5.75
    endloop
  endfacet
  facet normal 0 0 -1
    outer loop
      vertex 5.72205e-07 22.45 5.75
      vertex 0.4 22.05 5.75
      vertex 5.72205e-07 5.72205e-07 5.75
    endloop
  endfacet
  facet normal 0 0 1
    outer loop
      vertex 4.85 22.45 2.25
      vertex 0.4 22.05 2.25
      vertex 4.85 22.05 2.25
    endloop
  endfacet
  facet normal 0 0 1
    outer loop
      vertex 0.4 22.05 2.25
      vertex 5.72205e-07 22.45 2.25
      vertex 0.4 0.4 2.25
    endloop
  endfacet
  facet normal -0 0 1
    outer loop
      vertex 5.72205e-07 22.45 2.25
      vertex 0.4 22.05 2.25
      vertex 4.85 22.45 2.25
    endloop
  endfacet
  facet normal -0 0 1
    outer loop
      vertex 0.4 0.4 2.25
      vertex 4.85 5.72205e-07 2.25
      vertex 4.85 0.4 2.25
    endloop
  endfacet
  facet normal 0 0 1
    outer loop
      vertex 0.4 0.4 2.25
      vertex 5.72205e-07 5.72205e-07 2.25
      vertex 4.85 5.72205e-07 2.25
    endloop
  endfacet
  facet normal 0 0 1
    outer loop
      vertex 5.72205e-07 5.72205e-07 2.25
      vertex 0.4 0.4 2.25
      vertex 5.72205e-07 22.45 2.25
    endloop
  endfacet
  facet normal 0 -1 0
    outer loop
      vertex 0.4 0.4 2.25
      vertex 4.85 0.4 5.75
      vertex 0.4 0.4 5.75
    endloop
  endfacet
  facet normal 0 -1 -0
    outer loop
      vertex 4.85 0.4 5.75
      vertex 0.4 0.4 2.25
      vertex 4.85 0.4 2.25
    endloop
  endfacet
  facet normal 0 1 -0
    outer loop
      vertex 4.85 22.05 2.25
      vertex 0.4 22.05 5.75
      vertex 4.85 22.05 5.75
    endloop
  endfacet
  facet normal 0 1 0
    outer loop
      vertex 0.4 22.05 5.75
      vertex 4.85 22.05 2.25
      vertex 0.4 22.05 2.25
    endloop
  endfacet
endsolid OpenSCAD_Model
