solid OpenSCAD_Model
  facet normal -1 0 0
    outer loop
      vertex 1 5 0
      vertex 1 11 3.75
      vertex 1 11 0
    endloop
  endfacet
  facet normal -1 -0 0
    outer loop
      vertex 1 11 3.75
      vertex 1 5 0
      vertex 1 5 3.75
    endloop
  endfacet
  facet normal -0 0 1
    outer loop
      vertex 3.5 23 5.75
      vertex 6 15 5.75
      vertex 6 23 5.75
    endloop
  endfacet
  facet normal 0 0 1
    outer loop
      vertex 6 15 5.75
      vertex 3.5 23 5.75
      vertex 3.5 15 5.75
    endloop
  endfacet
  facet normal 0 0 1
    outer loop
      vertex 8 36 5.75
      vertex 3.5 33 5.75
      vertex 6 33 5.75
    endloop
  endfacet
  facet normal 0 0 1
    outer loop
      vertex 0 36 5.75
      vertex 3.5 23 5.75
      vertex 3.5 33 5.75
    endloop
  endfacet
  facet normal 0 0 1
    outer loop
      vertex 3.5 23 5.75
      vertex 0 36 5.75
      vertex 3.5 15 5.75
    endloop
  endfacet
  facet normal 0 0 1
    outer loop
      vertex 0 0 5.75
      vertex 3.5 15 5.75
      vertex 0 36 5.75
    endloop
  endfacet
  facet normal -0 0 1
    outer loop
      vertex 0 36 5.75
      vertex 3.5 33 5.75
      vertex 8 36 5.75
    endloop
  endfacet
  facet normal -0 0 1
    outer loop
      vertex 37 23 5.75
      vertex 39.5 15 5.75
      vertex 39.5 23 5.75
    endloop
  endfacet
  facet normal 0 0 1
    outer loop
      vertex 39.5 15 5.75
      vertex 37 23 5.75
      vertex 37 15 5.75
    endloop
  endfacet
  facet normal 0 0 1
    outer loop
      vertex 39.5 23 5.75
      vertex 43 36 5.75
      vertex 39.5 33 5.75
    endloop
  endfacet
  facet normal -0 0 1
    outer loop
      vertex 35 36 5.75
      vertex 39.5 33 5.75
      vertex 43 36 5.75
    endloop
  endfacet
  facet normal 0 0 1
    outer loop
      vertex 35 36 5.75
      vertex 37 23 5.75
      vertex 37 33 5.75
    endloop
  endfacet
  facet normal 0 0 1
    outer loop
      vertex 37 23 5.75
      vertex 6 23 5.75
      vertex 37 15 5.75
    endloop
  endfacet
  facet normal 0 0 1
    outer loop
      vertex 37 23 5.75
      vertex 35 36 5.75
      vertex 6 23 5.75
    endloop
  endfacet
  facet normal 0 0 1
    outer loop
      vertex 39.5 33 5.75
      vertex 35 36 5.75
      vertex 37 33 5.75
    endloop
  endfacet
  facet normal 0 0 1
    outer loop
      vertex 39.5 15 5.75
      vertex 43 36 5.75
      vertex 39.5 23 5.75
    endloop
  endfacet
  facet normal 0 0 1
    outer loop
      vertex 43 36 5.75
      vertex 39.5 15 5.75
      vertex 43 0 5.75
    endloop
  endfacet
  facet normal -0 0 1
    outer loop
      vertex 39.5 5 5.75
      vertex 43 0 5.75
      vertex 39.5 15 5.75
    endloop
  endfacet
  facet normal -0 0 1
    outer loop
      vertex 37 5 5.75
      vertex 43 0 5.75
      vertex 39.5 5 5.75
    endloop
  endfacet
  facet normal 0 0 1
    outer loop
      vertex 6 23 5.75
      vertex 35 36 5.75
      vertex 8 36 5.75
    endloop
  endfacet
  facet normal 0 0 1
    outer loop
      vertex 6 23 5.75
      vertex 8 36 5.75
      vertex 6 33 5.75
    endloop
  endfacet
  facet normal 0 0 1
    outer loop
      vertex 6 15 5.75
      vertex 37 15 5.75
      vertex 6 23 5.75
    endloop
  endfacet
  facet normal 0 0 1
    outer loop
      vertex 37 15 5.75
      vertex 6 15 5.75
      vertex 37 5 5.75
    endloop
  endfacet
  facet normal 0 0 1
    outer loop
      vertex 6 5 5.75
      vertex 37 5 5.75
      vertex 6 15 5.75
    endloop
  endfacet
  facet normal 0 0 1
    outer loop
      vertex 37 5 5.75
      vertex 6 5 5.75
      vertex 43 0 5.75
    endloop
  endfacet
  facet normal 0 0 1
    outer loop
      vertex 0 0 5.75
      vertex 6 5 5.75
      vertex 3.5 5 5.75
    endloop
  endfacet
  facet normal 0 0 1
    outer loop
      vertex 6 5 5.75
      vertex 0 0 5.75
      vertex 43 0 5.75
    endloop
  endfacet
  facet normal 0 0 1
    outer loop
      vertex 3.5 15 5.75
      vertex 0 0 5.75
      vertex 3.5 5 5.75
    endloop
  endfacet
  facet normal 1 -0 0
    outer loop
      vertex 7 5 3.75
      vertex 7 11 0
      vertex 7 11 3.75
    endloop
  endfacet
  facet normal 1 0 0
    outer loop
      vertex 7 11 0
      vertex 7 5 3.75
      vertex 7 5 0
    endloop
  endfacet
  facet normal 0 0 -1
    outer loop
      vertex 1 5 0
      vertex 7 11 0
      vertex 7 5 0
    endloop
  endfacet
  facet normal -0 0 -1
    outer loop
      vertex 7 11 0
      vertex 1 5 0
      vertex 1 11 0
    endloop
  endfacet
  facet normal 0 -1 0
    outer loop
      vertex 1 5 3.75
      vertex 3.5 5 3.25
      vertex 3.5 5 3.75
    endloop
  endfacet
  facet normal 0 -1 0
    outer loop
      vertex 7 5 0
      vertex 3.5 5 3.25
      vertex 1 5 0
    endloop
  endfacet
  facet normal 0 -1 0
    outer loop
      vertex 1 5 0
      vertex 3.5 5 3.25
      vertex 1 5 3.75
    endloop
  endfacet
  facet normal 0 -1 0
    outer loop
      vertex 6 5 3.25
      vertex 7 5 3.75
      vertex 6 5 3.75
    endloop
  endfacet
  facet normal 0 -1 0
    outer loop
      vertex 3.5 5 3.25
      vertex 7 5 0
      vertex 6 5 3.25
    endloop
  endfacet
  facet normal 0 -1 0
    outer loop
      vertex 6 5 3.25
      vertex 7 5 0
      vertex 7 5 3.75
    endloop
  endfacet
  facet normal 0 1 -0
    outer loop
      vertex 6 5 3.75
      vertex 3.5 5 5.75
      vertex 6 5 5.75
    endloop
  endfacet
  facet normal 0 1 0
    outer loop
      vertex 3.5 5 5.75
      vertex 6 5 3.75
      vertex 3.5 5 3.75
    endloop
  endfacet
  facet normal 0 1 0
    outer loop
      vertex 7 11 3.75
      vertex 6 11 3.25
      vertex 6 11 3.75
    endloop
  endfacet
  facet normal 0 1 0
    outer loop
      vertex 6 11 3.25
      vertex 7 11 0
      vertex 3.5 11 3.25
    endloop
  endfacet
  facet normal 0 1 -0
    outer loop
      vertex 7 11 0
      vertex 6 11 3.25
      vertex 7 11 3.75
    endloop
  endfacet
  facet normal 0 1 -0
    outer loop
      vertex 3.5 11 3.25
      vertex 1 11 3.75
      vertex 3.5 11 3.75
    endloop
  endfacet
  facet normal 0 1 0
    outer loop
      vertex 1 11 0
      vertex 3.5 11 3.25
      vertex 7 11 0
    endloop
  endfacet
  facet normal 0 1 0
    outer loop
      vertex 3.5 11 3.25
      vertex 1 11 0
      vertex 1 11 3.75
    endloop
  endfacet
  facet normal -1 0 0
    outer loop
      vertex 1 30 0
      vertex 1 36 3.75
      vertex 1 36 0
    endloop
  endfacet
  facet normal -1 -0 0
    outer loop
      vertex 1 36 3.75
      vertex 1 30 0
      vertex 1 30 3.75
    endloop
  endfacet
  facet normal 1 -0 0
    outer loop
      vertex 7 30 3.75
      vertex 7 36 0
      vertex 7 36 3.75
    endloop
  endfacet
  facet normal 1 0 0
    outer loop
      vertex 7 36 0
      vertex 7 30 3.75
      vertex 7 30 0
    endloop
  endfacet
  facet normal 0 1 -0
    outer loop
      vertex 42 36 0
      vertex 36 36 3.75
      vertex 42 36 3.75
    endloop
  endfacet
  facet normal 0 1 0
    outer loop
      vertex 36 36 3.75
      vertex 42 36 0
      vertex 36 36 0
    endloop
  endfacet
  facet normal 0 1 0
    outer loop
      vertex 42 36 3.75
      vertex 43 36 5.75
      vertex 43 36 3.75
    endloop
  endfacet
  facet normal 0 1 0
    outer loop
      vertex 43 36 5.75
      vertex 42 36 3.75
      vertex 35 36 5.75
    endloop
  endfacet
  facet normal 0 1 -0
    outer loop
      vertex 36 36 3.75
      vertex 35 36 5.75
      vertex 42 36 3.75
    endloop
  endfacet
  facet normal 0 1 0
    outer loop
      vertex 35 36 5.75
      vertex 36 36 3.75
      vertex 35 36 3.75
    endloop
  endfacet
  facet normal 0 1 -0
    outer loop
      vertex 7 36 0
      vertex 1 36 3.75
      vertex 7 36 3.75
    endloop
  endfacet
  facet normal 0 1 0
    outer loop
      vertex 1 36 3.75
      vertex 7 36 0
      vertex 1 36 0
    endloop
  endfacet
  facet normal 0 1 0
    outer loop
      vertex 7 36 3.75
      vertex 8 36 5.75
      vertex 8 36 3.75
    endloop
  endfacet
  facet normal 0 1 0
    outer loop
      vertex 8 36 5.75
      vertex 7 36 3.75
      vertex 0 36 5.75
    endloop
  endfacet
  facet normal 0 1 -0
    outer loop
      vertex 1 36 3.75
      vertex 0 36 5.75
      vertex 7 36 3.75
    endloop
  endfacet
  facet normal 0 1 0
    outer loop
      vertex 0 36 5.75
      vertex 1 36 3.75
      vertex 0 36 3.75
    endloop
  endfacet
  facet normal 0 -1 0
    outer loop
      vertex 8 36 23.75
      vertex 13 36 20.75
      vertex 35 36 23.75
    endloop
  endfacet
  facet normal 0 -1 0
    outer loop
      vertex 8 36 5.75
      vertex 13 36 20.75
      vertex 8 36 23.75
    endloop
  endfacet
  facet normal 0 -1 -0
    outer loop
      vertex 13 36 7.75
      vertex 8 36 5.75
      vertex 30 36 7.75
    endloop
  endfacet
  facet normal 0 -1 -0
    outer loop
      vertex 13 36 20.75
      vertex 8 36 5.75
      vertex 13 36 7.75
    endloop
  endfacet
  facet normal 0 -1 0
    outer loop
      vertex 30 36 20.75
      vertex 35 36 23.75
      vertex 13 36 20.75
    endloop
  endfacet
  facet normal 0 -1 0
    outer loop
      vertex 35 36 5.75
      vertex 30 36 20.75
      vertex 30 36 7.75
    endloop
  endfacet
  facet normal 0 -1 0
    outer loop
      vertex 30 36 20.75
      vertex 35 36 5.75
      vertex 35 36 23.75
    endloop
  endfacet
  facet normal 0 -1 0
    outer loop
      vertex 35 36 5.75
      vertex 30 36 7.75
      vertex 8 36 5.75
    endloop
  endfacet
  facet normal 0 -1 0
    outer loop
      vertex 8 36 0.75
      vertex 35 36 3.75
      vertex 8 36 3.75
    endloop
  endfacet
  facet normal 0 -1 -0
    outer loop
      vertex 35 36 3.75
      vertex 8 36 0.75
      vertex 35 36 0.75
    endloop
  endfacet
  facet normal 0 0 -1
    outer loop
      vertex 1 30 0
      vertex 7 36 0
      vertex 7 30 0
    endloop
  endfacet
  facet normal -0 0 -1
    outer loop
      vertex 7 36 0
      vertex 1 30 0
      vertex 1 36 0
    endloop
  endfacet
  facet normal 0 -1 0
    outer loop
      vertex 1 30 3.75
      vertex 3.5 30 3.25
      vertex 3.5 30 3.75
    endloop
  endfacet
  facet normal 0 -1 0
    outer loop
      vertex 7 30 0
      vertex 3.5 30 3.25
      vertex 1 30 0
    endloop
  endfacet
  facet normal 0 -1 0
    outer loop
      vertex 1 30 0
      vertex 3.5 30 3.25
      vertex 1 30 3.75
    endloop
  endfacet
  facet normal 0 -1 0
    outer loop
      vertex 6 30 3.25
      vertex 7 30 3.75
      vertex 6 30 3.75
    endloop
  endfacet
  facet normal 0 -1 0
    outer loop
      vertex 3.5 30 3.25
      vertex 7 30 0
      vertex 6 30 3.25
    endloop
  endfacet
  facet normal 0 -1 0
    outer loop
      vertex 6 30 3.25
      vertex 7 30 0
      vertex 7 30 3.75
    endloop
  endfacet
  facet normal -1 0 0
    outer loop
      vertex 36 5 0
      vertex 36 11 3.75
      vertex 36 11 0
    endloop
  endfacet
  facet normal -1 -0 0
    outer loop
      vertex 36 11 3.75
      vertex 36 5 0
      vertex 36 5 3.75
    endloop
  endfacet
  facet normal 1 -0 0
    outer loop
      vertex 42 5 3.75
      vertex 42 11 0
      vertex 42 11 3.75
    endloop
  endfacet
  facet normal 1 0 0
    outer loop
      vertex 42 11 0
      vertex 42 5 3.75
      vertex 42 5 0
    endloop
  endfacet
  facet normal 0 1 0
    outer loop
      vertex 42 11 3.75
      vertex 39.5 11 3.25
      vertex 39.5 11 3.75
    endloop
  endfacet
  facet normal 0 1 0
    outer loop
      vertex 36 11 0
      vertex 39.5 11 3.25
      vertex 42 11 0
    endloop
  endfacet
  facet normal 0 1 -0
    outer loop
      vertex 42 11 0
      vertex 39.5 11 3.25
      vertex 42 11 3.75
    endloop
  endfacet
  facet normal 0 1 -0
    outer loop
      vertex 37 11 3.25
      vertex 36 11 3.75
      vertex 37 11 3.75
    endloop
  endfacet
  facet normal 0 1 0
    outer loop
      vertex 39.5 11 3.25
      vertex 36 11 0
      vertex 37 11 3.25
    endloop
  endfacet
  facet normal 0 1 0
    outer loop
      vertex 37 11 3.25
      vertex 36 11 0
      vertex 36 11 3.75
    endloop
  endfacet
  facet normal 0 0 -1
    outer loop
      vertex 36 5 0
      vertex 42 11 0
      vertex 42 5 0
    endloop
  endfacet
  facet normal -0 0 -1
    outer loop
      vertex 42 11 0
      vertex 36 5 0
      vertex 36 11 0
    endloop
  endfacet
  facet normal 0 -1 0
    outer loop
      vertex 36 5 3.75
      vertex 37 5 3.25
      vertex 37 5 3.75
    endloop
  endfacet
  facet normal 0 -1 -0
    outer loop
      vertex 37 5 3.25
      vertex 36 5 0
      vertex 39.5 5 3.25
    endloop
  endfacet
  facet normal 0 -1 0
    outer loop
      vertex 36 5 0
      vertex 37 5 3.25
      vertex 36 5 3.75
    endloop
  endfacet
  facet normal 0 -1 0
    outer loop
      vertex 39.5 5 3.25
      vertex 42 5 3.75
      vertex 39.5 5 3.75
    endloop
  endfacet
  facet normal 0 -1 0
    outer loop
      vertex 42 5 0
      vertex 39.5 5 3.25
      vertex 36 5 0
    endloop
  endfacet
  facet normal 0 -1 0
    outer loop
      vertex 39.5 5 3.25
      vertex 42 5 0
      vertex 42 5 3.75
    endloop
  endfacet
  facet normal 0 1 -0
    outer loop
      vertex 39.5 5 3.75
      vertex 37 5 5.75
      vertex 39.5 5 5.75
    endloop
  endfacet
  facet normal 0 1 0
    outer loop
      vertex 37 5 5.75
      vertex 39.5 5 3.75
      vertex 37 5 3.75
    endloop
  endfacet
  facet normal -1 0 0
    outer loop
      vertex 36 30 0
      vertex 36 36 3.75
      vertex 36 36 0
    endloop
  endfacet
  facet normal -1 -0 0
    outer loop
      vertex 36 36 3.75
      vertex 36 30 0
      vertex 36 30 3.75
    endloop
  endfacet
  facet normal 1 -0 0
    outer loop
      vertex 42 30 3.75
      vertex 42 36 0
      vertex 42 36 3.75
    endloop
  endfacet
  facet normal 1 0 0
    outer loop
      vertex 42 36 0
      vertex 42 30 3.75
      vertex 42 30 0
    endloop
  endfacet
  facet normal 0 0 -1
    outer loop
      vertex 36 30 0
      vertex 42 36 0
      vertex 42 30 0
    endloop
  endfacet
  facet normal -0 0 -1
    outer loop
      vertex 42 36 0
      vertex 36 30 0
      vertex 36 36 0
    endloop
  endfacet
  facet normal 0 -1 0
    outer loop
      vertex 36 30 3.75
      vertex 37 30 3.25
      vertex 37 30 3.75
    endloop
  endfacet
  facet normal 0 -1 -0
    outer loop
      vertex 37 30 3.25
      vertex 36 30 0
      vertex 39.5 30 3.25
    endloop
  endfacet
  facet normal 0 -1 0
    outer loop
      vertex 36 30 0
      vertex 37 30 3.25
      vertex 36 30 3.75
    endloop
  endfacet
  facet normal 0 -1 0
    outer loop
      vertex 39.5 30 3.25
      vertex 42 30 3.75
      vertex 39.5 30 3.75
    endloop
  endfacet
  facet normal 0 -1 0
    outer loop
      vertex 42 30 0
      vertex 39.5 30 3.25
      vertex 36 30 0
    endloop
  endfacet
  facet normal 0 -1 0
    outer loop
      vertex 39.5 30 3.25
      vertex 42 30 0
      vertex 42 30 3.75
    endloop
  endfacet
  facet normal -1 0 0
    outer loop
      vertex 0 0 3.75
      vertex 0 36 5.75
      vertex 0 36 3.75
    endloop
  endfacet
  facet normal -1 -0 0
    outer loop
      vertex 0 36 5.75
      vertex 0 0 3.75
      vertex 0 0 5.75
    endloop
  endfacet
  facet normal 1 -0 0
    outer loop
      vertex 43 0 5.75
      vertex 43 36 3.75
      vertex 43 36 5.75
    endloop
  endfacet
  facet normal 1 0 0
    outer loop
      vertex 43 36 3.75
      vertex 43 0 5.75
      vertex 43 0 3.75
    endloop
  endfacet
  facet normal 0 0 -1
    outer loop
      vertex 1 11 3.75
      vertex 3.5 15 3.75
      vertex 3.5 11 3.75
    endloop
  endfacet
  facet normal -0 0 -1
    outer loop
      vertex 3.5 15 3.75
      vertex 1 11 3.75
      vertex 3.5 23 3.75
    endloop
  endfacet
  facet normal 0 0 -1
    outer loop
      vertex 1 30 3.75
      vertex 3.5 23 3.75
      vertex 1 11 3.75
    endloop
  endfacet
  facet normal 0 0 -1
    outer loop
      vertex 3.5 23 3.75
      vertex 1 30 3.75
      vertex 3.5 30 3.75
    endloop
  endfacet
  facet normal 0 0 -1
    outer loop
      vertex 3.5 15 3.75
      vertex 6 23 3.75
      vertex 6 15 3.75
    endloop
  endfacet
  facet normal -0 0 -1
    outer loop
      vertex 6 23 3.75
      vertex 3.5 15 3.75
      vertex 3.5 23 3.75
    endloop
  endfacet
  facet normal 0 0 -1
    outer loop
      vertex 6 15 3.75
      vertex 7 11 3.75
      vertex 6 11 3.75
    endloop
  endfacet
  facet normal 0 0 -1
    outer loop
      vertex 6 23 3.75
      vertex 7 11 3.75
      vertex 6 15 3.75
    endloop
  endfacet
  facet normal 0 0 -1
    outer loop
      vertex 7 11 3.75
      vertex 6 23 3.75
      vertex 7 30 3.75
    endloop
  endfacet
  facet normal -0 0 -1
    outer loop
      vertex 7 30 3.75
      vertex 6 23 3.75
      vertex 6 30 3.75
    endloop
  endfacet
  facet normal 0 0 -1
    outer loop
      vertex 36 11 3.75
      vertex 37 15 3.75
      vertex 37 11 3.75
    endloop
  endfacet
  facet normal 0 0 -1
    outer loop
      vertex 7 11 3.75
      vertex 37 15 3.75
      vertex 36 11 3.75
    endloop
  endfacet
  facet normal -0 0 -1
    outer loop
      vertex 37 15 3.75
      vertex 7 11 3.75
      vertex 37 23 3.75
    endloop
  endfacet
  facet normal 0 0 -1
    outer loop
      vertex 37 23 3.75
      vertex 36 30 3.75
      vertex 37 30 3.75
    endloop
  endfacet
  facet normal 0 0 -1
    outer loop
      vertex 37 15 3.75
      vertex 39.5 23 3.75
      vertex 39.5 15 3.75
    endloop
  endfacet
  facet normal -0 0 -1
    outer loop
      vertex 39.5 23 3.75
      vertex 37 15 3.75
      vertex 37 23 3.75
    endloop
  endfacet
  facet normal 0 0 -1
    outer loop
      vertex 39.5 15 3.75
      vertex 42 11 3.75
      vertex 39.5 11 3.75
    endloop
  endfacet
  facet normal 0 0 -1
    outer loop
      vertex 39.5 23 3.75
      vertex 42 11 3.75
      vertex 39.5 15 3.75
    endloop
  endfacet
  facet normal 0 0 -1
    outer loop
      vertex 42 11 3.75
      vertex 39.5 23 3.75
      vertex 42 30 3.75
    endloop
  endfacet
  facet normal -0 0 -1
    outer loop
      vertex 42 30 3.75
      vertex 39.5 23 3.75
      vertex 39.5 30 3.75
    endloop
  endfacet
  facet normal 0 0 -1
    outer loop
      vertex 42 11 3.75
      vertex 43 0 3.75
      vertex 42 5 3.75
    endloop
  endfacet
  facet normal 0 0 -1
    outer loop
      vertex 43 0 3.75
      vertex 39.5 5 3.75
      vertex 42 5 3.75
    endloop
  endfacet
  facet normal 0 0 -1
    outer loop
      vertex 43 0 3.75
      vertex 37 5 3.75
      vertex 39.5 5 3.75
    endloop
  endfacet
  facet normal 0 0 -1
    outer loop
      vertex 43 0 3.75
      vertex 36 5 3.75
      vertex 37 5 3.75
    endloop
  endfacet
  facet normal 0 0 -1
    outer loop
      vertex 7 11 3.75
      vertex 36 11 3.75
      vertex 36 5 3.75
    endloop
  endfacet
  facet normal 0 0 -1
    outer loop
      vertex 7 30 3.75
      vertex 37 23 3.75
      vertex 7 11 3.75
    endloop
  endfacet
  facet normal 0 0 -1
    outer loop
      vertex 36 30 3.75
      vertex 35 36 3.75
      vertex 36 36 3.75
    endloop
  endfacet
  facet normal 0 0 -1
    outer loop
      vertex 37 23 3.75
      vertex 7 30 3.75
      vertex 36 30 3.75
    endloop
  endfacet
  facet normal 0 0 -1
    outer loop
      vertex 7 11 3.75
      vertex 36 5 3.75
      vertex 7 5 3.75
    endloop
  endfacet
  facet normal 0 0 -1
    outer loop
      vertex 43 0 3.75
      vertex 7 5 3.75
      vertex 36 5 3.75
    endloop
  endfacet
  facet normal 0 0 -1
    outer loop
      vertex 0 0 3.75
      vertex 7 5 3.75
      vertex 43 0 3.75
    endloop
  endfacet
  facet normal -0 0 -1
    outer loop
      vertex 7 5 3.75
      vertex 0 0 3.75
      vertex 6 5 3.75
    endloop
  endfacet
  facet normal -0 0 -1
    outer loop
      vertex 6 5 3.75
      vertex 0 0 3.75
      vertex 3.5 5 3.75
    endloop
  endfacet
  facet normal 0 0 -1
    outer loop
      vertex 0 0 3.75
      vertex 1 11 3.75
      vertex 1 5 3.75
    endloop
  endfacet
  facet normal 0 0 -1
    outer loop
      vertex 0 36 3.75
      vertex 1 11 3.75
      vertex 0 0 3.75
    endloop
  endfacet
  facet normal -0 0 -1
    outer loop
      vertex 3.5 5 3.75
      vertex 0 0 3.75
      vertex 1 5 3.75
    endloop
  endfacet
  facet normal 0 0 -1
    outer loop
      vertex 1 11 3.75
      vertex 0 36 3.75
      vertex 1 30 3.75
    endloop
  endfacet
  facet normal 0 0 -1
    outer loop
      vertex 1 30 3.75
      vertex 0 36 3.75
      vertex 1 36 3.75
    endloop
  endfacet
  facet normal 0 0 -1
    outer loop
      vertex 43 0 3.75
      vertex 42 11 3.75
      vertex 43 36 3.75
    endloop
  endfacet
  facet normal 0 0 -1
    outer loop
      vertex 42 30 3.75
      vertex 43 36 3.75
      vertex 42 11 3.75
    endloop
  endfacet
  facet normal -0 0 -1
    outer loop
      vertex 43 36 3.75
      vertex 42 30 3.75
      vertex 42 36 3.75
    endloop
  endfacet
  facet normal 0 0 -1
    outer loop
      vertex 36 30 3.75
      vertex 7 30 3.75
      vertex 35 36 3.75
    endloop
  endfacet
  facet normal -0 0 -1
    outer loop
      vertex 35 36 3.75
      vertex 7 30 3.75
      vertex 8 36 3.75
    endloop
  endfacet
  facet normal -0 0 -1
    outer loop
      vertex 8 36 3.75
      vertex 7 30 3.75
      vertex 7 36 3.75
    endloop
  endfacet
  facet normal 0 -1 0
    outer loop
      vertex 0 0 3.75
      vertex 43 0 5.75
      vertex 0 0 5.75
    endloop
  endfacet
  facet normal 0 -1 -0
    outer loop
      vertex 43 0 5.75
      vertex 0 0 3.75
      vertex 43 0 3.75
    endloop
  endfacet
  facet normal -1 0 0
    outer loop
      vertex 8 36 3.75
      vertex 8 38 0.75
      vertex 8 36 0.75
    endloop
  endfacet
  facet normal -1 0 0
    outer loop
      vertex 8 36 5.75
      vertex 8 38 0.75
      vertex 8 36 3.75
    endloop
  endfacet
  facet normal -1 0 0
    outer loop
      vertex 8 38 0.75
      vertex 8 36 5.75
      vertex 8 38 23.75
    endloop
  endfacet
  facet normal -1 -0 0
    outer loop
      vertex 8 38 23.75
      vertex 8 36 5.75
      vertex 8 36 23.75
    endloop
  endfacet
  facet normal -0 0 1
    outer loop
      vertex 8 38 23.75
      vertex 35 36 23.75
      vertex 35 38 23.75
    endloop
  endfacet
  facet normal 0 0 1
    outer loop
      vertex 35 36 23.75
      vertex 8 38 23.75
      vertex 8 36 23.75
    endloop
  endfacet
  facet normal 1 0 0
    outer loop
      vertex 35 36 5.75
      vertex 35 38 23.75
      vertex 35 36 23.75
    endloop
  endfacet
  facet normal 1 0 0
    outer loop
      vertex 35 38 23.75
      vertex 35 36 5.75
      vertex 35 38 0.75
    endloop
  endfacet
  facet normal 1 -0 0
    outer loop
      vertex 35 36 3.75
      vertex 35 38 0.75
      vertex 35 36 5.75
    endloop
  endfacet
  facet normal 1 0 0
    outer loop
      vertex 35 38 0.75
      vertex 35 36 3.75
      vertex 35 36 0.75
    endloop
  endfacet
  facet normal 0 1 0
    outer loop
      vertex 35 38 23.75
      vertex 30 38 20.75
      vertex 8 38 23.75
    endloop
  endfacet
  facet normal 0 1 0
    outer loop
      vertex 35 38 23.75
      vertex 30 38 7.75
      vertex 30 38 20.75
    endloop
  endfacet
  facet normal 0 1 0
    outer loop
      vertex 30 38 7.75
      vertex 33 38 1.75
      vertex 13 38 7.75
    endloop
  endfacet
  facet normal 0 1 -0
    outer loop
      vertex 35 38 0.75
      vertex 30 38 7.75
      vertex 35 38 23.75
    endloop
  endfacet
  facet normal 0 1 0
    outer loop
      vertex 30 38 7.75
      vertex 35 38 0.75
      vertex 33 38 1.75
    endloop
  endfacet
  facet normal 0 1 0
    outer loop
      vertex 33 38 1.75
      vertex 35 38 0.75
      vertex 33 38 0.75
    endloop
  endfacet
  facet normal 0 1 -0
    outer loop
      vertex 13 38 20.75
      vertex 8 38 23.75
      vertex 30 38 20.75
    endloop
  endfacet
  facet normal 0 1 -0
    outer loop
      vertex 13 38 7.75
      vertex 8 38 23.75
      vertex 13 38 20.75
    endloop
  endfacet
  facet normal 0 1 0
    outer loop
      vertex 10 38 1.75
      vertex 13 38 7.75
      vertex 33 38 1.75
    endloop
  endfacet
  facet normal 0 1 0
    outer loop
      vertex 8 38 0.75
      vertex 13 38 7.75
      vertex 10 38 1.75
    endloop
  endfacet
  facet normal 0 1 0
    outer loop
      vertex 8 38 0.75
      vertex 10 38 1.75
      vertex 10 38 0.75
    endloop
  endfacet
  facet normal 0 1 0
    outer loop
      vertex 13 38 7.75
      vertex 8 38 0.75
      vertex 8 38 23.75
    endloop
  endfacet
  facet normal 0 0 -1
    outer loop
      vertex 35 36 0.75
      vertex 33 38 0.75
      vertex 35 38 0.75
    endloop
  endfacet
  facet normal 0 0 -1
    outer loop
      vertex 33 38 0.75
      vertex 10 38 0.75
      vertex 33 50 0.75
    endloop
  endfacet
  facet normal 0 0 -1
    outer loop
      vertex 35 36 0.75
      vertex 10 38 0.75
      vertex 33 38 0.75
    endloop
  endfacet
  facet normal 0 0 -1
    outer loop
      vertex 8 36 0.75
      vertex 10 38 0.75
      vertex 35 36 0.75
    endloop
  endfacet
  facet normal -0 0 -1
    outer loop
      vertex 10 38 0.75
      vertex 8 36 0.75
      vertex 8 38 0.75
    endloop
  endfacet
  facet normal -0 0 -1
    outer loop
      vertex 33 50 0.75
      vertex 10 38 0.75
      vertex 10 50 0.75
    endloop
  endfacet
  facet normal -1 0 0
    outer loop
      vertex 10 38 0.75
      vertex 10 50 1.75
      vertex 10 50 0.75
    endloop
  endfacet
  facet normal -1 -0 0
    outer loop
      vertex 10 50 1.75
      vertex 10 38 0.75
      vertex 10 38 1.75
    endloop
  endfacet
  facet normal -0 0 1
    outer loop
      vertex 10 50 1.75
      vertex 33 38 1.75
      vertex 33 50 1.75
    endloop
  endfacet
  facet normal 0 0 1
    outer loop
      vertex 33 38 1.75
      vertex 10 50 1.75
      vertex 10 38 1.75
    endloop
  endfacet
  facet normal 1 -0 0
    outer loop
      vertex 33 38 1.75
      vertex 33 50 0.75
      vertex 33 50 1.75
    endloop
  endfacet
  facet normal 1 0 0
    outer loop
      vertex 33 50 0.75
      vertex 33 38 1.75
      vertex 33 38 0.75
    endloop
  endfacet
  facet normal 0 1 -0
    outer loop
      vertex 33 50 0.75
      vertex 10 50 1.75
      vertex 33 50 1.75
    endloop
  endfacet
  facet normal 0 1 0
    outer loop
      vertex 10 50 1.75
      vertex 33 50 0.75
      vertex 10 50 0.75
    endloop
  endfacet
  facet normal 1 0 0
    outer loop
      vertex 3.5 15 5.75
      vertex 3.5 11 3.75
      vertex 3.5 15 3.75
    endloop
  endfacet
  facet normal 1 -0 0
    outer loop
      vertex 3.5 5 5.75
      vertex 3.5 11 3.75
      vertex 3.5 15 5.75
    endloop
  endfacet
  facet normal 1 0 0
    outer loop
      vertex 3.5 5 3.75
      vertex 3.5 11 3.75
      vertex 3.5 5 5.75
    endloop
  endfacet
  facet normal 1 0 0
    outer loop
      vertex 3.5 11 3.75
      vertex 3.5 5 3.75
      vertex 3.5 11 3.25
    endloop
  endfacet
  facet normal 1 0 0
    outer loop
      vertex 3.5 11 3.25
      vertex 3.5 5 3.75
      vertex 3.5 5 3.25
    endloop
  endfacet
  facet normal -1 0 0
    outer loop
      vertex 6 11 3.25
      vertex 6 5 3.25
      vertex 6 11 3.75
    endloop
  endfacet
  facet normal -1 0 0
    outer loop
      vertex 6 11 3.75
      vertex 6 15 5.75
      vertex 6 15 3.75
    endloop
  endfacet
  facet normal -1 0 0
    outer loop
      vertex 6 5 3.75
      vertex 6 11 3.75
      vertex 6 5 3.25
    endloop
  endfacet
  facet normal -1 0 0
    outer loop
      vertex 6 5 5.75
      vertex 6 11 3.75
      vertex 6 5 3.75
    endloop
  endfacet
  facet normal -1 0 0
    outer loop
      vertex 6 11 3.75
      vertex 6 5 5.75
      vertex 6 15 5.75
    endloop
  endfacet
  facet normal 0 -1 0
    outer loop
      vertex 3.5 15 3.75
      vertex 6 15 5.75
      vertex 3.5 15 5.75
    endloop
  endfacet
  facet normal 0 -1 -0
    outer loop
      vertex 6 15 5.75
      vertex 3.5 15 3.75
      vertex 6 15 3.75
    endloop
  endfacet
  facet normal -0 0 1
    outer loop
      vertex 3.5 11 3.25
      vertex 6 5 3.25
      vertex 6 11 3.25
    endloop
  endfacet
  facet normal 0 0 1
    outer loop
      vertex 6 5 3.25
      vertex 3.5 11 3.25
      vertex 3.5 5 3.25
    endloop
  endfacet
  facet normal 1 0 0
    outer loop
      vertex 3.5 33 5.75
      vertex 3.5 30 3.75
      vertex 3.5 33 3.25
    endloop
  endfacet
  facet normal 1 -0 0
    outer loop
      vertex 3.5 23 5.75
      vertex 3.5 30 3.75
      vertex 3.5 33 5.75
    endloop
  endfacet
  facet normal 1 0 0
    outer loop
      vertex 3.5 30 3.75
      vertex 3.5 23 5.75
      vertex 3.5 23 3.75
    endloop
  endfacet
  facet normal 1 0 0
    outer loop
      vertex 3.5 33 3.25
      vertex 3.5 30 3.75
      vertex 3.5 30 3.25
    endloop
  endfacet
  facet normal -1 0 0
    outer loop
      vertex 6 30 3.75
      vertex 6 33 3.25
      vertex 6 30 3.25
    endloop
  endfacet
  facet normal -1 0 0
    outer loop
      vertex 6 33 3.25
      vertex 6 30 3.75
      vertex 6 33 5.75
    endloop
  endfacet
  facet normal -1 0 0
    outer loop
      vertex 6 23 5.75
      vertex 6 30 3.75
      vertex 6 23 3.75
    endloop
  endfacet
  facet normal -1 0 0
    outer loop
      vertex 6 30 3.75
      vertex 6 23 5.75
      vertex 6 33 5.75
    endloop
  endfacet
  facet normal 0 -1 0
    outer loop
      vertex 3.5 33 3.25
      vertex 6 33 5.75
      vertex 3.5 33 5.75
    endloop
  endfacet
  facet normal 0 -1 -0
    outer loop
      vertex 6 33 5.75
      vertex 3.5 33 3.25
      vertex 6 33 3.25
    endloop
  endfacet
  facet normal -0 0 1
    outer loop
      vertex 3.5 33 3.25
      vertex 6 30 3.25
      vertex 6 33 3.25
    endloop
  endfacet
  facet normal 0 0 1
    outer loop
      vertex 6 30 3.25
      vertex 3.5 33 3.25
      vertex 3.5 30 3.25
    endloop
  endfacet
  facet normal 0 1 -0
    outer loop
      vertex 6 23 3.75
      vertex 3.5 23 5.75
      vertex 6 23 5.75
    endloop
  endfacet
  facet normal 0 1 0
    outer loop
      vertex 3.5 23 5.75
      vertex 6 23 3.75
      vertex 3.5 23 3.75
    endloop
  endfacet
  facet normal 1 0 0
    outer loop
      vertex 37 15 5.75
      vertex 37 11 3.75
      vertex 37 15 3.75
    endloop
  endfacet
  facet normal 1 -0 0
    outer loop
      vertex 37 5 5.75
      vertex 37 11 3.75
      vertex 37 15 5.75
    endloop
  endfacet
  facet normal 1 0 0
    outer loop
      vertex 37 5 3.75
      vertex 37 11 3.75
      vertex 37 5 5.75
    endloop
  endfacet
  facet normal 1 0 0
    outer loop
      vertex 37 11 3.75
      vertex 37 5 3.75
      vertex 37 11 3.25
    endloop
  endfacet
  facet normal 1 0 0
    outer loop
      vertex 37 11 3.25
      vertex 37 5 3.75
      vertex 37 5 3.25
    endloop
  endfacet
  facet normal -1 0 0
    outer loop
      vertex 39.5 11 3.25
      vertex 39.5 5 3.25
      vertex 39.5 11 3.75
    endloop
  endfacet
  facet normal -1 0 0
    outer loop
      vertex 39.5 11 3.75
      vertex 39.5 15 5.75
      vertex 39.5 15 3.75
    endloop
  endfacet
  facet normal -1 0 0
    outer loop
      vertex 39.5 5 3.75
      vertex 39.5 11 3.75
      vertex 39.5 5 3.25
    endloop
  endfacet
  facet normal -1 0 0
    outer loop
      vertex 39.5 5 5.75
      vertex 39.5 11 3.75
      vertex 39.5 5 3.75
    endloop
  endfacet
  facet normal -1 0 0
    outer loop
      vertex 39.5 11 3.75
      vertex 39.5 5 5.75
      vertex 39.5 15 5.75
    endloop
  endfacet
  facet normal -0 0 1
    outer loop
      vertex 37 11 3.25
      vertex 39.5 5 3.25
      vertex 39.5 11 3.25
    endloop
  endfacet
  facet normal 0 0 1
    outer loop
      vertex 39.5 5 3.25
      vertex 37 11 3.25
      vertex 37 5 3.25
    endloop
  endfacet
  facet normal 0 -1 0
    outer loop
      vertex 37 15 3.75
      vertex 39.5 15 5.75
      vertex 37 15 5.75
    endloop
  endfacet
  facet normal 0 -1 -0
    outer loop
      vertex 39.5 15 5.75
      vertex 37 15 3.75
      vertex 39.5 15 3.75
    endloop
  endfacet
  facet normal 1 0 0
    outer loop
      vertex 37 33 5.75
      vertex 37 30 3.75
      vertex 37 33 3.25
    endloop
  endfacet
  facet normal 1 -0 0
    outer loop
      vertex 37 23 5.75
      vertex 37 30 3.75
      vertex 37 33 5.75
    endloop
  endfacet
  facet normal 1 0 0
    outer loop
      vertex 37 30 3.75
      vertex 37 23 5.75
      vertex 37 23 3.75
    endloop
  endfacet
  facet normal 1 0 0
    outer loop
      vertex 37 33 3.25
      vertex 37 30 3.75
      vertex 37 30 3.25
    endloop
  endfacet
  facet normal -1 0 0
    outer loop
      vertex 39.5 30 3.75
      vertex 39.5 33 3.25
      vertex 39.5 30 3.25
    endloop
  endfacet
  facet normal -1 0 0
    outer loop
      vertex 39.5 33 3.25
      vertex 39.5 30 3.75
      vertex 39.5 33 5.75
    endloop
  endfacet
  facet normal -1 0 0
    outer loop
      vertex 39.5 23 5.75
      vertex 39.5 30 3.75
      vertex 39.5 23 3.75
    endloop
  endfacet
  facet normal -1 0 0
    outer loop
      vertex 39.5 30 3.75
      vertex 39.5 23 5.75
      vertex 39.5 33 5.75
    endloop
  endfacet
  facet normal -0 0 1
    outer loop
      vertex 37 33 3.25
      vertex 39.5 30 3.25
      vertex 39.5 33 3.25
    endloop
  endfacet
  facet normal 0 0 1
    outer loop
      vertex 39.5 30 3.25
      vertex 37 33 3.25
      vertex 37 30 3.25
    endloop
  endfacet
  facet normal 0 1 -0
    outer loop
      vertex 39.5 23 3.75
      vertex 37 23 5.75
      vertex 39.5 23 5.75
    endloop
  endfacet
  facet normal 0 1 0
    outer loop
      vertex 37 23 5.75
      vertex 39.5 23 3.75
      vertex 37 23 3.75
    endloop
  endfacet
  facet normal 0 -1 0
    outer loop
      vertex 37 33 3.25
      vertex 39.5 33 5.75
      vertex 37 33 5.75
    endloop
  endfacet
  facet normal 0 -1 -0
    outer loop
      vertex 39.5 33 5.75
      vertex 37 33 3.25
      vertex 39.5 33 3.25
    endloop
  endfacet
  facet normal 1 -0 0
    outer loop
      vertex 13 36 20.75
      vertex 13 38 7.75
      vertex 13 38 20.75
    endloop
  endfacet
  facet normal 1 0 0
    outer loop
      vertex 13 38 7.75
      vertex 13 36 20.75
      vertex 13 36 7.75
    endloop
  endfacet
  facet normal 0 0 -1
    outer loop
      vertex 13 36 20.75
      vertex 30 38 20.75
      vertex 30 36 20.75
    endloop
  endfacet
  facet normal -0 0 -1
    outer loop
      vertex 30 38 20.75
      vertex 13 36 20.75
      vertex 13 38 20.75
    endloop
  endfacet
  facet normal -1 0 0
    outer loop
      vertex 30 36 7.75
      vertex 30 38 20.75
      vertex 30 38 7.75
    endloop
  endfacet
  facet normal -1 -0 0
    outer loop
      vertex 30 38 20.75
      vertex 30 36 7.75
      vertex 30 36 20.75
    endloop
  endfacet
  facet normal -0 0 1
    outer loop
      vertex 13 38 7.75
      vertex 30 36 7.75
      vertex 30 38 7.75
    endloop
  endfacet
  facet normal 0 0 1
    outer loop
      vertex 30 36 7.75
      vertex 13 38 7.75
      vertex 13 36 7.75
    endloop
  endfacet
endsolid OpenSCAD_Model
