solid OpenSCAD_Model
  facet normal -1 0 0
    outer loop
      vertex 1 5 0
      vertex 1 11 3.75
      vertex 1 11 0
    endloop
  endfacet
  facet normal -1 -0 0
    outer loop
      vertex 1 11 3.75
      vertex 1 5 0
      vertex 1 5 3.75
    endloop
  endfacet
  facet normal -0 0 1
    outer loop
      vertex 3.5 29 5.75
      vertex 6 15 5.75
      vertex 6 29 5.75
    endloop
  endfacet
  facet normal 0 0 1
    outer loop
      vertex 6 15 5.75
      vertex 3.5 29 5.75
      vertex 3.5 15 5.75
    endloop
  endfacet
  facet normal -0 0 1
    outer loop
      vertex 37 29 5.75
      vertex 39.5 15 5.75
      vertex 39.5 29 5.75
    endloop
  endfacet
  facet normal 0 0 1
    outer loop
      vertex 39.5 15 5.75
      vertex 37 29 5.75
      vertex 37 15 5.75
    endloop
  endfacet
  facet normal 0 0 1
    outer loop
      vertex 39.5 29 5.75
      vertex 43 46 5.75
      vertex 39.5 39 5.75
    endloop
  endfacet
  facet normal 0 0 1
    outer loop
      vertex 43 46 5.75
      vertex 37 39 5.75
      vertex 39.5 39 5.75
    endloop
  endfacet
  facet normal 0 0 1
    outer loop
      vertex 6 29 5.75
      vertex 37 29 5.75
      vertex 37 39 5.75
    endloop
  endfacet
  facet normal 0 0 1
    outer loop
      vertex 37 29 5.75
      vertex 6 29 5.75
      vertex 37 15 5.75
    endloop
  endfacet
  facet normal 0 -0 1
    outer loop
      vertex 35 2 5.75
      vertex 37 15 5.75
      vertex 6 15 5.75
    endloop
  endfacet
  facet normal 0 0 1
    outer loop
      vertex 37 15 5.75
      vertex 35 2 5.75
      vertex 37 5 5.75
    endloop
  endfacet
  facet normal 0 0 1
    outer loop
      vertex 37 15 5.75
      vertex 6 29 5.75
      vertex 6 15 5.75
    endloop
  endfacet
  facet normal 0 0 1
    outer loop
      vertex 6 29 5.75
      vertex 37 39 5.75
      vertex 6 39 5.75
    endloop
  endfacet
  facet normal 0 0 1
    outer loop
      vertex 43 46 5.75
      vertex 6 39 5.75
      vertex 37 39 5.75
    endloop
  endfacet
  facet normal -0 0 1
    outer loop
      vertex 0 46 5.75
      vertex 6 39 5.75
      vertex 43 46 5.75
    endloop
  endfacet
  facet normal 0 0 1
    outer loop
      vertex 0 46 5.75
      vertex 3.5 29 5.75
      vertex 3.5 39 5.75
    endloop
  endfacet
  facet normal 0 0 1
    outer loop
      vertex 0 0 5.75
      vertex 3.5 29 5.75
      vertex 0 46 5.75
    endloop
  endfacet
  facet normal 0 0 1
    outer loop
      vertex 3.5 29 5.75
      vertex 0 0 5.75
      vertex 3.5 15 5.75
    endloop
  endfacet
  facet normal 0 0 1
    outer loop
      vertex 6 39 5.75
      vertex 0 46 5.75
      vertex 3.5 39 5.75
    endloop
  endfacet
  facet normal 0 0 1
    outer loop
      vertex 43 46 5.75
      vertex 39.5 29 5.75
      vertex 43 0 5.75
    endloop
  endfacet
  facet normal -0 0 1
    outer loop
      vertex 39.5 15 5.75
      vertex 43 0 5.75
      vertex 39.5 29 5.75
    endloop
  endfacet
  facet normal -0 0 1
    outer loop
      vertex 39.5 5 5.75
      vertex 43 0 5.75
      vertex 39.5 15 5.75
    endloop
  endfacet
  facet normal 0 0 1
    outer loop
      vertex 35 2 5.75
      vertex 39.5 5 5.75
      vertex 37 5 5.75
    endloop
  endfacet
  facet normal 0 0 1
    outer loop
      vertex 35 0 5.75
      vertex 39.5 5 5.75
      vertex 35 2 5.75
    endloop
  endfacet
  facet normal 0 0 1
    outer loop
      vertex 39.5 5 5.75
      vertex 35 0 5.75
      vertex 43 0 5.75
    endloop
  endfacet
  facet normal 0 0 1
    outer loop
      vertex 35 2 5.75
      vertex 6 15 5.75
      vertex 8 2 5.75
    endloop
  endfacet
  facet normal -0 0 1
    outer loop
      vertex 6 5 5.75
      vertex 8 2 5.75
      vertex 6 15 5.75
    endloop
  endfacet
  facet normal -0 0 1
    outer loop
      vertex 3.5 5 5.75
      vertex 8 2 5.75
      vertex 6 5 5.75
    endloop
  endfacet
  facet normal 0 0 1
    outer loop
      vertex 8 2 5.75
      vertex 3.5 5 5.75
      vertex 8 0 5.75
    endloop
  endfacet
  facet normal 0 0 1
    outer loop
      vertex 3.5 5 5.75
      vertex 0 0 5.75
      vertex 8 0 5.75
    endloop
  endfacet
  facet normal 0 0 1
    outer loop
      vertex 3.5 15 5.75
      vertex 0 0 5.75
      vertex 3.5 5 5.75
    endloop
  endfacet
  facet normal 1 -0 0
    outer loop
      vertex 7 5 3.75
      vertex 7 11 0
      vertex 7 11 3.75
    endloop
  endfacet
  facet normal 1 0 0
    outer loop
      vertex 7 11 0
      vertex 7 5 3.75
      vertex 7 5 0
    endloop
  endfacet
  facet normal 0 1 0
    outer loop
      vertex 7 11 3.75
      vertex 6 11 3.25
      vertex 6 11 3.75
    endloop
  endfacet
  facet normal 0 1 0
    outer loop
      vertex 6 11 3.25
      vertex 7 11 0
      vertex 3.5 11 3.25
    endloop
  endfacet
  facet normal 0 1 -0
    outer loop
      vertex 7 11 0
      vertex 6 11 3.25
      vertex 7 11 3.75
    endloop
  endfacet
  facet normal 0 1 -0
    outer loop
      vertex 3.5 11 3.25
      vertex 1 11 3.75
      vertex 3.5 11 3.75
    endloop
  endfacet
  facet normal 0 1 0
    outer loop
      vertex 1 11 0
      vertex 3.5 11 3.25
      vertex 7 11 0
    endloop
  endfacet
  facet normal 0 1 0
    outer loop
      vertex 3.5 11 3.25
      vertex 1 11 0
      vertex 1 11 3.75
    endloop
  endfacet
  facet normal 0 0 -1
    outer loop
      vertex 1 5 0
      vertex 7 11 0
      vertex 7 5 0
    endloop
  endfacet
  facet normal -0 0 -1
    outer loop
      vertex 7 11 0
      vertex 1 5 0
      vertex 1 11 0
    endloop
  endfacet
  facet normal 0 -1 0
    outer loop
      vertex 1 5 3.75
      vertex 3.5 5 3.25
      vertex 3.5 5 3.75
    endloop
  endfacet
  facet normal 0 -1 0
    outer loop
      vertex 7 5 0
      vertex 3.5 5 3.25
      vertex 1 5 0
    endloop
  endfacet
  facet normal 0 -1 0
    outer loop
      vertex 1 5 0
      vertex 3.5 5 3.25
      vertex 1 5 3.75
    endloop
  endfacet
  facet normal 0 -1 0
    outer loop
      vertex 6 5 3.25
      vertex 7 5 3.75
      vertex 6 5 3.75
    endloop
  endfacet
  facet normal 0 -1 0
    outer loop
      vertex 3.5 5 3.25
      vertex 7 5 0
      vertex 6 5 3.25
    endloop
  endfacet
  facet normal 0 -1 0
    outer loop
      vertex 6 5 3.25
      vertex 7 5 0
      vertex 7 5 3.75
    endloop
  endfacet
  facet normal 0 1 -0
    outer loop
      vertex 6 5 3.75
      vertex 3.5 5 5.75
      vertex 6 5 5.75
    endloop
  endfacet
  facet normal 0 1 0
    outer loop
      vertex 3.5 5 5.75
      vertex 6 5 3.75
      vertex 3.5 5 3.75
    endloop
  endfacet
  facet normal -1 0 0
    outer loop
      vertex 1 30 0
      vertex 1 36 3.75
      vertex 1 36 0
    endloop
  endfacet
  facet normal -1 -0 0
    outer loop
      vertex 1 36 3.75
      vertex 1 30 0
      vertex 1 30 3.75
    endloop
  endfacet
  facet normal 1 -0 0
    outer loop
      vertex 7 30 3.75
      vertex 7 36 0
      vertex 7 36 3.75
    endloop
  endfacet
  facet normal 1 0 0
    outer loop
      vertex 7 36 0
      vertex 7 30 3.75
      vertex 7 30 0
    endloop
  endfacet
  facet normal 0 1 0
    outer loop
      vertex 7 36 3.75
      vertex 6 36 3.25
      vertex 6 36 3.75
    endloop
  endfacet
  facet normal 0 1 0
    outer loop
      vertex 6 36 3.25
      vertex 7 36 0
      vertex 3.5 36 3.25
    endloop
  endfacet
  facet normal 0 1 -0
    outer loop
      vertex 7 36 0
      vertex 6 36 3.25
      vertex 7 36 3.75
    endloop
  endfacet
  facet normal 0 1 -0
    outer loop
      vertex 3.5 36 3.25
      vertex 1 36 3.75
      vertex 3.5 36 3.75
    endloop
  endfacet
  facet normal 0 1 0
    outer loop
      vertex 1 36 0
      vertex 3.5 36 3.25
      vertex 7 36 0
    endloop
  endfacet
  facet normal 0 1 0
    outer loop
      vertex 3.5 36 3.25
      vertex 1 36 0
      vertex 1 36 3.75
    endloop
  endfacet
  facet normal 0 0 -1
    outer loop
      vertex 1 30 0
      vertex 7 36 0
      vertex 7 30 0
    endloop
  endfacet
  facet normal -0 0 -1
    outer loop
      vertex 7 36 0
      vertex 1 30 0
      vertex 1 36 0
    endloop
  endfacet
  facet normal 0 -1 0
    outer loop
      vertex 1 30 3.75
      vertex 3.5 30 3.25
      vertex 3.5 30 3.75
    endloop
  endfacet
  facet normal 0 -1 0
    outer loop
      vertex 7 30 0
      vertex 3.5 30 3.25
      vertex 1 30 0
    endloop
  endfacet
  facet normal 0 -1 0
    outer loop
      vertex 1 30 0
      vertex 3.5 30 3.25
      vertex 1 30 3.75
    endloop
  endfacet
  facet normal 0 -1 0
    outer loop
      vertex 6 30 3.25
      vertex 7 30 3.75
      vertex 6 30 3.75
    endloop
  endfacet
  facet normal 0 -1 0
    outer loop
      vertex 3.5 30 3.25
      vertex 7 30 0
      vertex 6 30 3.25
    endloop
  endfacet
  facet normal 0 -1 0
    outer loop
      vertex 6 30 3.25
      vertex 7 30 0
      vertex 7 30 3.75
    endloop
  endfacet
  facet normal -1 0 0
    outer loop
      vertex 36 5 0
      vertex 36 11 3.75
      vertex 36 11 0
    endloop
  endfacet
  facet normal -1 -0 0
    outer loop
      vertex 36 11 3.75
      vertex 36 5 0
      vertex 36 5 3.75
    endloop
  endfacet
  facet normal 1 -0 0
    outer loop
      vertex 42 5 3.75
      vertex 42 11 0
      vertex 42 11 3.75
    endloop
  endfacet
  facet normal 1 0 0
    outer loop
      vertex 42 11 0
      vertex 42 5 3.75
      vertex 42 5 0
    endloop
  endfacet
  facet normal 0 1 0
    outer loop
      vertex 42 11 3.75
      vertex 39.5 11 3.25
      vertex 39.5 11 3.75
    endloop
  endfacet
  facet normal 0 1 0
    outer loop
      vertex 36 11 0
      vertex 39.5 11 3.25
      vertex 42 11 0
    endloop
  endfacet
  facet normal 0 1 -0
    outer loop
      vertex 42 11 0
      vertex 39.5 11 3.25
      vertex 42 11 3.75
    endloop
  endfacet
  facet normal 0 1 -0
    outer loop
      vertex 37 11 3.25
      vertex 36 11 3.75
      vertex 37 11 3.75
    endloop
  endfacet
  facet normal 0 1 0
    outer loop
      vertex 39.5 11 3.25
      vertex 36 11 0
      vertex 37 11 3.25
    endloop
  endfacet
  facet normal 0 1 0
    outer loop
      vertex 37 11 3.25
      vertex 36 11 0
      vertex 36 11 3.75
    endloop
  endfacet
  facet normal 0 0 -1
    outer loop
      vertex 36 5 0
      vertex 42 11 0
      vertex 42 5 0
    endloop
  endfacet
  facet normal -0 0 -1
    outer loop
      vertex 42 11 0
      vertex 36 5 0
      vertex 36 11 0
    endloop
  endfacet
  facet normal 0 -1 0
    outer loop
      vertex 36 5 3.75
      vertex 37 5 3.25
      vertex 37 5 3.75
    endloop
  endfacet
  facet normal 0 -1 -0
    outer loop
      vertex 37 5 3.25
      vertex 36 5 0
      vertex 39.5 5 3.25
    endloop
  endfacet
  facet normal 0 -1 0
    outer loop
      vertex 36 5 0
      vertex 37 5 3.25
      vertex 36 5 3.75
    endloop
  endfacet
  facet normal 0 -1 0
    outer loop
      vertex 39.5 5 3.25
      vertex 42 5 3.75
      vertex 39.5 5 3.75
    endloop
  endfacet
  facet normal 0 -1 0
    outer loop
      vertex 42 5 0
      vertex 39.5 5 3.25
      vertex 36 5 0
    endloop
  endfacet
  facet normal 0 -1 0
    outer loop
      vertex 39.5 5 3.25
      vertex 42 5 0
      vertex 42 5 3.75
    endloop
  endfacet
  facet normal 0 1 -0
    outer loop
      vertex 39.5 5 3.75
      vertex 37 5 5.75
      vertex 39.5 5 5.75
    endloop
  endfacet
  facet normal 0 1 0
    outer loop
      vertex 37 5 5.75
      vertex 39.5 5 3.75
      vertex 37 5 3.75
    endloop
  endfacet
  facet normal -1 0 0
    outer loop
      vertex 36 30 0
      vertex 36 36 3.75
      vertex 36 36 0
    endloop
  endfacet
  facet normal -1 -0 0
    outer loop
      vertex 36 36 3.75
      vertex 36 30 0
      vertex 36 30 3.75
    endloop
  endfacet
  facet normal 1 -0 0
    outer loop
      vertex 42 30 3.75
      vertex 42 36 0
      vertex 42 36 3.75
    endloop
  endfacet
  facet normal 1 0 0
    outer loop
      vertex 42 36 0
      vertex 42 30 3.75
      vertex 42 30 0
    endloop
  endfacet
  facet normal 0 1 0
    outer loop
      vertex 42 36 3.75
      vertex 39.5 36 3.25
      vertex 39.5 36 3.75
    endloop
  endfacet
  facet normal 0 1 0
    outer loop
      vertex 36 36 0
      vertex 39.5 36 3.25
      vertex 42 36 0
    endloop
  endfacet
  facet normal 0 1 -0
    outer loop
      vertex 42 36 0
      vertex 39.5 36 3.25
      vertex 42 36 3.75
    endloop
  endfacet
  facet normal 0 1 -0
    outer loop
      vertex 37 36 3.25
      vertex 36 36 3.75
      vertex 37 36 3.75
    endloop
  endfacet
  facet normal 0 1 0
    outer loop
      vertex 39.5 36 3.25
      vertex 36 36 0
      vertex 37 36 3.25
    endloop
  endfacet
  facet normal 0 1 0
    outer loop
      vertex 37 36 3.25
      vertex 36 36 0
      vertex 36 36 3.75
    endloop
  endfacet
  facet normal 0 0 -1
    outer loop
      vertex 36 30 0
      vertex 42 36 0
      vertex 42 30 0
    endloop
  endfacet
  facet normal -0 0 -1
    outer loop
      vertex 42 36 0
      vertex 36 30 0
      vertex 36 36 0
    endloop
  endfacet
  facet normal 0 -1 0
    outer loop
      vertex 36 30 3.75
      vertex 37 30 3.25
      vertex 37 30 3.75
    endloop
  endfacet
  facet normal 0 -1 -0
    outer loop
      vertex 37 30 3.25
      vertex 36 30 0
      vertex 39.5 30 3.25
    endloop
  endfacet
  facet normal 0 -1 0
    outer loop
      vertex 36 30 0
      vertex 37 30 3.25
      vertex 36 30 3.75
    endloop
  endfacet
  facet normal 0 -1 0
    outer loop
      vertex 39.5 30 3.25
      vertex 42 30 3.75
      vertex 39.5 30 3.75
    endloop
  endfacet
  facet normal 0 -1 0
    outer loop
      vertex 42 30 0
      vertex 39.5 30 3.25
      vertex 36 30 0
    endloop
  endfacet
  facet normal 0 -1 0
    outer loop
      vertex 39.5 30 3.25
      vertex 42 30 0
      vertex 42 30 3.75
    endloop
  endfacet
  facet normal -1 0 0
    outer loop
      vertex 0 0 3.75
      vertex 0 46 5.75
      vertex 0 46 3.75
    endloop
  endfacet
  facet normal -1 -0 0
    outer loop
      vertex 0 46 5.75
      vertex 0 0 3.75
      vertex 0 0 5.75
    endloop
  endfacet
  facet normal 1 -0 0
    outer loop
      vertex 43 0 5.75
      vertex 43 46 3.75
      vertex 43 46 5.75
    endloop
  endfacet
  facet normal 1 0 0
    outer loop
      vertex 43 46 3.75
      vertex 43 0 5.75
      vertex 43 0 3.75
    endloop
  endfacet
  facet normal 0 1 -0
    outer loop
      vertex 43 46 3.75
      vertex 0 46 5.75
      vertex 43 46 5.75
    endloop
  endfacet
  facet normal 0 1 0
    outer loop
      vertex 0 46 5.75
      vertex 43 46 3.75
      vertex 0 46 3.75
    endloop
  endfacet
  facet normal 0 0 -1
    outer loop
      vertex 3.5 36 3.75
      vertex 1 36 3.75
      vertex 3.5 39 3.75
    endloop
  endfacet
  facet normal 0 0 -1
    outer loop
      vertex 1 11 3.75
      vertex 3.5 15 3.75
      vertex 3.5 11 3.75
    endloop
  endfacet
  facet normal 0 0 -1
    outer loop
      vertex 1 30 3.75
      vertex 3.5 15 3.75
      vertex 1 11 3.75
    endloop
  endfacet
  facet normal 0 0 -1
    outer loop
      vertex 3.5 15 3.75
      vertex 1 30 3.75
      vertex 3.5 29 3.75
    endloop
  endfacet
  facet normal 0 0 -1
    outer loop
      vertex 3.5 29 3.75
      vertex 1 30 3.75
      vertex 3.5 30 3.75
    endloop
  endfacet
  facet normal 0 0 -1
    outer loop
      vertex 3.5 15 3.75
      vertex 6 29 3.75
      vertex 6 15 3.75
    endloop
  endfacet
  facet normal -0 0 -1
    outer loop
      vertex 6 29 3.75
      vertex 3.5 15 3.75
      vertex 3.5 29 3.75
    endloop
  endfacet
  facet normal 0 0 -1
    outer loop
      vertex 6 15 3.75
      vertex 7 11 3.75
      vertex 6 11 3.75
    endloop
  endfacet
  facet normal 0 0 -1
    outer loop
      vertex 7 11 3.75
      vertex 6 15 3.75
      vertex 7 30 3.75
    endloop
  endfacet
  facet normal 0 0 -1
    outer loop
      vertex 6 29 3.75
      vertex 7 30 3.75
      vertex 6 15 3.75
    endloop
  endfacet
  facet normal -0 0 -1
    outer loop
      vertex 7 30 3.75
      vertex 6 29 3.75
      vertex 6 30 3.75
    endloop
  endfacet
  facet normal 0 0 -1
    outer loop
      vertex 37 36 3.75
      vertex 36 36 3.75
      vertex 37 39 3.75
    endloop
  endfacet
  facet normal 0 0 -1
    outer loop
      vertex 36 11 3.75
      vertex 37 15 3.75
      vertex 37 11 3.75
    endloop
  endfacet
  facet normal 0 0 -1
    outer loop
      vertex 7 11 3.75
      vertex 37 15 3.75
      vertex 36 11 3.75
    endloop
  endfacet
  facet normal 0 0 -1
    outer loop
      vertex 37 15 3.75
      vertex 36 30 3.75
      vertex 37 29 3.75
    endloop
  endfacet
  facet normal 0 0 -1
    outer loop
      vertex 37 29 3.75
      vertex 36 30 3.75
      vertex 37 30 3.75
    endloop
  endfacet
  facet normal 0 0 -1
    outer loop
      vertex 37 15 3.75
      vertex 39.5 29 3.75
      vertex 39.5 15 3.75
    endloop
  endfacet
  facet normal -0 0 -1
    outer loop
      vertex 39.5 29 3.75
      vertex 37 15 3.75
      vertex 37 29 3.75
    endloop
  endfacet
  facet normal 0 0 -1
    outer loop
      vertex 39.5 15 3.75
      vertex 42 11 3.75
      vertex 39.5 11 3.75
    endloop
  endfacet
  facet normal 0 0 -1
    outer loop
      vertex 42 11 3.75
      vertex 39.5 15 3.75
      vertex 42 30 3.75
    endloop
  endfacet
  facet normal 0 0 -1
    outer loop
      vertex 39.5 29 3.75
      vertex 42 30 3.75
      vertex 39.5 15 3.75
    endloop
  endfacet
  facet normal -0 0 -1
    outer loop
      vertex 42 30 3.75
      vertex 39.5 29 3.75
      vertex 39.5 30 3.75
    endloop
  endfacet
  facet normal 0 0 -1
    outer loop
      vertex 42 11 3.75
      vertex 43 0 3.75
      vertex 42 5 3.75
    endloop
  endfacet
  facet normal 0 0 -1
    outer loop
      vertex 43 0 3.75
      vertex 39.5 5 3.75
      vertex 42 5 3.75
    endloop
  endfacet
  facet normal 0 0 -1
    outer loop
      vertex 43 0 3.75
      vertex 37 5 3.75
      vertex 39.5 5 3.75
    endloop
  endfacet
  facet normal 0 0 -1
    outer loop
      vertex 43 0 3.75
      vertex 36 5 3.75
      vertex 37 5 3.75
    endloop
  endfacet
  facet normal 0 0 -1
    outer loop
      vertex 7 11 3.75
      vertex 36 11 3.75
      vertex 36 5 3.75
    endloop
  endfacet
  facet normal 0 0 -1
    outer loop
      vertex 7 30 3.75
      vertex 37 15 3.75
      vertex 7 11 3.75
    endloop
  endfacet
  facet normal 0 0 -1
    outer loop
      vertex 7 11 3.75
      vertex 36 5 3.75
      vertex 7 5 3.75
    endloop
  endfacet
  facet normal 0 0 -1
    outer loop
      vertex 43 0 3.75
      vertex 7 5 3.75
      vertex 36 5 3.75
    endloop
  endfacet
  facet normal 0 0 -1
    outer loop
      vertex 0 0 3.75
      vertex 7 5 3.75
      vertex 43 0 3.75
    endloop
  endfacet
  facet normal -0 0 -1
    outer loop
      vertex 7 5 3.75
      vertex 0 0 3.75
      vertex 6 5 3.75
    endloop
  endfacet
  facet normal -0 0 -1
    outer loop
      vertex 6 5 3.75
      vertex 0 0 3.75
      vertex 3.5 5 3.75
    endloop
  endfacet
  facet normal 0 0 -1
    outer loop
      vertex 0 0 3.75
      vertex 1 11 3.75
      vertex 1 5 3.75
    endloop
  endfacet
  facet normal -0 0 -1
    outer loop
      vertex 1 11 3.75
      vertex 0 0 3.75
      vertex 1 30 3.75
    endloop
  endfacet
  facet normal 0 0 -1
    outer loop
      vertex 0 46 3.75
      vertex 1 30 3.75
      vertex 0 0 3.75
    endloop
  endfacet
  facet normal -0 0 -1
    outer loop
      vertex 3.5 5 3.75
      vertex 0 0 3.75
      vertex 1 5 3.75
    endloop
  endfacet
  facet normal 0 0 -1
    outer loop
      vertex 42 30 3.75
      vertex 43 0 3.75
      vertex 42 11 3.75
    endloop
  endfacet
  facet normal 0 0 -1
    outer loop
      vertex 43 0 3.75
      vertex 42 30 3.75
      vertex 43 46 3.75
    endloop
  endfacet
  facet normal 0 0 -1
    outer loop
      vertex 42 36 3.75
      vertex 43 46 3.75
      vertex 42 30 3.75
    endloop
  endfacet
  facet normal 0 0 -1
    outer loop
      vertex 39.5 39 3.75
      vertex 42 36 3.75
      vertex 39.5 36 3.75
    endloop
  endfacet
  facet normal 0 0 -1
    outer loop
      vertex 42 36 3.75
      vertex 39.5 39 3.75
      vertex 43 46 3.75
    endloop
  endfacet
  facet normal 0 0 -1
    outer loop
      vertex 37 39 3.75
      vertex 43 46 3.75
      vertex 39.5 39 3.75
    endloop
  endfacet
  facet normal 0 0 -1
    outer loop
      vertex 37 15 3.75
      vertex 7 30 3.75
      vertex 36 30 3.75
    endloop
  endfacet
  facet normal 0 0 -1
    outer loop
      vertex 36 30 3.75
      vertex 7 30 3.75
      vertex 36 36 3.75
    endloop
  endfacet
  facet normal 0 0 -1
    outer loop
      vertex 7 36 3.75
      vertex 36 36 3.75
      vertex 7 30 3.75
    endloop
  endfacet
  facet normal 0 0 -1
    outer loop
      vertex 36 36 3.75
      vertex 7 36 3.75
      vertex 37 39 3.75
    endloop
  endfacet
  facet normal 0 0 -1
    outer loop
      vertex 6 39 3.75
      vertex 37 39 3.75
      vertex 7 36 3.75
    endloop
  endfacet
  facet normal 0 0 -1
    outer loop
      vertex 6 39 3.75
      vertex 7 36 3.75
      vertex 6 36 3.75
    endloop
  endfacet
  facet normal 0 0 -1
    outer loop
      vertex 37 39 3.75
      vertex 6 39 3.75
      vertex 43 46 3.75
    endloop
  endfacet
  facet normal 0 0 -1
    outer loop
      vertex 0 46 3.75
      vertex 6 39 3.75
      vertex 3.5 39 3.75
    endloop
  endfacet
  facet normal 0 0 -1
    outer loop
      vertex 6 39 3.75
      vertex 0 46 3.75
      vertex 43 46 3.75
    endloop
  endfacet
  facet normal 0 0 -1
    outer loop
      vertex 1 36 3.75
      vertex 0 46 3.75
      vertex 3.5 39 3.75
    endloop
  endfacet
  facet normal 0 0 -1
    outer loop
      vertex 1 30 3.75
      vertex 0 46 3.75
      vertex 1 36 3.75
    endloop
  endfacet
  facet normal 0 -1 0
    outer loop
      vertex 0 0 3.75
      vertex 8 0 5.75
      vertex 0 0 5.75
    endloop
  endfacet
  facet normal 0 -1 -0
    outer loop
      vertex 8 0 5.75
      vertex 0 0 3.75
      vertex 35 0 5.75
    endloop
  endfacet
  facet normal 0 -1 0
    outer loop
      vertex 43 0 3.75
      vertex 35 0 5.75
      vertex 0 0 3.75
    endloop
  endfacet
  facet normal 0 -1 0
    outer loop
      vertex 35 0 5.75
      vertex 43 0 3.75
      vertex 43 0 5.75
    endloop
  endfacet
  facet normal 0 -1 0
    outer loop
      vertex 30 0 11.75
      vertex 31 0 26.75
      vertex 30 0 26.75
    endloop
  endfacet
  facet normal 0 -1 -0
    outer loop
      vertex 31 0 26.75
      vertex 30 0 11.75
      vertex 31 0 11.75
    endloop
  endfacet
  facet normal 0 -1 0
    outer loop
      vertex 11.5 0 11.75
      vertex 13 0 26.75
      vertex 11.5 0 26.75
    endloop
  endfacet
  facet normal 0 -1 -0
    outer loop
      vertex 13 0 26.75
      vertex 11.5 0 11.75
      vertex 13 0 11.75
    endloop
  endfacet
  facet normal 0 -1 0
    outer loop
      vertex 11.5 0 26.75
      vertex 8 0 34.75
      vertex 9.5 0 26.75
    endloop
  endfacet
  facet normal 0 -1 0
    outer loop
      vertex 8 0 5.75
      vertex 9.5 0 26.75
      vertex 8 0 34.75
    endloop
  endfacet
  facet normal 0 -1 0
    outer loop
      vertex 8 0 5.75
      vertex 11.5 0 11.75
      vertex 9.5 0 11.75
    endloop
  endfacet
  facet normal 0 -1 -0
    outer loop
      vertex 11.5 0 11.75
      vertex 8 0 5.75
      vertex 13 0 11.75
    endloop
  endfacet
  facet normal 0 -1 -0
    outer loop
      vertex 13 0 11.75
      vertex 8 0 5.75
      vertex 30 0 11.75
    endloop
  endfacet
  facet normal 0 -1 0
    outer loop
      vertex 35 0 5.75
      vertex 30 0 11.75
      vertex 8 0 5.75
    endloop
  endfacet
  facet normal 0 -1 0
    outer loop
      vertex 30 0 11.75
      vertex 35 0 5.75
      vertex 31 0 11.75
    endloop
  endfacet
  facet normal 0 -1 -0
    outer loop
      vertex 9.5 0 26.75
      vertex 8 0 5.75
      vertex 9.5 0 11.75
    endloop
  endfacet
  facet normal 0 -1 0
    outer loop
      vertex 13 0 26.75
      vertex 8 0 34.75
      vertex 11.5 0 26.75
    endloop
  endfacet
  facet normal 0 -1 0
    outer loop
      vertex 8 0 34.75
      vertex 13 0 26.75
      vertex 35 0 34.75
    endloop
  endfacet
  facet normal 0 -1 0
    outer loop
      vertex 30 0 26.75
      vertex 35 0 34.75
      vertex 13 0 26.75
    endloop
  endfacet
  facet normal 0 -1 0
    outer loop
      vertex 31 0 26.75
      vertex 35 0 34.75
      vertex 30 0 26.75
    endloop
  endfacet
  facet normal 0 -1 0
    outer loop
      vertex 33 0 26.75
      vertex 35 0 34.75
      vertex 31 0 26.75
    endloop
  endfacet
  facet normal 0 -1 0
    outer loop
      vertex 35 0 5.75
      vertex 33 0 26.75
      vertex 33 0 11.75
    endloop
  endfacet
  facet normal 0 -1 0
    outer loop
      vertex 33 0 26.75
      vertex 35 0 5.75
      vertex 35 0 34.75
    endloop
  endfacet
  facet normal 0 -1 0
    outer loop
      vertex 31 0 11.75
      vertex 35 0 5.75
      vertex 33 0 11.75
    endloop
  endfacet
  facet normal -1 0 0
    outer loop
      vertex 8 0 5.75
      vertex 8 2 34.75
      vertex 8 2 5.75
    endloop
  endfacet
  facet normal -1 -0 0
    outer loop
      vertex 8 2 34.75
      vertex 8 0 5.75
      vertex 8 0 34.75
    endloop
  endfacet
  facet normal -0 0 1
    outer loop
      vertex 8 2 34.75
      vertex 35 0 34.75
      vertex 35 2 34.75
    endloop
  endfacet
  facet normal 0 0 1
    outer loop
      vertex 35 0 34.75
      vertex 8 2 34.75
      vertex 8 0 34.75
    endloop
  endfacet
  facet normal 1 -0 0
    outer loop
      vertex 35 0 34.75
      vertex 35 2 5.75
      vertex 35 2 34.75
    endloop
  endfacet
  facet normal 1 0 0
    outer loop
      vertex 35 2 5.75
      vertex 35 0 34.75
      vertex 35 0 5.75
    endloop
  endfacet
  facet normal 0 1 -0
    outer loop
      vertex 13 2 11.75
      vertex 11.5 2 26.75
      vertex 13 2 26.75
    endloop
  endfacet
  facet normal 0 1 0
    outer loop
      vertex 11.5 2 26.75
      vertex 13 2 11.75
      vertex 11.5 2 11.75
    endloop
  endfacet
  facet normal 0 1 -0
    outer loop
      vertex 31 2 11.75
      vertex 30 2 26.75
      vertex 31 2 26.75
    endloop
  endfacet
  facet normal 0 1 0
    outer loop
      vertex 30 2 26.75
      vertex 31 2 11.75
      vertex 30 2 11.75
    endloop
  endfacet
  facet normal 0 1 0
    outer loop
      vertex 31 2 26.75
      vertex 35 2 34.75
      vertex 33 2 26.75
    endloop
  endfacet
  facet normal 0 1 -0
    outer loop
      vertex 35 2 5.75
      vertex 33 2 26.75
      vertex 35 2 34.75
    endloop
  endfacet
  facet normal 0 1 0
    outer loop
      vertex 35 2 5.75
      vertex 31 2 11.75
      vertex 33 2 11.75
    endloop
  endfacet
  facet normal 0 1 0
    outer loop
      vertex 31 2 11.75
      vertex 35 2 5.75
      vertex 30 2 11.75
    endloop
  endfacet
  facet normal 0 1 0
    outer loop
      vertex 30 2 11.75
      vertex 35 2 5.75
      vertex 13 2 11.75
    endloop
  endfacet
  facet normal 0 1 0
    outer loop
      vertex 8 2 5.75
      vertex 13 2 11.75
      vertex 35 2 5.75
    endloop
  endfacet
  facet normal 0 1 0
    outer loop
      vertex 13 2 11.75
      vertex 8 2 5.75
      vertex 11.5 2 11.75
    endloop
  endfacet
  facet normal 0 1 0
    outer loop
      vertex 33 2 26.75
      vertex 35 2 5.75
      vertex 33 2 11.75
    endloop
  endfacet
  facet normal 0 1 0
    outer loop
      vertex 30 2 26.75
      vertex 35 2 34.75
      vertex 31 2 26.75
    endloop
  endfacet
  facet normal 0 1 0
    outer loop
      vertex 35 2 34.75
      vertex 30 2 26.75
      vertex 8 2 34.75
    endloop
  endfacet
  facet normal 0 1 -0
    outer loop
      vertex 13 2 26.75
      vertex 8 2 34.75
      vertex 30 2 26.75
    endloop
  endfacet
  facet normal 0 1 -0
    outer loop
      vertex 11.5 2 26.75
      vertex 8 2 34.75
      vertex 13 2 26.75
    endloop
  endfacet
  facet normal 0 1 -0
    outer loop
      vertex 9.5 2 26.75
      vertex 8 2 34.75
      vertex 11.5 2 26.75
    endloop
  endfacet
  facet normal 0 1 0
    outer loop
      vertex 8 2 5.75
      vertex 9.5 2 26.75
      vertex 9.5 2 11.75
    endloop
  endfacet
  facet normal 0 1 0
    outer loop
      vertex 9.5 2 26.75
      vertex 8 2 5.75
      vertex 8 2 34.75
    endloop
  endfacet
  facet normal 0 1 0
    outer loop
      vertex 11.5 2 11.75
      vertex 8 2 5.75
      vertex 9.5 2 11.75
    endloop
  endfacet
  facet normal 1 0 0
    outer loop
      vertex 3.5 15 5.75
      vertex 3.5 11 3.75
      vertex 3.5 15 3.75
    endloop
  endfacet
  facet normal 1 -0 0
    outer loop
      vertex 3.5 5 5.75
      vertex 3.5 11 3.75
      vertex 3.5 15 5.75
    endloop
  endfacet
  facet normal 1 0 0
    outer loop
      vertex 3.5 5 3.75
      vertex 3.5 11 3.75
      vertex 3.5 5 5.75
    endloop
  endfacet
  facet normal 1 0 0
    outer loop
      vertex 3.5 11 3.75
      vertex 3.5 5 3.75
      vertex 3.5 11 3.25
    endloop
  endfacet
  facet normal 1 0 0
    outer loop
      vertex 3.5 11 3.25
      vertex 3.5 5 3.75
      vertex 3.5 5 3.25
    endloop
  endfacet
  facet normal -1 0 0
    outer loop
      vertex 6 11 3.25
      vertex 6 5 3.25
      vertex 6 11 3.75
    endloop
  endfacet
  facet normal -1 0 0
    outer loop
      vertex 6 11 3.75
      vertex 6 15 5.75
      vertex 6 15 3.75
    endloop
  endfacet
  facet normal -1 0 0
    outer loop
      vertex 6 5 3.75
      vertex 6 11 3.75
      vertex 6 5 3.25
    endloop
  endfacet
  facet normal -1 0 0
    outer loop
      vertex 6 5 5.75
      vertex 6 11 3.75
      vertex 6 5 3.75
    endloop
  endfacet
  facet normal -1 0 0
    outer loop
      vertex 6 11 3.75
      vertex 6 5 5.75
      vertex 6 15 5.75
    endloop
  endfacet
  facet normal 0 -1 0
    outer loop
      vertex 3.5 15 3.75
      vertex 6 15 5.75
      vertex 3.5 15 5.75
    endloop
  endfacet
  facet normal 0 -1 -0
    outer loop
      vertex 6 15 5.75
      vertex 3.5 15 3.75
      vertex 6 15 3.75
    endloop
  endfacet
  facet normal -0 0 1
    outer loop
      vertex 3.5 11 3.25
      vertex 6 5 3.25
      vertex 6 11 3.25
    endloop
  endfacet
  facet normal 0 0 1
    outer loop
      vertex 6 5 3.25
      vertex 3.5 11 3.25
      vertex 3.5 5 3.25
    endloop
  endfacet
  facet normal 1 0 0
    outer loop
      vertex 3.5 39 5.75
      vertex 3.5 36 3.75
      vertex 3.5 39 3.75
    endloop
  endfacet
  facet normal 1 0 0
    outer loop
      vertex 3.5 36 3.75
      vertex 3.5 30 3.75
      vertex 3.5 36 3.25
    endloop
  endfacet
  facet normal 1 -0 0
    outer loop
      vertex 3.5 29 5.75
      vertex 3.5 36 3.75
      vertex 3.5 39 5.75
    endloop
  endfacet
  facet normal 1 0 0
    outer loop
      vertex 3.5 36 3.75
      vertex 3.5 29 5.75
      vertex 3.5 30 3.75
    endloop
  endfacet
  facet normal 1 0 0
    outer loop
      vertex 3.5 30 3.75
      vertex 3.5 29 5.75
      vertex 3.5 29 3.75
    endloop
  endfacet
  facet normal 1 0 0
    outer loop
      vertex 3.5 36 3.25
      vertex 3.5 30 3.75
      vertex 3.5 30 3.25
    endloop
  endfacet
  facet normal -1 0 0
    outer loop
      vertex 6 36 3.25
      vertex 6 30 3.25
      vertex 6 36 3.75
    endloop
  endfacet
  facet normal -1 0 0
    outer loop
      vertex 6 36 3.75
      vertex 6 39 5.75
      vertex 6 39 3.75
    endloop
  endfacet
  facet normal -1 0 0
    outer loop
      vertex 6 30 3.75
      vertex 6 36 3.75
      vertex 6 30 3.25
    endloop
  endfacet
  facet normal -1 0 0
    outer loop
      vertex 6 29 5.75
      vertex 6 36 3.75
      vertex 6 30 3.75
    endloop
  endfacet
  facet normal -1 0 0
    outer loop
      vertex 6 29 5.75
      vertex 6 30 3.75
      vertex 6 29 3.75
    endloop
  endfacet
  facet normal -1 0 0
    outer loop
      vertex 6 36 3.75
      vertex 6 29 5.75
      vertex 6 39 5.75
    endloop
  endfacet
  facet normal -0 0 1
    outer loop
      vertex 3.5 36 3.25
      vertex 6 30 3.25
      vertex 6 36 3.25
    endloop
  endfacet
  facet normal 0 0 1
    outer loop
      vertex 6 30 3.25
      vertex 3.5 36 3.25
      vertex 3.5 30 3.25
    endloop
  endfacet
  facet normal 0 1 -0
    outer loop
      vertex 6 29 3.75
      vertex 3.5 29 5.75
      vertex 6 29 5.75
    endloop
  endfacet
  facet normal 0 1 0
    outer loop
      vertex 3.5 29 5.75
      vertex 6 29 3.75
      vertex 3.5 29 3.75
    endloop
  endfacet
  facet normal 0 -1 0
    outer loop
      vertex 3.5 39 3.75
      vertex 6 39 5.75
      vertex 3.5 39 5.75
    endloop
  endfacet
  facet normal 0 -1 -0
    outer loop
      vertex 6 39 5.75
      vertex 3.5 39 3.75
      vertex 6 39 3.75
    endloop
  endfacet
  facet normal 1 0 0
    outer loop
      vertex 37 15 5.75
      vertex 37 11 3.75
      vertex 37 15 3.75
    endloop
  endfacet
  facet normal 1 -0 0
    outer loop
      vertex 37 5 5.75
      vertex 37 11 3.75
      vertex 37 15 5.75
    endloop
  endfacet
  facet normal 1 0 0
    outer loop
      vertex 37 5 3.75
      vertex 37 11 3.75
      vertex 37 5 5.75
    endloop
  endfacet
  facet normal 1 0 0
    outer loop
      vertex 37 11 3.75
      vertex 37 5 3.75
      vertex 37 11 3.25
    endloop
  endfacet
  facet normal 1 0 0
    outer loop
      vertex 37 11 3.25
      vertex 37 5 3.75
      vertex 37 5 3.25
    endloop
  endfacet
  facet normal -1 0 0
    outer loop
      vertex 39.5 11 3.25
      vertex 39.5 5 3.25
      vertex 39.5 11 3.75
    endloop
  endfacet
  facet normal -1 0 0
    outer loop
      vertex 39.5 11 3.75
      vertex 39.5 15 5.75
      vertex 39.5 15 3.75
    endloop
  endfacet
  facet normal -1 0 0
    outer loop
      vertex 39.5 5 3.75
      vertex 39.5 11 3.75
      vertex 39.5 5 3.25
    endloop
  endfacet
  facet normal -1 0 0
    outer loop
      vertex 39.5 5 5.75
      vertex 39.5 11 3.75
      vertex 39.5 5 3.75
    endloop
  endfacet
  facet normal -1 0 0
    outer loop
      vertex 39.5 11 3.75
      vertex 39.5 5 5.75
      vertex 39.5 15 5.75
    endloop
  endfacet
  facet normal 0 -1 0
    outer loop
      vertex 37 15 3.75
      vertex 39.5 15 5.75
      vertex 37 15 5.75
    endloop
  endfacet
  facet normal 0 -1 -0
    outer loop
      vertex 39.5 15 5.75
      vertex 37 15 3.75
      vertex 39.5 15 3.75
    endloop
  endfacet
  facet normal -0 0 1
    outer loop
      vertex 37 11 3.25
      vertex 39.5 5 3.25
      vertex 39.5 11 3.25
    endloop
  endfacet
  facet normal 0 0 1
    outer loop
      vertex 39.5 5 3.25
      vertex 37 11 3.25
      vertex 37 5 3.25
    endloop
  endfacet
  facet normal 1 0 0
    outer loop
      vertex 37 39 5.75
      vertex 37 36 3.75
      vertex 37 39 3.75
    endloop
  endfacet
  facet normal 1 0 0
    outer loop
      vertex 37 36 3.75
      vertex 37 30 3.75
      vertex 37 36 3.25
    endloop
  endfacet
  facet normal 1 -0 0
    outer loop
      vertex 37 29 5.75
      vertex 37 36 3.75
      vertex 37 39 5.75
    endloop
  endfacet
  facet normal 1 0 0
    outer loop
      vertex 37 36 3.75
      vertex 37 29 5.75
      vertex 37 30 3.75
    endloop
  endfacet
  facet normal 1 0 0
    outer loop
      vertex 37 30 3.75
      vertex 37 29 5.75
      vertex 37 29 3.75
    endloop
  endfacet
  facet normal 1 0 0
    outer loop
      vertex 37 36 3.25
      vertex 37 30 3.75
      vertex 37 30 3.25
    endloop
  endfacet
  facet normal -1 0 0
    outer loop
      vertex 39.5 36 3.25
      vertex 39.5 30 3.25
      vertex 39.5 36 3.75
    endloop
  endfacet
  facet normal -1 0 0
    outer loop
      vertex 39.5 36 3.75
      vertex 39.5 39 5.75
      vertex 39.5 39 3.75
    endloop
  endfacet
  facet normal -1 0 0
    outer loop
      vertex 39.5 30 3.75
      vertex 39.5 36 3.75
      vertex 39.5 30 3.25
    endloop
  endfacet
  facet normal -1 0 0
    outer loop
      vertex 39.5 29 5.75
      vertex 39.5 36 3.75
      vertex 39.5 30 3.75
    endloop
  endfacet
  facet normal -1 0 0
    outer loop
      vertex 39.5 29 5.75
      vertex 39.5 30 3.75
      vertex 39.5 29 3.75
    endloop
  endfacet
  facet normal -1 0 0
    outer loop
      vertex 39.5 36 3.75
      vertex 39.5 29 5.75
      vertex 39.5 39 5.75
    endloop
  endfacet
  facet normal 0 -1 0
    outer loop
      vertex 37 39 3.75
      vertex 39.5 39 5.75
      vertex 37 39 5.75
    endloop
  endfacet
  facet normal 0 -1 -0
    outer loop
      vertex 39.5 39 5.75
      vertex 37 39 3.75
      vertex 39.5 39 3.75
    endloop
  endfacet
  facet normal -0 0 1
    outer loop
      vertex 37 36 3.25
      vertex 39.5 30 3.25
      vertex 39.5 36 3.25
    endloop
  endfacet
  facet normal 0 0 1
    outer loop
      vertex 39.5 30 3.25
      vertex 37 36 3.25
      vertex 37 30 3.25
    endloop
  endfacet
  facet normal 0 1 -0
    outer loop
      vertex 39.5 29 3.75
      vertex 37 29 5.75
      vertex 39.5 29 5.75
    endloop
  endfacet
  facet normal 0 1 0
    outer loop
      vertex 37 29 5.75
      vertex 39.5 29 3.75
      vertex 37 29 3.75
    endloop
  endfacet
  facet normal 1 -0 0
    outer loop
      vertex 9.5 0 26.75
      vertex 9.5 2 11.75
      vertex 9.5 2 26.75
    endloop
  endfacet
  facet normal 1 0 0
    outer loop
      vertex 9.5 2 11.75
      vertex 9.5 0 26.75
      vertex 9.5 0 11.75
    endloop
  endfacet
  facet normal 0 0 -1
    outer loop
      vertex 9.5 0 26.75
      vertex 11.5 2 26.75
      vertex 11.5 0 26.75
    endloop
  endfacet
  facet normal -0 0 -1
    outer loop
      vertex 11.5 2 26.75
      vertex 9.5 0 26.75
      vertex 9.5 2 26.75
    endloop
  endfacet
  facet normal -1 0 0
    outer loop
      vertex 11.5 0 11.75
      vertex 11.5 2 26.75
      vertex 11.5 2 11.75
    endloop
  endfacet
  facet normal -1 -0 0
    outer loop
      vertex 11.5 2 26.75
      vertex 11.5 0 11.75
      vertex 11.5 0 26.75
    endloop
  endfacet
  facet normal -0 0 1
    outer loop
      vertex 9.5 2 11.75
      vertex 11.5 0 11.75
      vertex 11.5 2 11.75
    endloop
  endfacet
  facet normal 0 0 1
    outer loop
      vertex 11.5 0 11.75
      vertex 9.5 2 11.75
      vertex 9.5 0 11.75
    endloop
  endfacet
  facet normal 1 -0 0
    outer loop
      vertex 31 0 26.75
      vertex 31 2 11.75
      vertex 31 2 26.75
    endloop
  endfacet
  facet normal 1 0 0
    outer loop
      vertex 31 2 11.75
      vertex 31 0 26.75
      vertex 31 0 11.75
    endloop
  endfacet
  facet normal 0 0 -1
    outer loop
      vertex 31 0 26.75
      vertex 33 2 26.75
      vertex 33 0 26.75
    endloop
  endfacet
  facet normal -0 0 -1
    outer loop
      vertex 33 2 26.75
      vertex 31 0 26.75
      vertex 31 2 26.75
    endloop
  endfacet
  facet normal -1 0 0
    outer loop
      vertex 33 0 11.75
      vertex 33 2 26.75
      vertex 33 2 11.75
    endloop
  endfacet
  facet normal -1 -0 0
    outer loop
      vertex 33 2 26.75
      vertex 33 0 11.75
      vertex 33 0 26.75
    endloop
  endfacet
  facet normal -0 0 1
    outer loop
      vertex 31 2 11.75
      vertex 33 0 11.75
      vertex 33 2 11.75
    endloop
  endfacet
  facet normal 0 0 1
    outer loop
      vertex 33 0 11.75
      vertex 31 2 11.75
      vertex 31 0 11.75
    endloop
  endfacet
  facet normal 1 -0 0
    outer loop
      vertex 13 0 26.75
      vertex 13 2 11.75
      vertex 13 2 26.75
    endloop
  endfacet
  facet normal 1 0 0
    outer loop
      vertex 13 2 11.75
      vertex 13 0 26.75
      vertex 13 0 11.75
    endloop
  endfacet
  facet normal 0 0 -1
    outer loop
      vertex 13 0 26.75
      vertex 30 2 26.75
      vertex 30 0 26.75
    endloop
  endfacet
  facet normal -0 0 -1
    outer loop
      vertex 30 2 26.75
      vertex 13 0 26.75
      vertex 13 2 26.75
    endloop
  endfacet
  facet normal -1 0 0
    outer loop
      vertex 30 0 11.75
      vertex 30 2 26.75
      vertex 30 2 11.75
    endloop
  endfacet
  facet normal -1 -0 0
    outer loop
      vertex 30 2 26.75
      vertex 30 0 11.75
      vertex 30 0 26.75
    endloop
  endfacet
  facet normal -0 0 1
    outer loop
      vertex 13 2 11.75
      vertex 30 0 11.75
      vertex 30 2 11.75
    endloop
  endfacet
  facet normal 0 0 1
    outer loop
      vertex 30 0 11.75
      vertex 13 2 11.75
      vertex 13 0 11.75
    endloop
  endfacet
endsolid OpenSCAD_Model
