solid OpenSCAD_Model
  facet normal -0 0 1
    outer loop
      vertex 0 30 1.6
      vertex 18 0 1.6
      vertex 18 30 1.6
    endloop
  endfacet
  facet normal 0 0 1
    outer loop
      vertex 18 0 1.6
      vertex 0 30 1.6
      vertex 0 0 1.6
    endloop
  endfacet
  facet normal 0 0 -1
    outer loop
      vertex 0 0 0
      vertex 18 30 0
      vertex 18 0 0
    endloop
  endfacet
  facet normal -0 0 -1
    outer loop
      vertex 18 30 0
      vertex 0 0 0
      vertex 0 30 0
    endloop
  endfacet
  facet normal 0 -1 0
    outer loop
      vertex 0 0 0
      vertex 18 0 1.6
      vertex 0 0 1.6
    endloop
  endfacet
  facet normal 0 -1 -0
    outer loop
      vertex 18 0 1.6
      vertex 0 0 0
      vertex 18 0 0
    endloop
  endfacet
  facet normal 1 -0 0
    outer loop
      vertex 18 0 1.6
      vertex 18 30 0
      vertex 18 30 1.6
    endloop
  endfacet
  facet normal 1 0 0
    outer loop
      vertex 18 30 0
      vertex 18 0 1.6
      vertex 18 0 0
    endloop
  endfacet
  facet normal 0 1 -0
    outer loop
      vertex 18 30 0
      vertex 0 30 1.6
      vertex 18 30 1.6
    endloop
  endfacet
  facet normal 0 1 0
    outer loop
      vertex 0 30 1.6
      vertex 18 30 0
      vertex 0 30 0
    endloop
  endfacet
  facet normal -1 0 0
    outer loop
      vertex 0 0 0
      vertex 0 30 1.6
      vertex 0 30 0
    endloop
  endfacet
  facet normal -1 -0 0
    outer loop
      vertex 0 30 1.6
      vertex 0 0 0
      vertex 0 0 1.6
    endloop
  endfacet
endsolid OpenSCAD_Model
