solid OpenSCAD_Model
  facet normal -1 0 0
    outer loop
      vertex 1.25 5.5 1.45
      vertex 1.25 6.6 2.45
      vertex 1.25 6.6 1.45
    endloop
  endfacet
  facet normal -1 -0 0
    outer loop
      vertex 1.25 6.6 2.45
      vertex 1.25 5.5 1.45
      vertex 1.25 5.5 2.45
    endloop
  endfacet
  facet normal 0 1 0
    outer loop
      vertex 18 5.5 2.45
      vertex 16.75 5.5 1.45
      vertex 16.75 5.5 2.45
    endloop
  endfacet
  facet normal 0 1 0
    outer loop
      vertex 18 5.5 0
      vertex 13.75 5.5 1.45
      vertex 16.75 5.5 1.45
    endloop
  endfacet
  facet normal 0 1 0
    outer loop
      vertex 13.75 5.5 1.45
      vertex 18 5.5 0
      vertex 4.25 5.5 1.45
    endloop
  endfacet
  facet normal 0 1 0
    outer loop
      vertex 0 5.5 0
      vertex 4.25 5.5 1.45
      vertex 18 5.5 0
    endloop
  endfacet
  facet normal 0 1 -0
    outer loop
      vertex 18 5.5 0
      vertex 16.75 5.5 1.45
      vertex 18 5.5 2.45
    endloop
  endfacet
  facet normal 0 1 -0
    outer loop
      vertex 13.75 5.5 1.45
      vertex 4.25 5.5 2.45
      vertex 13.75 5.5 2.45
    endloop
  endfacet
  facet normal 0 1 0
    outer loop
      vertex 4.25 5.5 2.45
      vertex 13.75 5.5 1.45
      vertex 4.25 5.5 1.45
    endloop
  endfacet
  facet normal 0 1 -0
    outer loop
      vertex 1.25 5.5 1.45
      vertex 0 5.5 2.45
      vertex 1.25 5.5 2.45
    endloop
  endfacet
  facet normal 0 1 0
    outer loop
      vertex 1.25 5.5 1.45
      vertex 0 5.5 0
      vertex 0 5.5 2.45
    endloop
  endfacet
  facet normal 0 1 0
    outer loop
      vertex 4.25 5.5 1.45
      vertex 0 5.5 0
      vertex 1.25 5.5 1.45
    endloop
  endfacet
  facet normal 1 -0 0
    outer loop
      vertex 4.25 5.5 2.45
      vertex 4.25 6.6 1.45
      vertex 4.25 6.6 2.45
    endloop
  endfacet
  facet normal 1 0 0
    outer loop
      vertex 4.25 6.6 1.45
      vertex 4.25 5.5 2.45
      vertex 4.25 5.5 1.45
    endloop
  endfacet
  facet normal 0 1 -0
    outer loop
      vertex 4.25 6.6 1.45
      vertex 1.25 6.6 2.45
      vertex 4.25 6.6 2.45
    endloop
  endfacet
  facet normal 0 1 0
    outer loop
      vertex 1.25 6.6 2.45
      vertex 4.25 6.6 1.45
      vertex 1.25 6.6 1.45
    endloop
  endfacet
  facet normal 0 0 -1
    outer loop
      vertex 1.25 5.5 1.45
      vertex 4.25 6.6 1.45
      vertex 4.25 5.5 1.45
    endloop
  endfacet
  facet normal -0 0 -1
    outer loop
      vertex 4.25 6.6 1.45
      vertex 1.25 5.5 1.45
      vertex 1.25 6.6 1.45
    endloop
  endfacet
  facet normal 0 0 1
    outer loop
      vertex 1.25 5.5 2.45
      vertex 4.25 5.5 2.45
      vertex 4.25 6.6 2.45
    endloop
  endfacet
  facet normal 0 0 1
    outer loop
      vertex 4.25 5.5 2.45
      vertex 3.93973 2.65663 2.45
      vertex 3.95 2.5 2.45
    endloop
  endfacet
  facet normal 0 0 1
    outer loop
      vertex 4.25 5.5 2.45
      vertex 3.90911 2.81058 2.45
      vertex 3.93973 2.65663 2.45
    endloop
  endfacet
  facet normal 0 0 1
    outer loop
      vertex 4.25 5.5 2.45
      vertex 3.85865 2.95922 2.45
      vertex 3.90911 2.81058 2.45
    endloop
  endfacet
  facet normal 0 0 1
    outer loop
      vertex 4.25 5.5 2.45
      vertex 3.78923 3.1 2.45
      vertex 3.85865 2.95922 2.45
    endloop
  endfacet
  facet normal 0 0 1
    outer loop
      vertex 4.25 5.5 2.45
      vertex 3.70202 3.23051 2.45
      vertex 3.78923 3.1 2.45
    endloop
  endfacet
  facet normal 0 0 1
    outer loop
      vertex 4.25 5.5 2.45
      vertex 3.59853 3.34853 2.45
      vertex 3.70202 3.23051 2.45
    endloop
  endfacet
  facet normal 0 0 1
    outer loop
      vertex 4.25 5.5 2.45
      vertex 3.48051 3.45202 2.45
      vertex 3.59853 3.34853 2.45
    endloop
  endfacet
  facet normal 0 0 1
    outer loop
      vertex 4.25 5.5 2.45
      vertex 3.35 3.53923 2.45
      vertex 3.48051 3.45202 2.45
    endloop
  endfacet
  facet normal 0 0 1
    outer loop
      vertex 4.25 5.5 2.45
      vertex 3.20922 3.60866 2.45
      vertex 3.35 3.53923 2.45
    endloop
  endfacet
  facet normal 0 0 1
    outer loop
      vertex 4.25 5.5 2.45
      vertex 3.06058 3.65911 2.45
      vertex 3.20922 3.60866 2.45
    endloop
  endfacet
  facet normal 0 0 1
    outer loop
      vertex 4.25 5.5 2.45
      vertex 2.90663 3.68973 2.45
      vertex 3.06058 3.65911 2.45
    endloop
  endfacet
  facet normal 0 -0 1
    outer loop
      vertex 2.75 3.7 2.45
      vertex 4.25 5.5 2.45
      vertex 1.25 5.5 2.45
    endloop
  endfacet
  facet normal 0 0 1
    outer loop
      vertex 4.25 5.5 2.45
      vertex 2.75 3.7 2.45
      vertex 2.90663 3.68973 2.45
    endloop
  endfacet
  facet normal 0 0 1
    outer loop
      vertex 2.75 3.7 2.45
      vertex 1.25 5.5 2.45
      vertex 2.59337 3.68973 2.45
    endloop
  endfacet
  facet normal 0 0 1
    outer loop
      vertex 2.59337 3.68973 2.45
      vertex 1.25 5.5 2.45
      vertex 2.43942 3.65911 2.45
    endloop
  endfacet
  facet normal 0 0 1
    outer loop
      vertex 2.43942 3.65911 2.45
      vertex 1.25 5.5 2.45
      vertex 2.29078 3.60866 2.45
    endloop
  endfacet
  facet normal 0 0 1
    outer loop
      vertex 2.29078 3.60866 2.45
      vertex 1.25 5.5 2.45
      vertex 2.15 3.53923 2.45
    endloop
  endfacet
  facet normal 0 0 1
    outer loop
      vertex 2.15 3.53923 2.45
      vertex 1.25 5.5 2.45
      vertex 2.01949 3.45202 2.45
    endloop
  endfacet
  facet normal 0 0 1
    outer loop
      vertex 2.01949 3.45202 2.45
      vertex 1.25 5.5 2.45
      vertex 1.90147 3.34853 2.45
    endloop
  endfacet
  facet normal 0 0 1
    outer loop
      vertex 1.64134 2.95922 2.45
      vertex 0 5.5 2.45
      vertex 1.59089 2.81058 2.45
    endloop
  endfacet
  facet normal 0 0 1
    outer loop
      vertex 1.71077 3.1 2.45
      vertex 0 5.5 2.45
      vertex 1.64134 2.95922 2.45
    endloop
  endfacet
  facet normal 0 0 1
    outer loop
      vertex 1.79798 3.23051 2.45
      vertex 0 5.5 2.45
      vertex 1.71077 3.1 2.45
    endloop
  endfacet
  facet normal -0 0 1
    outer loop
      vertex 0 5.5 2.45
      vertex 1.79798 3.23051 2.45
      vertex 1.25 5.5 2.45
    endloop
  endfacet
  facet normal 0 0 1
    outer loop
      vertex 1.90147 3.34853 2.45
      vertex 1.25 5.5 2.45
      vertex 1.79798 3.23051 2.45
    endloop
  endfacet
  facet normal 0 0 1
    outer loop
      vertex 1.25 5.5 2.45
      vertex 4.25 6.6 2.45
      vertex 1.25 6.6 2.45
    endloop
  endfacet
  facet normal 0 0 1
    outer loop
      vertex 13.75 5.5 2.45
      vertex 16.75 5.5 2.45
      vertex 16.75 6.6 2.45
    endloop
  endfacet
  facet normal 0 0 1
    outer loop
      vertex 16.75 5.5 2.45
      vertex 16.4397 2.65663 2.45
      vertex 16.45 2.5 2.45
    endloop
  endfacet
  facet normal 0 0 1
    outer loop
      vertex 16.75 5.5 2.45
      vertex 16.4091 2.81058 2.45
      vertex 16.4397 2.65663 2.45
    endloop
  endfacet
  facet normal 0 0 1
    outer loop
      vertex 16.75 5.5 2.45
      vertex 16.3587 2.95922 2.45
      vertex 16.4091 2.81058 2.45
    endloop
  endfacet
  facet normal 0 0 1
    outer loop
      vertex 16.75 5.5 2.45
      vertex 16.2892 3.1 2.45
      vertex 16.3587 2.95922 2.45
    endloop
  endfacet
  facet normal 0 0 1
    outer loop
      vertex 16.75 5.5 2.45
      vertex 16.202 3.23051 2.45
      vertex 16.2892 3.1 2.45
    endloop
  endfacet
  facet normal 0 0 1
    outer loop
      vertex 16.75 5.5 2.45
      vertex 16.0985 3.34853 2.45
      vertex 16.202 3.23051 2.45
    endloop
  endfacet
  facet normal 0 0 1
    outer loop
      vertex 16.75 5.5 2.45
      vertex 15.9805 3.45202 2.45
      vertex 16.0985 3.34853 2.45
    endloop
  endfacet
  facet normal 0 0 1
    outer loop
      vertex 16.75 5.5 2.45
      vertex 15.85 3.53923 2.45
      vertex 15.9805 3.45202 2.45
    endloop
  endfacet
  facet normal 0 0 1
    outer loop
      vertex 16.75 5.5 2.45
      vertex 15.7092 3.60866 2.45
      vertex 15.85 3.53923 2.45
    endloop
  endfacet
  facet normal 0 0 1
    outer loop
      vertex 16.75 5.5 2.45
      vertex 15.5606 3.65911 2.45
      vertex 15.7092 3.60866 2.45
    endloop
  endfacet
  facet normal 0 0 1
    outer loop
      vertex 16.75 5.5 2.45
      vertex 15.4066 3.68973 2.45
      vertex 15.5606 3.65911 2.45
    endloop
  endfacet
  facet normal 0 -0 1
    outer loop
      vertex 15.25 3.7 2.45
      vertex 16.75 5.5 2.45
      vertex 13.75 5.5 2.45
    endloop
  endfacet
  facet normal 0 0 1
    outer loop
      vertex 16.75 5.5 2.45
      vertex 15.25 3.7 2.45
      vertex 15.4066 3.68973 2.45
    endloop
  endfacet
  facet normal 0 0 1
    outer loop
      vertex 15.25 3.7 2.45
      vertex 13.75 5.5 2.45
      vertex 15.0934 3.68973 2.45
    endloop
  endfacet
  facet normal 0 0 1
    outer loop
      vertex 15.0934 3.68973 2.45
      vertex 13.75 5.5 2.45
      vertex 14.9394 3.65911 2.45
    endloop
  endfacet
  facet normal 0 0 1
    outer loop
      vertex 14.9394 3.65911 2.45
      vertex 13.75 5.5 2.45
      vertex 14.7908 3.60866 2.45
    endloop
  endfacet
  facet normal 0 0 1
    outer loop
      vertex 14.7908 3.60866 2.45
      vertex 13.75 5.5 2.45
      vertex 14.65 3.53923 2.45
    endloop
  endfacet
  facet normal 0 0 1
    outer loop
      vertex 14.65 3.53923 2.45
      vertex 13.75 5.5 2.45
      vertex 14.5195 3.45202 2.45
    endloop
  endfacet
  facet normal 0 0 1
    outer loop
      vertex 14.5195 3.45202 2.45
      vertex 13.75 5.5 2.45
      vertex 14.4015 3.34853 2.45
    endloop
  endfacet
  facet normal 0 0 1
    outer loop
      vertex 14.0909 2.81058 2.45
      vertex 13.75 5.5 2.45
      vertex 14.0603 2.65663 2.45
    endloop
  endfacet
  facet normal 0 0 1
    outer loop
      vertex 14.1413 2.95922 2.45
      vertex 13.75 5.5 2.45
      vertex 14.0909 2.81058 2.45
    endloop
  endfacet
  facet normal 0 0 1
    outer loop
      vertex 14.2108 3.1 2.45
      vertex 13.75 5.5 2.45
      vertex 14.1413 2.95922 2.45
    endloop
  endfacet
  facet normal 0 0 1
    outer loop
      vertex 14.298 3.23051 2.45
      vertex 13.75 5.5 2.45
      vertex 14.2108 3.1 2.45
    endloop
  endfacet
  facet normal 0 0 1
    outer loop
      vertex 14.4015 3.34853 2.45
      vertex 13.75 5.5 2.45
      vertex 14.298 3.23051 2.45
    endloop
  endfacet
  facet normal 0 0 1
    outer loop
      vertex 13.75 5.5 2.45
      vertex 16.75 6.6 2.45
      vertex 13.75 6.6 2.45
    endloop
  endfacet
  facet normal 0 0 1
    outer loop
      vertex 16.45 2.5 2.45
      vertex 18 5.5 2.45
      vertex 16.75 5.5 2.45
    endloop
  endfacet
  facet normal 0 0 1
    outer loop
      vertex 18 5.5 2.45
      vertex 16.45 2.5 2.45
      vertex 18 0 2.45
    endloop
  endfacet
  facet normal -0 0 1
    outer loop
      vertex 16.4397 2.34337 2.45
      vertex 18 0 2.45
      vertex 16.45 2.5 2.45
    endloop
  endfacet
  facet normal -0 0 1
    outer loop
      vertex 16.4091 2.18942 2.45
      vertex 18 0 2.45
      vertex 16.4397 2.34337 2.45
    endloop
  endfacet
  facet normal -0 0 1
    outer loop
      vertex 16.3587 2.04078 2.45
      vertex 18 0 2.45
      vertex 16.4091 2.18942 2.45
    endloop
  endfacet
  facet normal -0 0 1
    outer loop
      vertex 16.2892 1.9 2.45
      vertex 18 0 2.45
      vertex 16.3587 2.04078 2.45
    endloop
  endfacet
  facet normal -0 0 1
    outer loop
      vertex 16.202 1.76949 2.45
      vertex 18 0 2.45
      vertex 16.2892 1.9 2.45
    endloop
  endfacet
  facet normal -0 0 1
    outer loop
      vertex 16.0985 1.65147 2.45
      vertex 18 0 2.45
      vertex 16.202 1.76949 2.45
    endloop
  endfacet
  facet normal -0 0 1
    outer loop
      vertex 15.9805 1.54798 2.45
      vertex 18 0 2.45
      vertex 16.0985 1.65147 2.45
    endloop
  endfacet
  facet normal -0 0 1
    outer loop
      vertex 15.85 1.46077 2.45
      vertex 18 0 2.45
      vertex 15.9805 1.54798 2.45
    endloop
  endfacet
  facet normal -0 0 1
    outer loop
      vertex 15.7092 1.39135 2.45
      vertex 18 0 2.45
      vertex 15.85 1.46077 2.45
    endloop
  endfacet
  facet normal -0 0 1
    outer loop
      vertex 15.5606 1.34089 2.45
      vertex 18 0 2.45
      vertex 15.7092 1.39135 2.45
    endloop
  endfacet
  facet normal -0 0 1
    outer loop
      vertex 15.4066 1.31027 2.45
      vertex 18 0 2.45
      vertex 15.5606 1.34089 2.45
    endloop
  endfacet
  facet normal -0 0 1
    outer loop
      vertex 15.25 1.3 2.45
      vertex 18 0 2.45
      vertex 15.4066 1.31027 2.45
    endloop
  endfacet
  facet normal 0 0 1
    outer loop
      vertex 15.0934 1.31027 2.45
      vertex 18 0 2.45
      vertex 15.25 1.3 2.45
    endloop
  endfacet
  facet normal 0 0 1
    outer loop
      vertex 14.9394 1.34089 2.45
      vertex 18 0 2.45
      vertex 15.0934 1.31027 2.45
    endloop
  endfacet
  facet normal 0 0 1
    outer loop
      vertex 14.7908 1.39135 2.45
      vertex 18 0 2.45
      vertex 14.9394 1.34089 2.45
    endloop
  endfacet
  facet normal 0 0 1
    outer loop
      vertex 3.95 2.5 2.45
      vertex 14.0603 2.65663 2.45
      vertex 13.75 5.5 2.45
    endloop
  endfacet
  facet normal 0 0 1
    outer loop
      vertex 14.0603 2.65663 2.45
      vertex 3.95 2.5 2.45
      vertex 14.05 2.5 2.45
    endloop
  endfacet
  facet normal 0 0 1
    outer loop
      vertex 3.95 2.5 2.45
      vertex 13.75 5.5 2.45
      vertex 4.25 5.5 2.45
    endloop
  endfacet
  facet normal 0 0 1
    outer loop
      vertex 14.05 2.5 2.45
      vertex 3.95 2.5 2.45
      vertex 14.0603 2.34337 2.45
    endloop
  endfacet
  facet normal 0 0 1
    outer loop
      vertex 3.93973 2.34337 2.45
      vertex 14.0603 2.34337 2.45
      vertex 3.95 2.5 2.45
    endloop
  endfacet
  facet normal 0 0 1
    outer loop
      vertex 14.0603 2.34337 2.45
      vertex 3.93973 2.34337 2.45
      vertex 14.0909 2.18942 2.45
    endloop
  endfacet
  facet normal 0 0 1
    outer loop
      vertex 3.90911 2.18942 2.45
      vertex 14.0909 2.18942 2.45
      vertex 3.93973 2.34337 2.45
    endloop
  endfacet
  facet normal 0 0 1
    outer loop
      vertex 14.0909 2.18942 2.45
      vertex 3.90911 2.18942 2.45
      vertex 14.1413 2.04078 2.45
    endloop
  endfacet
  facet normal 0 0 1
    outer loop
      vertex 3.85865 2.04078 2.45
      vertex 14.1413 2.04078 2.45
      vertex 3.90911 2.18942 2.45
    endloop
  endfacet
  facet normal 0 0 1
    outer loop
      vertex 14.1413 2.04078 2.45
      vertex 3.85865 2.04078 2.45
      vertex 14.2108 1.9 2.45
    endloop
  endfacet
  facet normal 0 0 1
    outer loop
      vertex 3.78923 1.9 2.45
      vertex 14.2108 1.9 2.45
      vertex 3.85865 2.04078 2.45
    endloop
  endfacet
  facet normal 0 0 1
    outer loop
      vertex 14.2108 1.9 2.45
      vertex 3.78923 1.9 2.45
      vertex 14.298 1.76949 2.45
    endloop
  endfacet
  facet normal 0 0 1
    outer loop
      vertex 3.70202 1.76949 2.45
      vertex 14.298 1.76949 2.45
      vertex 3.78923 1.9 2.45
    endloop
  endfacet
  facet normal 0 0 1
    outer loop
      vertex 14.298 1.76949 2.45
      vertex 3.70202 1.76949 2.45
      vertex 14.4015 1.65147 2.45
    endloop
  endfacet
  facet normal 0 0 1
    outer loop
      vertex 3.59853 1.65147 2.45
      vertex 14.4015 1.65147 2.45
      vertex 3.70202 1.76949 2.45
    endloop
  endfacet
  facet normal 0 0 1
    outer loop
      vertex 14.4015 1.65147 2.45
      vertex 3.59853 1.65147 2.45
      vertex 14.5195 1.54798 2.45
    endloop
  endfacet
  facet normal 0 0 1
    outer loop
      vertex 3.48051 1.54798 2.45
      vertex 14.5195 1.54798 2.45
      vertex 3.59853 1.65147 2.45
    endloop
  endfacet
  facet normal 0 0 1
    outer loop
      vertex 14.5195 1.54798 2.45
      vertex 3.48051 1.54798 2.45
      vertex 14.65 1.46077 2.45
    endloop
  endfacet
  facet normal 0 0 1
    outer loop
      vertex 3.35 1.46077 2.45
      vertex 14.65 1.46077 2.45
      vertex 3.48051 1.54798 2.45
    endloop
  endfacet
  facet normal 0 0 1
    outer loop
      vertex 14.65 1.46077 2.45
      vertex 3.35 1.46077 2.45
      vertex 14.7908 1.39135 2.45
    endloop
  endfacet
  facet normal 0 0 1
    outer loop
      vertex 3.20922 1.39135 2.45
      vertex 14.7908 1.39135 2.45
      vertex 3.35 1.46077 2.45
    endloop
  endfacet
  facet normal 0 0 1
    outer loop
      vertex 14.7908 1.39135 2.45
      vertex 3.20922 1.39135 2.45
      vertex 18 0 2.45
    endloop
  endfacet
  facet normal -0 0 1
    outer loop
      vertex 3.06058 1.34089 2.45
      vertex 18 0 2.45
      vertex 3.20922 1.39135 2.45
    endloop
  endfacet
  facet normal 0 0 1
    outer loop
      vertex 0 0 2.45
      vertex 3.06058 1.34089 2.45
      vertex 2.90663 1.31027 2.45
    endloop
  endfacet
  facet normal 0 0 1
    outer loop
      vertex 0 0 2.45
      vertex 2.90663 1.31027 2.45
      vertex 2.75 1.3 2.45
    endloop
  endfacet
  facet normal 0 0 1
    outer loop
      vertex 0 0 2.45
      vertex 2.75 1.3 2.45
      vertex 2.59337 1.31027 2.45
    endloop
  endfacet
  facet normal 0 0 1
    outer loop
      vertex 1.59089 2.81058 2.45
      vertex 0 5.5 2.45
      vertex 1.56027 2.65663 2.45
    endloop
  endfacet
  facet normal 0 0 1
    outer loop
      vertex 1.56027 2.65663 2.45
      vertex 0 5.5 2.45
      vertex 1.55 2.5 2.45
    endloop
  endfacet
  facet normal 0 0 1
    outer loop
      vertex 0 0 2.45
      vertex 1.55 2.5 2.45
      vertex 0 5.5 2.45
    endloop
  endfacet
  facet normal 0 0 1
    outer loop
      vertex 1.55 2.5 2.45
      vertex 0 0 2.45
      vertex 1.56027 2.34337 2.45
    endloop
  endfacet
  facet normal 0 0 1
    outer loop
      vertex 1.56027 2.34337 2.45
      vertex 0 0 2.45
      vertex 1.59089 2.18942 2.45
    endloop
  endfacet
  facet normal 0 0 1
    outer loop
      vertex 3.06058 1.34089 2.45
      vertex 0 0 2.45
      vertex 18 0 2.45
    endloop
  endfacet
  facet normal 0 0 1
    outer loop
      vertex 2.43942 1.34089 2.45
      vertex 0 0 2.45
      vertex 2.59337 1.31027 2.45
    endloop
  endfacet
  facet normal 0 0 1
    outer loop
      vertex 2.29078 1.39135 2.45
      vertex 0 0 2.45
      vertex 2.43942 1.34089 2.45
    endloop
  endfacet
  facet normal 0 0 1
    outer loop
      vertex 2.15 1.46077 2.45
      vertex 0 0 2.45
      vertex 2.29078 1.39135 2.45
    endloop
  endfacet
  facet normal 0 0 1
    outer loop
      vertex 2.01949 1.54798 2.45
      vertex 0 0 2.45
      vertex 2.15 1.46077 2.45
    endloop
  endfacet
  facet normal 0 0 1
    outer loop
      vertex 1.90147 1.65147 2.45
      vertex 0 0 2.45
      vertex 2.01949 1.54798 2.45
    endloop
  endfacet
  facet normal 0 0 1
    outer loop
      vertex 1.79798 1.76949 2.45
      vertex 0 0 2.45
      vertex 1.90147 1.65147 2.45
    endloop
  endfacet
  facet normal 0 0 1
    outer loop
      vertex 1.71077 1.9 2.45
      vertex 0 0 2.45
      vertex 1.79798 1.76949 2.45
    endloop
  endfacet
  facet normal 0 0 1
    outer loop
      vertex 1.64134 2.04078 2.45
      vertex 0 0 2.45
      vertex 1.71077 1.9 2.45
    endloop
  endfacet
  facet normal 0 0 1
    outer loop
      vertex 1.59089 2.18942 2.45
      vertex 0 0 2.45
      vertex 1.64134 2.04078 2.45
    endloop
  endfacet
  facet normal -1 0 0
    outer loop
      vertex 13.75 5.5 1.45
      vertex 13.75 6.6 2.45
      vertex 13.75 6.6 1.45
    endloop
  endfacet
  facet normal -1 -0 0
    outer loop
      vertex 13.75 6.6 2.45
      vertex 13.75 5.5 1.45
      vertex 13.75 5.5 2.45
    endloop
  endfacet
  facet normal 1 -0 0
    outer loop
      vertex 16.75 5.5 2.45
      vertex 16.75 6.6 1.45
      vertex 16.75 6.6 2.45
    endloop
  endfacet
  facet normal 1 0 0
    outer loop
      vertex 16.75 6.6 1.45
      vertex 16.75 5.5 2.45
      vertex 16.75 5.5 1.45
    endloop
  endfacet
  facet normal 0 1 -0
    outer loop
      vertex 16.75 6.6 1.45
      vertex 13.75 6.6 2.45
      vertex 16.75 6.6 2.45
    endloop
  endfacet
  facet normal 0 1 0
    outer loop
      vertex 13.75 6.6 2.45
      vertex 16.75 6.6 1.45
      vertex 13.75 6.6 1.45
    endloop
  endfacet
  facet normal 0 0 -1
    outer loop
      vertex 13.75 5.5 1.45
      vertex 16.75 6.6 1.45
      vertex 16.75 5.5 1.45
    endloop
  endfacet
  facet normal -0 0 -1
    outer loop
      vertex 16.75 6.6 1.45
      vertex 13.75 5.5 1.45
      vertex 13.75 6.6 1.45
    endloop
  endfacet
  facet normal -1 0 0
    outer loop
      vertex 0 0 0
      vertex 0 5.5 2.45
      vertex 0 5.5 0
    endloop
  endfacet
  facet normal -1 -0 0
    outer loop
      vertex 0 5.5 2.45
      vertex 0 0 0
      vertex 0 0 2.45
    endloop
  endfacet
  facet normal 0 -1 0
    outer loop
      vertex 0 0 0
      vertex 18 0 2.45
      vertex 0 0 2.45
    endloop
  endfacet
  facet normal 0 -1 -0
    outer loop
      vertex 18 0 2.45
      vertex 0 0 0
      vertex 18 0 0
    endloop
  endfacet
  facet normal 1 -0 0
    outer loop
      vertex 18 0 2.45
      vertex 18 5.5 0
      vertex 18 5.5 2.45
    endloop
  endfacet
  facet normal 1 0 0
    outer loop
      vertex 18 5.5 0
      vertex 18 0 2.45
      vertex 18 0 0
    endloop
  endfacet
  facet normal 0 0 -1
    outer loop
      vertex 18 0 0
      vertex 16.45 2.5 0
      vertex 18 5.5 0
    endloop
  endfacet
  facet normal 0 0 -1
    outer loop
      vertex 18 0 0
      vertex 16.4397 2.34337 0
      vertex 16.45 2.5 0
    endloop
  endfacet
  facet normal 0 0 -1
    outer loop
      vertex 18 0 0
      vertex 16.4091 2.18942 0
      vertex 16.4397 2.34337 0
    endloop
  endfacet
  facet normal 0 0 -1
    outer loop
      vertex 18 0 0
      vertex 16.3587 2.04078 0
      vertex 16.4091 2.18942 0
    endloop
  endfacet
  facet normal 0 0 -1
    outer loop
      vertex 18 0 0
      vertex 16.2892 1.9 0
      vertex 16.3587 2.04078 0
    endloop
  endfacet
  facet normal 0 0 -1
    outer loop
      vertex 18 0 0
      vertex 16.202 1.76949 0
      vertex 16.2892 1.9 0
    endloop
  endfacet
  facet normal 0 0 -1
    outer loop
      vertex 18 0 0
      vertex 16.0985 1.65147 0
      vertex 16.202 1.76949 0
    endloop
  endfacet
  facet normal 0 0 -1
    outer loop
      vertex 18 0 0
      vertex 15.9805 1.54798 0
      vertex 16.0985 1.65147 0
    endloop
  endfacet
  facet normal 0 0 -1
    outer loop
      vertex 18 0 0
      vertex 15.85 1.46077 0
      vertex 15.9805 1.54798 0
    endloop
  endfacet
  facet normal 0 0 -1
    outer loop
      vertex 18 0 0
      vertex 15.7092 1.39135 0
      vertex 15.85 1.46077 0
    endloop
  endfacet
  facet normal 0 0 -1
    outer loop
      vertex 18 0 0
      vertex 15.5606 1.34089 0
      vertex 15.7092 1.39135 0
    endloop
  endfacet
  facet normal 0 0 -1
    outer loop
      vertex 18 0 0
      vertex 15.4066 1.31027 0
      vertex 15.5606 1.34089 0
    endloop
  endfacet
  facet normal 0 0 -1
    outer loop
      vertex 18 0 0
      vertex 15.25 1.3 0
      vertex 15.4066 1.31027 0
    endloop
  endfacet
  facet normal 0 0 -1
    outer loop
      vertex 18 0 0
      vertex 15.0934 1.31027 0
      vertex 15.25 1.3 0
    endloop
  endfacet
  facet normal 0 0 -1
    outer loop
      vertex 18 0 0
      vertex 14.9394 1.34089 0
      vertex 15.0934 1.31027 0
    endloop
  endfacet
  facet normal 0 0 -1
    outer loop
      vertex 18 0 0
      vertex 14.7908 1.39135 0
      vertex 14.9394 1.34089 0
    endloop
  endfacet
  facet normal 0 0 -1
    outer loop
      vertex 14.0603 2.34337 0
      vertex 3.95 2.5 0
      vertex 14.05 2.5 0
    endloop
  endfacet
  facet normal 0 0 -1
    outer loop
      vertex 3.93973 2.34337 0
      vertex 14.0603 2.34337 0
      vertex 14.0909 2.18942 0
    endloop
  endfacet
  facet normal 0 0 -1
    outer loop
      vertex 3.90911 2.18942 0
      vertex 14.0909 2.18942 0
      vertex 14.1413 2.04078 0
    endloop
  endfacet
  facet normal 0 0 -1
    outer loop
      vertex 3.85865 2.04078 0
      vertex 14.1413 2.04078 0
      vertex 14.2108 1.9 0
    endloop
  endfacet
  facet normal 0 0 -1
    outer loop
      vertex 3.78923 1.9 0
      vertex 14.2108 1.9 0
      vertex 14.298 1.76949 0
    endloop
  endfacet
  facet normal 0 0 -1
    outer loop
      vertex 3.70202 1.76949 0
      vertex 14.298 1.76949 0
      vertex 14.4015 1.65147 0
    endloop
  endfacet
  facet normal 0 0 -1
    outer loop
      vertex 3.59853 1.65147 0
      vertex 14.4015 1.65147 0
      vertex 14.5195 1.54798 0
    endloop
  endfacet
  facet normal 0 0 -1
    outer loop
      vertex 3.48051 1.54798 0
      vertex 14.5195 1.54798 0
      vertex 14.65 1.46077 0
    endloop
  endfacet
  facet normal 0 0 -1
    outer loop
      vertex 3.35 1.46077 0
      vertex 14.65 1.46077 0
      vertex 14.7908 1.39135 0
    endloop
  endfacet
  facet normal 0 0 -1
    outer loop
      vertex 3.20922 1.39135 0
      vertex 14.7908 1.39135 0
      vertex 18 0 0
    endloop
  endfacet
  facet normal 0 0 -1
    outer loop
      vertex 14.0603 2.34337 0
      vertex 3.93973 2.34337 0
      vertex 3.95 2.5 0
    endloop
  endfacet
  facet normal 0 0 -1
    outer loop
      vertex 14.0909 2.18942 0
      vertex 3.90911 2.18942 0
      vertex 3.93973 2.34337 0
    endloop
  endfacet
  facet normal 0 0 -1
    outer loop
      vertex 14.1413 2.04078 0
      vertex 3.85865 2.04078 0
      vertex 3.90911 2.18942 0
    endloop
  endfacet
  facet normal 0 0 -1
    outer loop
      vertex 14.2108 1.9 0
      vertex 3.78923 1.9 0
      vertex 3.85865 2.04078 0
    endloop
  endfacet
  facet normal 0 0 -1
    outer loop
      vertex 14.298 1.76949 0
      vertex 3.70202 1.76949 0
      vertex 3.78923 1.9 0
    endloop
  endfacet
  facet normal 0 0 -1
    outer loop
      vertex 14.4015 1.65147 0
      vertex 3.59853 1.65147 0
      vertex 3.70202 1.76949 0
    endloop
  endfacet
  facet normal 0 0 -1
    outer loop
      vertex 14.5195 1.54798 0
      vertex 3.48051 1.54798 0
      vertex 3.59853 1.65147 0
    endloop
  endfacet
  facet normal 0 0 -1
    outer loop
      vertex 14.65 1.46077 0
      vertex 3.35 1.46077 0
      vertex 3.48051 1.54798 0
    endloop
  endfacet
  facet normal 0 0 -1
    outer loop
      vertex 14.7908 1.39135 0
      vertex 3.20922 1.39135 0
      vertex 3.35 1.46077 0
    endloop
  endfacet
  facet normal 0 0 -1
    outer loop
      vertex 18 0 0
      vertex 3.06058 1.34089 0
      vertex 3.20922 1.39135 0
    endloop
  endfacet
  facet normal 0 0 -1
    outer loop
      vertex 0 0 0
      vertex 3.06058 1.34089 0
      vertex 18 0 0
    endloop
  endfacet
  facet normal 0 0 -1
    outer loop
      vertex 3.06058 1.34089 0
      vertex 0 0 0
      vertex 2.90663 1.31027 0
    endloop
  endfacet
  facet normal 0 0 -1
    outer loop
      vertex 2.90663 1.31027 0
      vertex 0 0 0
      vertex 2.75 1.3 0
    endloop
  endfacet
  facet normal -0 0 -1
    outer loop
      vertex 1.56027 2.34337 0
      vertex 0 0 0
      vertex 1.55 2.5 0
    endloop
  endfacet
  facet normal -0 0 -1
    outer loop
      vertex 1.59089 2.18942 0
      vertex 0 0 0
      vertex 1.56027 2.34337 0
    endloop
  endfacet
  facet normal -0 0 -1
    outer loop
      vertex 1.64134 2.04078 0
      vertex 0 0 0
      vertex 1.59089 2.18942 0
    endloop
  endfacet
  facet normal -0 0 -1
    outer loop
      vertex 1.71077 1.9 0
      vertex 0 0 0
      vertex 1.64134 2.04078 0
    endloop
  endfacet
  facet normal -0 0 -1
    outer loop
      vertex 1.79798 1.76949 0
      vertex 0 0 0
      vertex 1.71077 1.9 0
    endloop
  endfacet
  facet normal -0 0 -1
    outer loop
      vertex 1.90147 1.65147 0
      vertex 0 0 0
      vertex 1.79798 1.76949 0
    endloop
  endfacet
  facet normal -0 0 -1
    outer loop
      vertex 2.01949 1.54798 0
      vertex 0 0 0
      vertex 1.90147 1.65147 0
    endloop
  endfacet
  facet normal -0 0 -1
    outer loop
      vertex 2.15 1.46077 0
      vertex 0 0 0
      vertex 2.01949 1.54798 0
    endloop
  endfacet
  facet normal -0 0 -1
    outer loop
      vertex 2.29078 1.39135 0
      vertex 0 0 0
      vertex 2.15 1.46077 0
    endloop
  endfacet
  facet normal -0 0 -1
    outer loop
      vertex 2.43942 1.34089 0
      vertex 0 0 0
      vertex 2.29078 1.39135 0
    endloop
  endfacet
  facet normal -0 0 -1
    outer loop
      vertex 2.59337 1.31027 0
      vertex 0 0 0
      vertex 2.43942 1.34089 0
    endloop
  endfacet
  facet normal -0 0 -1
    outer loop
      vertex 2.75 1.3 0
      vertex 0 0 0
      vertex 2.59337 1.31027 0
    endloop
  endfacet
  facet normal 0 0 -1
    outer loop
      vertex 16.4397 2.65663 0
      vertex 18 5.5 0
      vertex 16.45 2.5 0
    endloop
  endfacet
  facet normal 0 0 -1
    outer loop
      vertex 16.4091 2.81058 0
      vertex 18 5.5 0
      vertex 16.4397 2.65663 0
    endloop
  endfacet
  facet normal 0 0 -1
    outer loop
      vertex 16.3587 2.95922 0
      vertex 18 5.5 0
      vertex 16.4091 2.81058 0
    endloop
  endfacet
  facet normal 0 0 -1
    outer loop
      vertex 16.2892 3.1 0
      vertex 18 5.5 0
      vertex 16.3587 2.95922 0
    endloop
  endfacet
  facet normal 0 0 -1
    outer loop
      vertex 16.202 3.23051 0
      vertex 18 5.5 0
      vertex 16.2892 3.1 0
    endloop
  endfacet
  facet normal 0 0 -1
    outer loop
      vertex 16.0985 3.34853 0
      vertex 18 5.5 0
      vertex 16.202 3.23051 0
    endloop
  endfacet
  facet normal 0 0 -1
    outer loop
      vertex 15.9805 3.45202 0
      vertex 18 5.5 0
      vertex 16.0985 3.34853 0
    endloop
  endfacet
  facet normal 0 0 -1
    outer loop
      vertex 15.85 3.53923 0
      vertex 18 5.5 0
      vertex 15.9805 3.45202 0
    endloop
  endfacet
  facet normal 0 0 -1
    outer loop
      vertex 15.7092 3.60866 0
      vertex 18 5.5 0
      vertex 15.85 3.53923 0
    endloop
  endfacet
  facet normal 0 0 -1
    outer loop
      vertex 15.5606 3.65911 0
      vertex 18 5.5 0
      vertex 15.7092 3.60866 0
    endloop
  endfacet
  facet normal 0 0 -1
    outer loop
      vertex 15.4066 3.68973 0
      vertex 18 5.5 0
      vertex 15.5606 3.65911 0
    endloop
  endfacet
  facet normal 0 0 -1
    outer loop
      vertex 15.25 3.7 0
      vertex 18 5.5 0
      vertex 15.4066 3.68973 0
    endloop
  endfacet
  facet normal 0 0 -1
    outer loop
      vertex 15.0934 3.68973 0
      vertex 18 5.5 0
      vertex 15.25 3.7 0
    endloop
  endfacet
  facet normal 0 0 -1
    outer loop
      vertex 14.9394 3.65911 0
      vertex 18 5.5 0
      vertex 15.0934 3.68973 0
    endloop
  endfacet
  facet normal 0 0 -1
    outer loop
      vertex 14.7908 3.60866 0
      vertex 18 5.5 0
      vertex 14.9394 3.65911 0
    endloop
  endfacet
  facet normal 0 0 -1
    outer loop
      vertex 3.20922 3.60866 0
      vertex 14.7908 3.60866 0
      vertex 14.65 3.53923 0
    endloop
  endfacet
  facet normal 0 0 -1
    outer loop
      vertex 3.95 2.5 0
      vertex 14.0603 2.65663 0
      vertex 14.05 2.5 0
    endloop
  endfacet
  facet normal 0 0 -1
    outer loop
      vertex 3.93973 2.65663 0
      vertex 14.0603 2.65663 0
      vertex 3.95 2.5 0
    endloop
  endfacet
  facet normal 0 0 -1
    outer loop
      vertex 14.0603 2.65663 0
      vertex 3.93973 2.65663 0
      vertex 14.0909 2.81058 0
    endloop
  endfacet
  facet normal 0 0 -1
    outer loop
      vertex 3.90911 2.81058 0
      vertex 14.0909 2.81058 0
      vertex 3.93973 2.65663 0
    endloop
  endfacet
  facet normal 0 0 -1
    outer loop
      vertex 14.0909 2.81058 0
      vertex 3.90911 2.81058 0
      vertex 14.1413 2.95922 0
    endloop
  endfacet
  facet normal 0 0 -1
    outer loop
      vertex 3.85865 2.95922 0
      vertex 14.1413 2.95922 0
      vertex 3.90911 2.81058 0
    endloop
  endfacet
  facet normal 0 0 -1
    outer loop
      vertex 14.1413 2.95922 0
      vertex 3.85865 2.95922 0
      vertex 14.2108 3.1 0
    endloop
  endfacet
  facet normal 0 0 -1
    outer loop
      vertex 3.78923 3.1 0
      vertex 14.2108 3.1 0
      vertex 3.85865 2.95922 0
    endloop
  endfacet
  facet normal 0 0 -1
    outer loop
      vertex 14.2108 3.1 0
      vertex 3.78923 3.1 0
      vertex 14.298 3.23051 0
    endloop
  endfacet
  facet normal 0 0 -1
    outer loop
      vertex 3.70202 3.23051 0
      vertex 14.298 3.23051 0
      vertex 3.78923 3.1 0
    endloop
  endfacet
  facet normal 0 0 -1
    outer loop
      vertex 14.298 3.23051 0
      vertex 3.70202 3.23051 0
      vertex 14.4015 3.34853 0
    endloop
  endfacet
  facet normal 0 0 -1
    outer loop
      vertex 3.59853 3.34853 0
      vertex 14.4015 3.34853 0
      vertex 3.70202 3.23051 0
    endloop
  endfacet
  facet normal 0 0 -1
    outer loop
      vertex 14.4015 3.34853 0
      vertex 3.59853 3.34853 0
      vertex 14.5195 3.45202 0
    endloop
  endfacet
  facet normal 0 0 -1
    outer loop
      vertex 3.48051 3.45202 0
      vertex 14.5195 3.45202 0
      vertex 3.59853 3.34853 0
    endloop
  endfacet
  facet normal 0 0 -1
    outer loop
      vertex 14.5195 3.45202 0
      vertex 3.48051 3.45202 0
      vertex 14.65 3.53923 0
    endloop
  endfacet
  facet normal 0 0 -1
    outer loop
      vertex 3.35 3.53923 0
      vertex 14.65 3.53923 0
      vertex 3.48051 3.45202 0
    endloop
  endfacet
  facet normal 0 0 -1
    outer loop
      vertex 3.20922 3.60866 0
      vertex 14.65 3.53923 0
      vertex 3.35 3.53923 0
    endloop
  endfacet
  facet normal 0 0 -1
    outer loop
      vertex 14.7908 3.60866 0
      vertex 3.20922 3.60866 0
      vertex 18 5.5 0
    endloop
  endfacet
  facet normal 0 0 -1
    outer loop
      vertex 0 5.5 0
      vertex 3.20922 3.60866 0
      vertex 3.06058 3.65911 0
    endloop
  endfacet
  facet normal 0 0 -1
    outer loop
      vertex 0 5.5 0
      vertex 3.06058 3.65911 0
      vertex 2.90663 3.68973 0
    endloop
  endfacet
  facet normal 0 0 -1
    outer loop
      vertex 0 5.5 0
      vertex 2.90663 3.68973 0
      vertex 2.75 3.7 0
    endloop
  endfacet
  facet normal 0 0 -1
    outer loop
      vertex 0 5.5 0
      vertex 2.75 3.7 0
      vertex 2.59337 3.68973 0
    endloop
  endfacet
  facet normal 0 0 -1
    outer loop
      vertex 0 5.5 0
      vertex 1.55 2.5 0
      vertex 0 0 0
    endloop
  endfacet
  facet normal 0 0 -1
    outer loop
      vertex 1.55 2.5 0
      vertex 0 5.5 0
      vertex 1.56027 2.65663 0
    endloop
  endfacet
  facet normal 0 0 -1
    outer loop
      vertex 1.56027 2.65663 0
      vertex 0 5.5 0
      vertex 1.59089 2.81058 0
    endloop
  endfacet
  facet normal 0 0 -1
    outer loop
      vertex 1.59089 2.81058 0
      vertex 0 5.5 0
      vertex 1.64134 2.95922 0
    endloop
  endfacet
  facet normal 0 0 -1
    outer loop
      vertex 3.20922 3.60866 0
      vertex 0 5.5 0
      vertex 18 5.5 0
    endloop
  endfacet
  facet normal 0 0 -1
    outer loop
      vertex 2.43942 3.65911 0
      vertex 0 5.5 0
      vertex 2.59337 3.68973 0
    endloop
  endfacet
  facet normal 0 0 -1
    outer loop
      vertex 2.29078 3.60866 0
      vertex 0 5.5 0
      vertex 2.43942 3.65911 0
    endloop
  endfacet
  facet normal 0 0 -1
    outer loop
      vertex 2.15 3.53923 0
      vertex 0 5.5 0
      vertex 2.29078 3.60866 0
    endloop
  endfacet
  facet normal 0 0 -1
    outer loop
      vertex 2.01949 3.45202 0
      vertex 0 5.5 0
      vertex 2.15 3.53923 0
    endloop
  endfacet
  facet normal 0 0 -1
    outer loop
      vertex 1.90147 3.34853 0
      vertex 0 5.5 0
      vertex 2.01949 3.45202 0
    endloop
  endfacet
  facet normal 0 0 -1
    outer loop
      vertex 1.79798 3.23051 0
      vertex 0 5.5 0
      vertex 1.90147 3.34853 0
    endloop
  endfacet
  facet normal 0 0 -1
    outer loop
      vertex 1.71077 3.1 0
      vertex 0 5.5 0
      vertex 1.79798 3.23051 0
    endloop
  endfacet
  facet normal 0 0 -1
    outer loop
      vertex 1.64134 2.95922 0
      vertex 0 5.5 0
      vertex 1.71077 3.1 0
    endloop
  endfacet
  facet normal -0.659307 -0.751874 0
    outer loop
      vertex 3.48051 3.45202 0
      vertex 3.59853 3.34853 2.45
      vertex 3.48051 3.45202 2.45
    endloop
  endfacet
  facet normal -0.659307 -0.751874 -0
    outer loop
      vertex 3.59853 3.34853 2.45
      vertex 3.48051 3.45202 0
      vertex 3.59853 3.34853 0
    endloop
  endfacet
  facet normal 0.321402 -0.946943 0
    outer loop
      vertex 2.29078 3.60866 0
      vertex 2.43942 3.65911 2.45
      vertex 2.29078 3.60866 2.45
    endloop
  endfacet
  facet normal 0.321402 -0.946943 0
    outer loop
      vertex 2.43942 3.65911 2.45
      vertex 2.29078 3.60866 0
      vertex 2.43942 3.65911 0
    endloop
  endfacet
  facet normal 0.89686 -0.442314 0
    outer loop
      vertex 1.64134 2.95922 2.45
      vertex 1.71077 3.1 0
      vertex 1.71077 3.1 2.45
    endloop
  endfacet
  facet normal 0.89686 -0.442314 0
    outer loop
      vertex 1.71077 3.1 0
      vertex 1.64134 2.95922 2.45
      vertex 1.64134 2.95922 0
    endloop
  endfacet
  facet normal 0.946943 0.321402 0
    outer loop
      vertex 1.64134 2.04078 2.45
      vertex 1.59089 2.18942 0
      vertex 1.59089 2.18942 2.45
    endloop
  endfacet
  facet normal 0.946943 0.321402 0
    outer loop
      vertex 1.59089 2.18942 0
      vertex 1.64134 2.04078 2.45
      vertex 1.64134 2.04078 0
    endloop
  endfacet
  facet normal -0.896885 -0.442263 0
    outer loop
      vertex 3.85865 2.95922 0
      vertex 3.78923 3.1 2.45
      vertex 3.78923 3.1 0
    endloop
  endfacet
  facet normal -0.896885 -0.442263 0
    outer loop
      vertex 3.78923 3.1 2.45
      vertex 3.85865 2.95922 0
      vertex 3.85865 2.95922 2.45
    endloop
  endfacet
  facet normal -0.831452 -0.555597 0
    outer loop
      vertex 3.78923 3.1 0
      vertex 3.70202 3.23051 2.45
      vertex 3.70202 3.23051 0
    endloop
  endfacet
  facet normal -0.831452 -0.555597 0
    outer loop
      vertex 3.70202 3.23051 2.45
      vertex 3.78923 3.1 0
      vertex 3.78923 3.1 2.45
    endloop
  endfacet
  facet normal -0.751874 -0.659307 0
    outer loop
      vertex 3.70202 3.23051 0
      vertex 3.59853 3.34853 2.45
      vertex 3.59853 3.34853 0
    endloop
  endfacet
  facet normal -0.751874 -0.659307 0
    outer loop
      vertex 3.59853 3.34853 2.45
      vertex 3.70202 3.23051 0
      vertex 3.70202 3.23051 2.45
    endloop
  endfacet
  facet normal -0.442314 -0.89686 0
    outer loop
      vertex 3.20922 3.60866 0
      vertex 3.35 3.53923 2.45
      vertex 3.20922 3.60866 2.45
    endloop
  endfacet
  facet normal -0.442314 -0.89686 -0
    outer loop
      vertex 3.35 3.53923 2.45
      vertex 3.20922 3.60866 0
      vertex 3.35 3.53923 0
    endloop
  endfacet
  facet normal -0.065428 -0.997857 0
    outer loop
      vertex 2.75 3.7 0
      vertex 2.90663 3.68973 2.45
      vertex 2.75 3.7 2.45
    endloop
  endfacet
  facet normal -0.065428 -0.997857 -0
    outer loop
      vertex 2.90663 3.68973 2.45
      vertex 2.75 3.7 0
      vertex 2.90663 3.68973 0
    endloop
  endfacet
  facet normal 0.997857 -0.065428 0
    outer loop
      vertex 1.55 2.5 2.45
      vertex 1.56027 2.65663 0
      vertex 1.56027 2.65663 2.45
    endloop
  endfacet
  facet normal 0.997857 -0.065428 0
    outer loop
      vertex 1.56027 2.65663 0
      vertex 1.55 2.5 2.45
      vertex 1.55 2.5 0
    endloop
  endfacet
  facet normal 0.751874 -0.659307 0
    outer loop
      vertex 1.79798 3.23051 2.45
      vertex 1.90147 3.34853 0
      vertex 1.90147 3.34853 2.45
    endloop
  endfacet
  facet normal 0.751874 -0.659307 0
    outer loop
      vertex 1.90147 3.34853 0
      vertex 1.79798 3.23051 2.45
      vertex 1.79798 3.23051 0
    endloop
  endfacet
  facet normal 0.442314 -0.89686 0
    outer loop
      vertex 2.15 3.53923 0
      vertex 2.29078 3.60866 2.45
      vertex 2.15 3.53923 2.45
    endloop
  endfacet
  facet normal 0.442314 -0.89686 0
    outer loop
      vertex 2.29078 3.60866 2.45
      vertex 2.15 3.53923 0
      vertex 2.29078 3.60866 0
    endloop
  endfacet
  facet normal 0.065428 -0.997857 0
    outer loop
      vertex 2.59337 3.68973 0
      vertex 2.75 3.7 2.45
      vertex 2.59337 3.68973 2.45
    endloop
  endfacet
  facet normal 0.065428 -0.997857 0
    outer loop
      vertex 2.75 3.7 2.45
      vertex 2.59337 3.68973 0
      vertex 2.75 3.7 0
    endloop
  endfacet
  facet normal -0.997857 0.065428 0
    outer loop
      vertex 3.93973 2.34337 0
      vertex 3.95 2.5 2.45
      vertex 3.95 2.5 0
    endloop
  endfacet
  facet normal -0.997857 0.065428 0
    outer loop
      vertex 3.95 2.5 2.45
      vertex 3.93973 2.34337 0
      vertex 3.93973 2.34337 2.45
    endloop
  endfacet
  facet normal -0.065428 0.997857 0
    outer loop
      vertex 2.90663 1.31027 0
      vertex 2.75 1.3 2.45
      vertex 2.90663 1.31027 2.45
    endloop
  endfacet
  facet normal -0.065428 0.997857 0
    outer loop
      vertex 2.75 1.3 2.45
      vertex 2.90663 1.31027 0
      vertex 2.75 1.3 0
    endloop
  endfacet
  facet normal -0.32146 0.946923 0
    outer loop
      vertex 3.20922 1.39135 0
      vertex 3.06058 1.34089 2.45
      vertex 3.20922 1.39135 2.45
    endloop
  endfacet
  facet normal -0.32146 0.946923 0
    outer loop
      vertex 3.06058 1.34089 2.45
      vertex 3.20922 1.39135 0
      vertex 3.06058 1.34089 0
    endloop
  endfacet
  facet normal -0.442263 0.896885 0
    outer loop
      vertex 3.35 1.46077 0
      vertex 3.20922 1.39135 2.45
      vertex 3.35 1.46077 2.45
    endloop
  endfacet
  facet normal -0.442263 0.896885 0
    outer loop
      vertex 3.20922 1.39135 2.45
      vertex 3.35 1.46077 0
      vertex 3.20922 1.39135 0
    endloop
  endfacet
  facet normal -0.751874 0.659307 0
    outer loop
      vertex 3.59853 1.65147 0
      vertex 3.70202 1.76949 2.45
      vertex 3.70202 1.76949 0
    endloop
  endfacet
  facet normal -0.751874 0.659307 0
    outer loop
      vertex 3.70202 1.76949 2.45
      vertex 3.59853 1.65147 0
      vertex 3.59853 1.65147 2.45
    endloop
  endfacet
  facet normal 0.065428 0.997857 -0
    outer loop
      vertex 2.75 1.3 0
      vertex 2.59337 1.31027 2.45
      vertex 2.75 1.3 2.45
    endloop
  endfacet
  facet normal 0.065428 0.997857 0
    outer loop
      vertex 2.59337 1.31027 2.45
      vertex 2.75 1.3 0
      vertex 2.59337 1.31027 0
    endloop
  endfacet
  facet normal 0.659307 0.751874 -0
    outer loop
      vertex 2.01949 1.54798 0
      vertex 1.90147 1.65147 2.45
      vertex 2.01949 1.54798 2.45
    endloop
  endfacet
  facet normal 0.659307 0.751874 0
    outer loop
      vertex 1.90147 1.65147 2.45
      vertex 2.01949 1.54798 0
      vertex 1.90147 1.65147 0
    endloop
  endfacet
  facet normal 0.89686 0.442314 0
    outer loop
      vertex 1.71077 1.9 2.45
      vertex 1.64134 2.04078 0
      vertex 1.64134 2.04078 2.45
    endloop
  endfacet
  facet normal 0.89686 0.442314 0
    outer loop
      vertex 1.64134 2.04078 0
      vertex 1.71077 1.9 2.45
      vertex 1.71077 1.9 0
    endloop
  endfacet
  facet normal 0.997857 0.065428 0
    outer loop
      vertex 1.56027 2.34337 2.45
      vertex 1.55 2.5 0
      vertex 1.55 2.5 2.45
    endloop
  endfacet
  facet normal 0.997857 0.065428 0
    outer loop
      vertex 1.55 2.5 0
      vertex 1.56027 2.34337 2.45
      vertex 1.56027 2.34337 0
    endloop
  endfacet
  facet normal -0.946923 -0.32146 0
    outer loop
      vertex 3.90911 2.81058 0
      vertex 3.85865 2.95922 2.45
      vertex 3.85865 2.95922 0
    endloop
  endfacet
  facet normal -0.946923 -0.32146 0
    outer loop
      vertex 3.85865 2.95922 2.45
      vertex 3.90911 2.81058 0
      vertex 3.90911 2.81058 2.45
    endloop
  endfacet
  facet normal -0.555597 -0.831452 0
    outer loop
      vertex 3.35 3.53923 0
      vertex 3.48051 3.45202 2.45
      vertex 3.35 3.53923 2.45
    endloop
  endfacet
  facet normal -0.555597 -0.831452 -0
    outer loop
      vertex 3.48051 3.45202 2.45
      vertex 3.35 3.53923 0
      vertex 3.48051 3.45202 0
    endloop
  endfacet
  facet normal -0.321402 -0.946943 0
    outer loop
      vertex 3.06058 3.65911 0
      vertex 3.20922 3.60866 2.45
      vertex 3.06058 3.65911 2.45
    endloop
  endfacet
  facet normal -0.321402 -0.946943 -0
    outer loop
      vertex 3.20922 3.60866 2.45
      vertex 3.06058 3.65911 0
      vertex 3.20922 3.60866 0
    endloop
  endfacet
  facet normal -0.195075 -0.980788 0
    outer loop
      vertex 2.90663 3.68973 0
      vertex 3.06058 3.65911 2.45
      vertex 2.90663 3.68973 2.45
    endloop
  endfacet
  facet normal -0.195075 -0.980788 -0
    outer loop
      vertex 3.06058 3.65911 2.45
      vertex 2.90663 3.68973 0
      vertex 3.06058 3.65911 0
    endloop
  endfacet
  facet normal 0.946943 -0.321402 0
    outer loop
      vertex 1.59089 2.81058 2.45
      vertex 1.64134 2.95922 0
      vertex 1.64134 2.95922 2.45
    endloop
  endfacet
  facet normal 0.946943 -0.321402 0
    outer loop
      vertex 1.64134 2.95922 0
      vertex 1.59089 2.81058 2.45
      vertex 1.59089 2.81058 0
    endloop
  endfacet
  facet normal 0.980788 -0.195075 0
    outer loop
      vertex 1.56027 2.65663 2.45
      vertex 1.59089 2.81058 0
      vertex 1.59089 2.81058 2.45
    endloop
  endfacet
  facet normal 0.980788 -0.195075 0
    outer loop
      vertex 1.59089 2.81058 0
      vertex 1.56027 2.65663 2.45
      vertex 1.56027 2.65663 0
    endloop
  endfacet
  facet normal 0.831452 -0.555597 0
    outer loop
      vertex 1.71077 3.1 2.45
      vertex 1.79798 3.23051 0
      vertex 1.79798 3.23051 2.45
    endloop
  endfacet
  facet normal 0.831452 -0.555597 0
    outer loop
      vertex 1.79798 3.23051 0
      vertex 1.71077 3.1 2.45
      vertex 1.71077 3.1 0
    endloop
  endfacet
  facet normal 0.195075 -0.980788 0
    outer loop
      vertex 2.43942 3.65911 0
      vertex 2.59337 3.68973 2.45
      vertex 2.43942 3.65911 2.45
    endloop
  endfacet
  facet normal 0.195075 -0.980788 0
    outer loop
      vertex 2.59337 3.68973 2.45
      vertex 2.43942 3.65911 0
      vertex 2.59337 3.68973 0
    endloop
  endfacet
  facet normal 0.555597 -0.831452 0
    outer loop
      vertex 2.01949 3.45202 0
      vertex 2.15 3.53923 2.45
      vertex 2.01949 3.45202 2.45
    endloop
  endfacet
  facet normal 0.555597 -0.831452 0
    outer loop
      vertex 2.15 3.53923 2.45
      vertex 2.01949 3.45202 0
      vertex 2.15 3.53923 0
    endloop
  endfacet
  facet normal 0.659307 -0.751874 0
    outer loop
      vertex 1.90147 3.34853 0
      vertex 2.01949 3.45202 2.45
      vertex 1.90147 3.34853 2.45
    endloop
  endfacet
  facet normal 0.659307 -0.751874 0
    outer loop
      vertex 2.01949 3.45202 2.45
      vertex 1.90147 3.34853 0
      vertex 2.01949 3.45202 0
    endloop
  endfacet
  facet normal -0.997857 -0.065428 0
    outer loop
      vertex 3.95 2.5 0
      vertex 3.93973 2.65663 2.45
      vertex 3.93973 2.65663 0
    endloop
  endfacet
  facet normal -0.997857 -0.065428 0
    outer loop
      vertex 3.93973 2.65663 2.45
      vertex 3.95 2.5 0
      vertex 3.95 2.5 2.45
    endloop
  endfacet
  facet normal -0.195075 0.980788 0
    outer loop
      vertex 3.06058 1.34089 0
      vertex 2.90663 1.31027 2.45
      vertex 3.06058 1.34089 2.45
    endloop
  endfacet
  facet normal -0.195075 0.980788 0
    outer loop
      vertex 2.90663 1.31027 2.45
      vertex 3.06058 1.34089 0
      vertex 2.90663 1.31027 0
    endloop
  endfacet
  facet normal -0.555597 0.831452 0
    outer loop
      vertex 3.48051 1.54798 0
      vertex 3.35 1.46077 2.45
      vertex 3.48051 1.54798 2.45
    endloop
  endfacet
  facet normal -0.555597 0.831452 0
    outer loop
      vertex 3.35 1.46077 2.45
      vertex 3.48051 1.54798 0
      vertex 3.35 1.46077 0
    endloop
  endfacet
  facet normal -0.896885 0.442263 0
    outer loop
      vertex 3.78923 1.9 0
      vertex 3.85865 2.04078 2.45
      vertex 3.85865 2.04078 0
    endloop
  endfacet
  facet normal -0.896885 0.442263 0
    outer loop
      vertex 3.85865 2.04078 2.45
      vertex 3.78923 1.9 0
      vertex 3.78923 1.9 2.45
    endloop
  endfacet
  facet normal 0.32146 0.946923 -0
    outer loop
      vertex 2.43942 1.34089 0
      vertex 2.29078 1.39135 2.45
      vertex 2.43942 1.34089 2.45
    endloop
  endfacet
  facet normal 0.32146 0.946923 0
    outer loop
      vertex 2.29078 1.39135 2.45
      vertex 2.43942 1.34089 0
      vertex 2.29078 1.39135 0
    endloop
  endfacet
  facet normal 0.442263 0.896885 -0
    outer loop
      vertex 2.29078 1.39135 0
      vertex 2.15 1.46077 2.45
      vertex 2.29078 1.39135 2.45
    endloop
  endfacet
  facet normal 0.442263 0.896885 0
    outer loop
      vertex 2.15 1.46077 2.45
      vertex 2.29078 1.39135 0
      vertex 2.15 1.46077 0
    endloop
  endfacet
  facet normal 0.980788 0.195075 0
    outer loop
      vertex 1.59089 2.18942 2.45
      vertex 1.56027 2.34337 0
      vertex 1.56027 2.34337 2.45
    endloop
  endfacet
  facet normal 0.980788 0.195075 0
    outer loop
      vertex 1.56027 2.34337 0
      vertex 1.59089 2.18942 2.45
      vertex 1.59089 2.18942 0
    endloop
  endfacet
  facet normal 0.831452 0.555597 0
    outer loop
      vertex 1.79798 1.76949 2.45
      vertex 1.71077 1.9 0
      vertex 1.71077 1.9 2.45
    endloop
  endfacet
  facet normal 0.831452 0.555597 0
    outer loop
      vertex 1.71077 1.9 0
      vertex 1.79798 1.76949 2.45
      vertex 1.79798 1.76949 0
    endloop
  endfacet
  facet normal -0.980788 -0.195075 0
    outer loop
      vertex 3.93973 2.65663 0
      vertex 3.90911 2.81058 2.45
      vertex 3.90911 2.81058 0
    endloop
  endfacet
  facet normal -0.980788 -0.195075 0
    outer loop
      vertex 3.90911 2.81058 2.45
      vertex 3.93973 2.65663 0
      vertex 3.93973 2.65663 2.45
    endloop
  endfacet
  facet normal -0.980788 0.195075 0
    outer loop
      vertex 3.90911 2.18942 0
      vertex 3.93973 2.34337 2.45
      vertex 3.93973 2.34337 0
    endloop
  endfacet
  facet normal -0.980788 0.195075 0
    outer loop
      vertex 3.93973 2.34337 2.45
      vertex 3.90911 2.18942 0
      vertex 3.90911 2.18942 2.45
    endloop
  endfacet
  facet normal -0.946923 0.32146 0
    outer loop
      vertex 3.85865 2.04078 0
      vertex 3.90911 2.18942 2.45
      vertex 3.90911 2.18942 0
    endloop
  endfacet
  facet normal -0.946923 0.32146 0
    outer loop
      vertex 3.90911 2.18942 2.45
      vertex 3.85865 2.04078 0
      vertex 3.85865 2.04078 2.45
    endloop
  endfacet
  facet normal -0.659307 0.751874 0
    outer loop
      vertex 3.59853 1.65147 0
      vertex 3.48051 1.54798 2.45
      vertex 3.59853 1.65147 2.45
    endloop
  endfacet
  facet normal -0.659307 0.751874 0
    outer loop
      vertex 3.48051 1.54798 2.45
      vertex 3.59853 1.65147 0
      vertex 3.48051 1.54798 0
    endloop
  endfacet
  facet normal -0.831452 0.555597 0
    outer loop
      vertex 3.70202 1.76949 0
      vertex 3.78923 1.9 2.45
      vertex 3.78923 1.9 0
    endloop
  endfacet
  facet normal -0.831452 0.555597 0
    outer loop
      vertex 3.78923 1.9 2.45
      vertex 3.70202 1.76949 0
      vertex 3.70202 1.76949 2.45
    endloop
  endfacet
  facet normal 0.195075 0.980788 -0
    outer loop
      vertex 2.59337 1.31027 0
      vertex 2.43942 1.34089 2.45
      vertex 2.59337 1.31027 2.45
    endloop
  endfacet
  facet normal 0.195075 0.980788 0
    outer loop
      vertex 2.43942 1.34089 2.45
      vertex 2.59337 1.31027 0
      vertex 2.43942 1.34089 0
    endloop
  endfacet
  facet normal 0.555597 0.831452 -0
    outer loop
      vertex 2.15 1.46077 0
      vertex 2.01949 1.54798 2.45
      vertex 2.15 1.46077 2.45
    endloop
  endfacet
  facet normal 0.555597 0.831452 0
    outer loop
      vertex 2.01949 1.54798 2.45
      vertex 2.15 1.46077 0
      vertex 2.01949 1.54798 0
    endloop
  endfacet
  facet normal 0.751874 0.659307 0
    outer loop
      vertex 1.90147 1.65147 2.45
      vertex 1.79798 1.76949 0
      vertex 1.79798 1.76949 2.45
    endloop
  endfacet
  facet normal 0.751874 0.659307 0
    outer loop
      vertex 1.79798 1.76949 0
      vertex 1.90147 1.65147 2.45
      vertex 1.90147 1.65147 0
    endloop
  endfacet
  facet normal -0.94704 -0.321117 0
    outer loop
      vertex 16.4091 2.81058 0
      vertex 16.3587 2.95922 2.45
      vertex 16.3587 2.95922 0
    endloop
  endfacet
  facet normal -0.94704 -0.321117 0
    outer loop
      vertex 16.3587 2.95922 2.45
      vertex 16.4091 2.81058 0
      vertex 16.4091 2.81058 2.45
    endloop
  endfacet
  facet normal -0.997845 -0.0656183 0
    outer loop
      vertex 16.45 2.5 0
      vertex 16.4397 2.65663 2.45
      vertex 16.4397 2.65663 0
    endloop
  endfacet
  facet normal -0.997845 -0.0656183 0
    outer loop
      vertex 16.4397 2.65663 2.45
      vertex 16.45 2.5 0
      vertex 16.45 2.5 2.45
    endloop
  endfacet
  facet normal 0.997845 -0.0656183 0
    outer loop
      vertex 14.05 2.5 2.45
      vertex 14.0603 2.65663 0
      vertex 14.0603 2.65663 2.45
    endloop
  endfacet
  facet normal 0.997845 -0.0656183 0
    outer loop
      vertex 14.0603 2.65663 0
      vertex 14.05 2.5 2.45
      vertex 14.05 2.5 0
    endloop
  endfacet
  facet normal -0.0654405 -0.997856 0
    outer loop
      vertex 15.25 3.7 0
      vertex 15.4066 3.68973 2.45
      vertex 15.25 3.7 2.45
    endloop
  endfacet
  facet normal -0.0654405 -0.997856 -0
    outer loop
      vertex 15.4066 3.68973 2.45
      vertex 15.25 3.7 0
      vertex 15.4066 3.68973 0
    endloop
  endfacet
  facet normal -0.751842 -0.659343 0
    outer loop
      vertex 16.202 3.23051 0
      vertex 16.0985 3.34853 2.45
      vertex 16.0985 3.34853 0
    endloop
  endfacet
  facet normal -0.751842 -0.659343 0
    outer loop
      vertex 16.0985 3.34853 2.45
      vertex 16.202 3.23051 0
      vertex 16.202 3.23051 2.45
    endloop
  endfacet
  facet normal 0.65937 -0.751818 0
    outer loop
      vertex 14.4015 3.34853 0
      vertex 14.5195 3.45202 2.45
      vertex 14.4015 3.34853 2.45
    endloop
  endfacet
  facet normal 0.65937 -0.751818 0
    outer loop
      vertex 14.5195 3.45202 2.45
      vertex 14.4015 3.34853 0
      vertex 14.5195 3.45202 0
    endloop
  endfacet
  facet normal 0.32148 -0.946916 0
    outer loop
      vertex 14.7908 3.60866 0
      vertex 14.9394 3.65911 2.45
      vertex 14.7908 3.60866 2.45
    endloop
  endfacet
  facet normal 0.32148 -0.946916 0
    outer loop
      vertex 14.9394 3.65911 2.45
      vertex 14.7908 3.60866 0
      vertex 14.9394 3.65911 0
    endloop
  endfacet
  facet normal 0.831481 0.555553 0
    outer loop
      vertex 14.298 1.76949 2.45
      vertex 14.2108 1.9 0
      vertex 14.2108 1.9 2.45
    endloop
  endfacet
  facet normal 0.831481 0.555553 0
    outer loop
      vertex 14.2108 1.9 0
      vertex 14.298 1.76949 2.45
      vertex 14.298 1.76949 0
    endloop
  endfacet
  facet normal -0.896683 -0.442673 0
    outer loop
      vertex 16.3587 2.95922 0
      vertex 16.2892 3.1 2.45
      vertex 16.2892 3.1 0
    endloop
  endfacet
  facet normal -0.896683 -0.442673 0
    outer loop
      vertex 16.2892 3.1 2.45
      vertex 16.3587 2.95922 0
      vertex 16.3587 2.95922 2.45
    endloop
  endfacet
  facet normal -0.831481 -0.555553 0
    outer loop
      vertex 16.2892 3.1 0
      vertex 16.202 3.23051 2.45
      vertex 16.202 3.23051 0
    endloop
  endfacet
  facet normal -0.831481 -0.555553 0
    outer loop
      vertex 16.202 3.23051 2.45
      vertex 16.2892 3.1 0
      vertex 16.2892 3.1 2.45
    endloop
  endfacet
  facet normal -0.442264 -0.896885 0
    outer loop
      vertex 15.7092 3.60866 0
      vertex 15.85 3.53923 2.45
      vertex 15.7092 3.60866 2.45
    endloop
  endfacet
  facet normal -0.442264 -0.896885 -0
    outer loop
      vertex 15.85 3.53923 2.45
      vertex 15.7092 3.60866 0
      vertex 15.85 3.53923 0
    endloop
  endfacet
  facet normal -0.195014 -0.980801 0
    outer loop
      vertex 15.4066 3.68973 0
      vertex 15.5606 3.65911 2.45
      vertex 15.4066 3.68973 2.45
    endloop
  endfacet
  facet normal -0.195014 -0.980801 -0
    outer loop
      vertex 15.5606 3.65911 2.45
      vertex 15.4066 3.68973 0
      vertex 15.5606 3.65911 0
    endloop
  endfacet
  facet normal -0.65937 -0.751818 0
    outer loop
      vertex 15.9805 3.45202 0
      vertex 16.0985 3.34853 2.45
      vertex 15.9805 3.45202 2.45
    endloop
  endfacet
  facet normal -0.65937 -0.751818 -0
    outer loop
      vertex 16.0985 3.34853 2.45
      vertex 15.9805 3.45202 0
      vertex 16.0985 3.34853 0
    endloop
  endfacet
  facet normal 0.896683 -0.442673 0
    outer loop
      vertex 14.1413 2.95922 2.45
      vertex 14.2108 3.1 0
      vertex 14.2108 3.1 2.45
    endloop
  endfacet
  facet normal 0.896683 -0.442673 0
    outer loop
      vertex 14.2108 3.1 0
      vertex 14.1413 2.95922 2.45
      vertex 14.1413 2.95922 0
    endloop
  endfacet
  facet normal 0.831481 -0.555553 0
    outer loop
      vertex 14.2108 3.1 2.45
      vertex 14.298 3.23051 0
      vertex 14.298 3.23051 2.45
    endloop
  endfacet
  facet normal 0.831481 -0.555553 0
    outer loop
      vertex 14.298 3.23051 0
      vertex 14.2108 3.1 2.45
      vertex 14.2108 3.1 0
    endloop
  endfacet
  facet normal 0.980813 -0.194952 0
    outer loop
      vertex 14.0603 2.65663 2.45
      vertex 14.0909 2.81058 0
      vertex 14.0909 2.81058 2.45
    endloop
  endfacet
  facet normal 0.980813 -0.194952 0
    outer loop
      vertex 14.0909 2.81058 0
      vertex 14.0603 2.65663 2.45
      vertex 14.0603 2.65663 0
    endloop
  endfacet
  facet normal 0.442264 -0.896885 0
    outer loop
      vertex 14.65 3.53923 0
      vertex 14.7908 3.60866 2.45
      vertex 14.65 3.53923 2.45
    endloop
  endfacet
  facet normal 0.442264 -0.896885 0
    outer loop
      vertex 14.7908 3.60866 2.45
      vertex 14.65 3.53923 0
      vertex 14.7908 3.60866 0
    endloop
  endfacet
  facet normal 0.0654405 -0.997856 0
    outer loop
      vertex 15.0934 3.68973 0
      vertex 15.25 3.7 2.45
      vertex 15.0934 3.68973 2.45
    endloop
  endfacet
  facet normal 0.0654405 -0.997856 0
    outer loop
      vertex 15.25 3.7 2.45
      vertex 15.0934 3.68973 0
      vertex 15.25 3.7 0
    endloop
  endfacet
  facet normal -0.195014 0.980801 0
    outer loop
      vertex 15.5606 1.34089 0
      vertex 15.4066 1.31027 2.45
      vertex 15.5606 1.34089 2.45
    endloop
  endfacet
  facet normal -0.195014 0.980801 0
    outer loop
      vertex 15.4066 1.31027 2.45
      vertex 15.5606 1.34089 0
      vertex 15.4066 1.31027 0
    endloop
  endfacet
  facet normal -0.0654405 0.997856 0
    outer loop
      vertex 15.4066 1.31027 0
      vertex 15.25 1.3 2.45
      vertex 15.4066 1.31027 2.45
    endloop
  endfacet
  facet normal -0.0654405 0.997856 0
    outer loop
      vertex 15.25 1.3 2.45
      vertex 15.4066 1.31027 0
      vertex 15.25 1.3 0
    endloop
  endfacet
  facet normal -0.65937 0.751818 0
    outer loop
      vertex 16.0985 1.65147 0
      vertex 15.9805 1.54798 2.45
      vertex 16.0985 1.65147 2.45
    endloop
  endfacet
  facet normal -0.65937 0.751818 0
    outer loop
      vertex 15.9805 1.54798 2.45
      vertex 16.0985 1.65147 0
      vertex 15.9805 1.54798 0
    endloop
  endfacet
  facet normal -0.442212 0.89691 0
    outer loop
      vertex 15.85 1.46077 0
      vertex 15.7092 1.39135 2.45
      vertex 15.85 1.46077 2.45
    endloop
  endfacet
  facet normal -0.442212 0.89691 0
    outer loop
      vertex 15.7092 1.39135 2.45
      vertex 15.85 1.46077 0
      vertex 15.7092 1.39135 0
    endloop
  endfacet
  facet normal -0.94704 0.321117 0
    outer loop
      vertex 16.3587 2.04078 0
      vertex 16.4091 2.18942 2.45
      vertex 16.4091 2.18942 0
    endloop
  endfacet
  facet normal -0.94704 0.321117 0
    outer loop
      vertex 16.4091 2.18942 2.45
      vertex 16.3587 2.04078 0
      vertex 16.3587 2.04078 2.45
    endloop
  endfacet
  facet normal 0.321537 0.946897 -0
    outer loop
      vertex 14.9394 1.34089 0
      vertex 14.7908 1.39135 2.45
      vertex 14.9394 1.34089 2.45
    endloop
  endfacet
  facet normal 0.321537 0.946897 0
    outer loop
      vertex 14.7908 1.39135 2.45
      vertex 14.9394 1.34089 0
      vertex 14.7908 1.39135 0
    endloop
  endfacet
  facet normal 0.442212 0.89691 -0
    outer loop
      vertex 14.7908 1.39135 0
      vertex 14.65 1.46077 2.45
      vertex 14.7908 1.39135 2.45
    endloop
  endfacet
  facet normal 0.442212 0.89691 0
    outer loop
      vertex 14.65 1.46077 2.45
      vertex 14.7908 1.39135 0
      vertex 14.65 1.46077 0
    endloop
  endfacet
  facet normal 0.997845 0.0656183 0
    outer loop
      vertex 14.0603 2.34337 2.45
      vertex 14.05 2.5 0
      vertex 14.05 2.5 2.45
    endloop
  endfacet
  facet normal 0.997845 0.0656183 0
    outer loop
      vertex 14.05 2.5 0
      vertex 14.0603 2.34337 2.45
      vertex 14.0603 2.34337 0
    endloop
  endfacet
  facet normal 0.896683 0.442673 0
    outer loop
      vertex 14.2108 1.9 2.45
      vertex 14.1413 2.04078 0
      vertex 14.1413 2.04078 2.45
    endloop
  endfacet
  facet normal 0.896683 0.442673 0
    outer loop
      vertex 14.1413 2.04078 0
      vertex 14.2108 1.9 2.45
      vertex 14.2108 1.9 0
    endloop
  endfacet
  facet normal -0.980813 -0.194952 0
    outer loop
      vertex 16.4397 2.65663 0
      vertex 16.4091 2.81058 2.45
      vertex 16.4091 2.81058 0
    endloop
  endfacet
  facet normal -0.980813 -0.194952 0
    outer loop
      vertex 16.4091 2.81058 2.45
      vertex 16.4397 2.65663 0
      vertex 16.4397 2.65663 2.45
    endloop
  endfacet
  facet normal -0.32148 -0.946916 0
    outer loop
      vertex 15.5606 3.65911 0
      vertex 15.7092 3.60866 2.45
      vertex 15.5606 3.65911 2.45
    endloop
  endfacet
  facet normal -0.32148 -0.946916 -0
    outer loop
      vertex 15.7092 3.60866 2.45
      vertex 15.5606 3.65911 0
      vertex 15.7092 3.60866 0
    endloop
  endfacet
  facet normal -0.555626 -0.831432 0
    outer loop
      vertex 15.85 3.53923 0
      vertex 15.9805 3.45202 2.45
      vertex 15.85 3.53923 2.45
    endloop
  endfacet
  facet normal -0.555626 -0.831432 -0
    outer loop
      vertex 15.9805 3.45202 2.45
      vertex 15.85 3.53923 0
      vertex 15.9805 3.45202 0
    endloop
  endfacet
  facet normal -0.555626 0.831432 0
    outer loop
      vertex 15.9805 1.54798 0
      vertex 15.85 1.46077 2.45
      vertex 15.9805 1.54798 2.45
    endloop
  endfacet
  facet normal -0.555626 0.831432 0
    outer loop
      vertex 15.85 1.46077 2.45
      vertex 15.9805 1.54798 0
      vertex 15.85 1.46077 0
    endloop
  endfacet
  facet normal -0.896683 0.442673 0
    outer loop
      vertex 16.2892 1.9 0
      vertex 16.3587 2.04078 2.45
      vertex 16.3587 2.04078 0
    endloop
  endfacet
  facet normal -0.896683 0.442673 0
    outer loop
      vertex 16.3587 2.04078 2.45
      vertex 16.2892 1.9 0
      vertex 16.2892 1.9 2.45
    endloop
  endfacet
  facet normal -0.751842 0.659343 0
    outer loop
      vertex 16.0985 1.65147 0
      vertex 16.202 1.76949 2.45
      vertex 16.202 1.76949 0
    endloop
  endfacet
  facet normal -0.751842 0.659343 0
    outer loop
      vertex 16.202 1.76949 2.45
      vertex 16.0985 1.65147 0
      vertex 16.0985 1.65147 2.45
    endloop
  endfacet
  facet normal -0.831481 0.555553 0
    outer loop
      vertex 16.202 1.76949 0
      vertex 16.2892 1.9 2.45
      vertex 16.2892 1.9 0
    endloop
  endfacet
  facet normal -0.831481 0.555553 0
    outer loop
      vertex 16.2892 1.9 2.45
      vertex 16.202 1.76949 0
      vertex 16.202 1.76949 2.45
    endloop
  endfacet
  facet normal 0.65937 0.751818 -0
    outer loop
      vertex 14.5195 1.54798 0
      vertex 14.4015 1.65147 2.45
      vertex 14.5195 1.54798 2.45
    endloop
  endfacet
  facet normal 0.65937 0.751818 0
    outer loop
      vertex 14.4015 1.65147 2.45
      vertex 14.5195 1.54798 0
      vertex 14.4015 1.65147 0
    endloop
  endfacet
  facet normal 0.0654405 0.997856 -0
    outer loop
      vertex 15.25 1.3 0
      vertex 15.0934 1.31027 2.45
      vertex 15.25 1.3 2.45
    endloop
  endfacet
  facet normal 0.0654405 0.997856 0
    outer loop
      vertex 15.0934 1.31027 2.45
      vertex 15.25 1.3 0
      vertex 15.0934 1.31027 0
    endloop
  endfacet
  facet normal 0.555626 0.831432 -0
    outer loop
      vertex 14.65 1.46077 0
      vertex 14.5195 1.54798 2.45
      vertex 14.65 1.46077 2.45
    endloop
  endfacet
  facet normal 0.555626 0.831432 0
    outer loop
      vertex 14.5195 1.54798 2.45
      vertex 14.65 1.46077 0
      vertex 14.5195 1.54798 0
    endloop
  endfacet
  facet normal 0.751842 0.659343 0
    outer loop
      vertex 14.4015 1.65147 2.45
      vertex 14.298 1.76949 0
      vertex 14.298 1.76949 2.45
    endloop
  endfacet
  facet normal 0.751842 0.659343 0
    outer loop
      vertex 14.298 1.76949 0
      vertex 14.4015 1.65147 2.45
      vertex 14.4015 1.65147 0
    endloop
  endfacet
  facet normal 0.980813 0.194952 0
    outer loop
      vertex 14.0909 2.18942 2.45
      vertex 14.0603 2.34337 0
      vertex 14.0603 2.34337 2.45
    endloop
  endfacet
  facet normal 0.980813 0.194952 0
    outer loop
      vertex 14.0603 2.34337 0
      vertex 14.0909 2.18942 2.45
      vertex 14.0909 2.18942 0
    endloop
  endfacet
  facet normal 0.751842 -0.659343 0
    outer loop
      vertex 14.298 3.23051 2.45
      vertex 14.4015 3.34853 0
      vertex 14.4015 3.34853 2.45
    endloop
  endfacet
  facet normal 0.751842 -0.659343 0
    outer loop
      vertex 14.4015 3.34853 0
      vertex 14.298 3.23051 2.45
      vertex 14.298 3.23051 0
    endloop
  endfacet
  facet normal 0.94704 -0.321117 0
    outer loop
      vertex 14.0909 2.81058 2.45
      vertex 14.1413 2.95922 0
      vertex 14.1413 2.95922 2.45
    endloop
  endfacet
  facet normal 0.94704 -0.321117 0
    outer loop
      vertex 14.1413 2.95922 0
      vertex 14.0909 2.81058 2.45
      vertex 14.0909 2.81058 0
    endloop
  endfacet
  facet normal 0.555626 -0.831432 0
    outer loop
      vertex 14.5195 3.45202 0
      vertex 14.65 3.53923 2.45
      vertex 14.5195 3.45202 2.45
    endloop
  endfacet
  facet normal 0.555626 -0.831432 0
    outer loop
      vertex 14.65 3.53923 2.45
      vertex 14.5195 3.45202 0
      vertex 14.65 3.53923 0
    endloop
  endfacet
  facet normal 0.195014 -0.980801 0
    outer loop
      vertex 14.9394 3.65911 0
      vertex 15.0934 3.68973 2.45
      vertex 14.9394 3.65911 2.45
    endloop
  endfacet
  facet normal 0.195014 -0.980801 0
    outer loop
      vertex 15.0934 3.68973 2.45
      vertex 14.9394 3.65911 0
      vertex 15.0934 3.68973 0
    endloop
  endfacet
  facet normal -0.321537 0.946897 0
    outer loop
      vertex 15.7092 1.39135 0
      vertex 15.5606 1.34089 2.45
      vertex 15.7092 1.39135 2.45
    endloop
  endfacet
  facet normal -0.321537 0.946897 0
    outer loop
      vertex 15.5606 1.34089 2.45
      vertex 15.7092 1.39135 0
      vertex 15.5606 1.34089 0
    endloop
  endfacet
  facet normal -0.980813 0.194952 0
    outer loop
      vertex 16.4091 2.18942 0
      vertex 16.4397 2.34337 2.45
      vertex 16.4397 2.34337 0
    endloop
  endfacet
  facet normal -0.980813 0.194952 0
    outer loop
      vertex 16.4397 2.34337 2.45
      vertex 16.4091 2.18942 0
      vertex 16.4091 2.18942 2.45
    endloop
  endfacet
  facet normal -0.997845 0.0656183 0
    outer loop
      vertex 16.4397 2.34337 0
      vertex 16.45 2.5 2.45
      vertex 16.45 2.5 0
    endloop
  endfacet
  facet normal -0.997845 0.0656183 0
    outer loop
      vertex 16.45 2.5 2.45
      vertex 16.4397 2.34337 0
      vertex 16.4397 2.34337 2.45
    endloop
  endfacet
  facet normal 0.195014 0.980801 -0
    outer loop
      vertex 15.0934 1.31027 0
      vertex 14.9394 1.34089 2.45
      vertex 15.0934 1.31027 2.45
    endloop
  endfacet
  facet normal 0.195014 0.980801 0
    outer loop
      vertex 14.9394 1.34089 2.45
      vertex 15.0934 1.31027 0
      vertex 14.9394 1.34089 0
    endloop
  endfacet
  facet normal 0.94704 0.321117 0
    outer loop
      vertex 14.1413 2.04078 2.45
      vertex 14.0909 2.18942 0
      vertex 14.0909 2.18942 2.45
    endloop
  endfacet
  facet normal 0.94704 0.321117 0
    outer loop
      vertex 14.0909 2.18942 0
      vertex 14.1413 2.04078 2.45
      vertex 14.1413 2.04078 0
    endloop
  endfacet
endsolid OpenSCAD_Model
