solid OpenSCAD_Model
  facet normal -0 0 1
    outer loop
      vertex 35.36 88 36.2
      vertex 59.36 80.5 36.2
      vertex 59.36 88 36.2
    endloop
  endfacet
  facet normal 0 0 1
    outer loop
      vertex 59.36 80.5 36.2
      vertex 35.36 88 36.2
      vertex 35.36 80.5 36.2
    endloop
  endfacet
  facet normal 0 0 -1
    outer loop
      vertex 35.36 80.5 26.2
      vertex 59.36 88 26.2
      vertex 59.36 80.5 26.2
    endloop
  endfacet
  facet normal -0 0 -1
    outer loop
      vertex 59.36 88 26.2
      vertex 35.36 80.5 26.2
      vertex 35.36 88 26.2
    endloop
  endfacet
  facet normal 0 -1 0
    outer loop
      vertex 35.36 80.5 26.2
      vertex 59.36 80.5 36.2
      vertex 35.36 80.5 36.2
    endloop
  endfacet
  facet normal 0 -1 -0
    outer loop
      vertex 59.36 80.5 36.2
      vertex 35.36 80.5 26.2
      vertex 59.36 80.5 26.2
    endloop
  endfacet
  facet normal 1 -0 0
    outer loop
      vertex 59.36 80.5 36.2
      vertex 59.36 88 26.2
      vertex 59.36 88 36.2
    endloop
  endfacet
  facet normal 1 0 0
    outer loop
      vertex 59.36 88 26.2
      vertex 59.36 80.5 36.2
      vertex 59.36 80.5 26.2
    endloop
  endfacet
  facet normal 0 1 -0
    outer loop
      vertex 59.36 88 26.2
      vertex 35.36 88 36.2
      vertex 59.36 88 36.2
    endloop
  endfacet
  facet normal 0 1 0
    outer loop
      vertex 35.36 88 36.2
      vertex 59.36 88 26.2
      vertex 35.36 88 26.2
    endloop
  endfacet
  facet normal -1 0 0
    outer loop
      vertex 35.36 80.5 26.2
      vertex 35.36 88 36.2
      vertex 35.36 88 26.2
    endloop
  endfacet
  facet normal -1 -0 0
    outer loop
      vertex 35.36 88 36.2
      vertex 35.36 80.5 26.2
      vertex 35.36 80.5 36.2
    endloop
  endfacet
endsolid OpenSCAD_Model
